<svg xmlns="http://www.w3.org/2000/svg" width="88" height="88" viewBox="0 0 88 88">
  <g fill="none" fill-rule="evenodd">
    <rect width="88" height="88" fill="#FFF" fill-opacity=".01"/>
    <path fill="#000" fill-rule="nonzero" d="M7.3,12.9153846 L60.0846154,65.7 L60.0846154,52.4062895 C60.0846154,38.6744284 59.0445174,33.2883591 56.0722072,27.7306222 C53.5714613,23.054634 49.945366,19.4285387 45.2693778,16.9277928 C39.7116409,13.9554826 34.3255716,12.9153846 20.5937105,12.9153846 L7.3,12.9153846 Z M47.7307692,73 L0,73 L0,5.61538462 L20.5937105,5.61538462 C36.8639276,5.61538462 42.7639014,7.30945201 48.7120494,10.4905565 C54.6601976,13.671661 59.328339,18.3398024 62.5094435,24.2879506 C65.6905479,30.2360986 67.3846154,36.1360724 67.3846154,52.4062895 L67.3846154,73 L47.7307692,73 Z M65.9807692,14.0384616 C62.1041552,14.0384616 58.9615384,10.8958449 58.9615384,7.01923076 C58.9615384,3.14261665 62.1041552,0 65.9807692,0 C69.8573834,0 73,3.14261665 73,7.01923076 C73,10.8958449 69.8573834,14.0384616 65.9807692,14.0384616 Z" transform="translate(10 6)"/>
  </g>
</svg>
