<svg xmlns="http://www.w3.org/2000/svg" width="146" height="22" viewBox="0 0 146 22">
  <g fill="none">
    <g fill="#000C20" transform="translate(21.61 2.571)">
      <path d="M1.89276384 13.6782355C.818009431 12.5982238.224233717 11.1318128.245380802 9.60979593.224233717 8.087779.818009431 6.62136801 1.89276384 5.54135631 2.96751826 4.46134465 4.43271909 3.85870744 5.95784588 3.86938774 7.18638393 3.859488 8.38254799 4.26231273 9.35391619 5.01306123L9.35391619 4.07999999 11.8077242 3.59020408 11.8077242 15.1071429 9.35391619 15.1071429 9.35391619 14.2040816C8.38286807 14.9557065 7.18667428 15.3594039 5.95784588 15.3502041 4.43271909 15.3608844 2.96751826 14.7582472 1.89276384 13.6782355zM6.03636773 6.25952285C4.1824531 6.25952285 2.67955836 7.75952285 2.67955836 9.60979593 2.67955836 11.4600625 4.1824531 12.960069 6.03636773 12.960069 6.92431563 12.964069 7.77650365 12.6111324 8.40068004 11.9808121 9.02485643 11.3504917 9.36843895 10.4958874 9.35391619 9.60979593 9.36843895 8.72370444 9.02485643 7.86910011 8.40068004 7.23877978 7.77650365 6.60845944 6.92431563 6.2555229 6.03636773 6.25952285zM18.9090446 15.244898C17.8858067 15.244898 17.12758 15 16.5656579 14.5297959 15.9227602 13.9763265 15.5841348 13.1216326 15.5841348 11.9877551L15.5841348 6.48979592 13.4812213 6.48979592 13.4812213 4.07999999 15.5964038 4.07999999 15.5964038 1.87591837 18.0502118 1.15591837 18.0502118 4.09469387 20.911352 4.09469387 20.911352 6.48979592 18.047758 6.48979592 18.047758 12C18.047758 12.3795918 18.1041956 12.6514286 18.2048017 12.7346939 18.4501825 12.957551 19.4881433 12.8669388 20.1089567 12.8106122L20.911352 12.7346939 20.911352 15.0293877 20.2856309 15.124898C19.8305328 15.2000837 19.3703118 15.2402022 18.9090446 15.244898L18.9090446 15.244898zM27.2863452 15.3502041C24.1120079 15.340743 21.5454921 12.7665004 21.551784 9.59840148 21.5581223 6.43030251 24.1348804 3.86627191 27.3092303 3.86941041 30.4835802 3.87256047 33.0552338 6.4416907 33.0552479 9.60979593 33.066521 11.1386481 32.4617908 12.6079016 31.3769546 13.6873796 30.2921183 14.7668575 28.8181712 15.366014 27.2863452 15.3502041L27.2863452 15.3502041zM27.2863452 6.25952285C25.4324306 6.25952285 23.9295358 7.75952285 23.9295358 9.60979593 23.9295358 11.4600625 25.4324306 12.960069 27.2863452 12.960069 28.1742931 12.964069 29.0264811 12.6111324 29.6506575 11.9808121 30.2748339 11.3504917 30.6184164 10.4958874 30.6038937 9.60979593 30.6184164 8.72370444 30.2748339 7.86910011 29.6506575 7.23877978 29.0264811 6.60845944 28.1742931 6.2555229 27.2863452 6.25952285zM50.1018522 15.1071429L47.6676746 15.1071429 47.6676746 8.32653061C47.6676746 6.99428571 47.0223231 6.26204083 45.849403 6.26204083 44.4654553 6.26204083 43.7023209 7.25387754 43.7023209 9.05632653L43.7023209 15.1071429 41.270597 15.1071429 41.270597 8.32653061C41.270597 7.38367348 40.9712326 6.26204083 39.5529316 6.26204083 38.8805882 6.26204083 37.3126047 6.53387754 37.3126047 9.05632653L37.3126047 15.1071429 34.8784271 15.1071429 34.8784271 4.07999999 37.297882 4.07999999 37.297882 4.55510205C37.9964594 4.09599498 38.8171945 3.857085 39.6535378 3.86938774 40.8217821 3.82802027 41.9450063 4.32133846 42.7036211 5.2089796 43.5181667 4.33545737 44.6662231 3.84847126 45.8616719 3.86938774 48.4332628 3.86938774 50.0944908 5.61795917 50.0944908 8.32408165L50.1018522 15.1071429zM54.7518185 15.1071429L52.3200947 15.1071429 52.3200947 4.07999999 54.7518185 4.07999999 54.7518185 15.1071429zM53.5371834 3.23023967C53.1360984 3.2321573 52.7507338 3.0746759 52.466201 2.79254109 52.1816683 2.51040628 52.0213773 2.12683074 52.02073 1.72653061 52.02073.896074685 52.6952748.222857143 53.5273682.222857143 54.3594613.222857143 55.0340065.896074685 55.0340065 1.72653061 55.0340065 2.55698654 54.3594613 3.23023967 53.5273682 3.23023967L53.5371834 3.23023967z"/>
      <polygon points="57.004 15.107 57.004 13.536 62.072 6.49 57.198 6.49 57.198 4.08 65.588 4.08 65.588 5.684 60.538 12.73 65.779 12.73 65.779 15.107"/>
      <path d="M77.5182491,10.8416327 L69.0280734,10.8416327 C69.4795741,12.1518367 70.6500405,12.96 72.1934859,12.96 C73.4032131,12.96 74.4019129,12.4506122 74.8705905,11.5959184 L76.9931344,12.8204082 C76.0386031,14.4 74.237508,15.3428571 72.1738553,15.3428571 C68.8194996,15.3428571 66.3828683,12.9281633 66.3828683,9.60244898 C66.3828683,6.33061225 68.8366765,3.86204082 72.0977873,3.86204082 C75.2214848,3.86204082 77.6924695,6.40897959 77.5795944,9.64163266 C77.5820465,10.0424719 77.5615648,10.4431239 77.5182491,10.8416327 Z M69.0133506,8.43428571 L74.9613812,8.43428571 C74.6336398,7.13038831 73.444346,6.22720533 72.0977873,6.25959183 C70.5985107,6.25959183 69.442767,7.10204082 69.0133506,8.43428571 L69.0133506,8.43428571 Z"/>
    </g>
    <path fill="#000" d="M1.8,3.18461539 L14.8153846,16.2 L14.8153846,12.9220988 C14.8153846,9.53616044 14.5589221,8.20808855 13.8260237,6.83768768 C13.2094014,5.68470426 12.3152957,4.79059859 11.1623123,4.17397632 C9.79191145,3.4410779 8.46383956,3.18461539 5.07790122,3.18461539 L1.8,3.18461539 Z M11.7692308,18 L0,18 L0,1.38461539 L5.07790122,1.38461539 C9.08973556,1.38461539 10.5445236,1.80233063 12.0111903,2.58671255 C13.4778569,3.37109448 14.6289055,4.52214305 15.4132874,5.98880973 C16.1976694,7.45547638 16.6153846,8.91026444 16.6153846,12.9220988 L16.6153846,18 L11.7692308,18 Z M16.2692308,3.46153847 C15.3133533,3.46153847 14.5384615,2.68664668 14.5384615,1.73076923 C14.5384615,0.774891778 15.3133533,0 16.2692308,0 C17.2251082,0 18,0.774891778 18,1.73076923 C18,2.68664668 17.2251082,3.46153847 16.2692308,3.46153847 Z"/>
    <path stroke="#000" d="M112.905762,17.1845703 C111.32666,17.1845703 110.106445,16.4155273 109.439941,15.1645508 L109.398926,15.1645508 L109.398926,17 L107.245605,17 L107.245605,2.20361328 L109.460449,2.20361328 L109.460449,8.04833984 L109.511719,8.04833984 C110.157715,6.79736328 111.388184,6.03857422 112.916016,6.03857422 C115.633301,6.03857422 117.407227,8.19189453 117.407227,11.6064453 C117.407227,15.03125 115.643555,17.1845703 112.905762,17.1845703 Z M112.311035,7.90478516 C110.629395,7.90478516 109.450195,9.38134766 109.450195,11.6064453 C109.450195,13.8520508 110.629395,15.3081055 112.311035,15.3081055 C114.054199,15.3081055 115.130859,13.8930664 115.130859,11.6064453 C115.130859,9.34033203 114.054199,7.90478516 112.311035,7.90478516 Z M119.211914,17 L119.211914,2.20361328 L121.426758,2.20361328 L121.426758,17 L119.211914,17 Z M128.337891,17.2050781 C125.251465,17.2050781 123.221191,15.0825195 123.221191,11.6064453 C123.221191,8.140625 125.261719,6.01806641 128.337891,6.01806641 C131.414062,6.01806641 133.45459,8.140625 133.45459,11.6064453 C133.45459,15.0825195 131.424316,17.2050781 128.337891,17.2050781 Z M128.337891,15.3798828 C130.081055,15.3798828 131.19873,14.0058594 131.19873,11.6064453 C131.19873,9.21728516 130.070801,7.84326172 128.337891,7.84326172 C126.60498,7.84326172 125.477051,9.21728516 125.477051,11.6064453 C125.477051,14.0058594 126.60498,15.3798828 128.337891,15.3798828 Z M139.760742,15.2055664 C141.493652,15.2055664 142.631836,13.8007812 142.631836,11.5756836 C142.631836,9.36083984 141.493652,7.90478516 139.760742,7.90478516 C138.058594,7.90478516 136.951172,9.33007812 136.951172,11.5756836 C136.951172,13.831543 138.058594,15.2055664 139.760742,15.2055664 Z M139.78125,21.0605469 C137.238281,21.0605469 135.351562,19.7070312 135.074707,17.8408203 L137.299805,17.8408203 C137.617676,18.7431641 138.602051,19.3378906 139.863281,19.3378906 C141.596191,19.3378906 142.621582,18.3535156 142.621582,16.8769531 L142.621582,15.1030273 L142.580566,15.1030273 C141.975586,16.2719727 140.704102,17.0410156 139.166016,17.0410156 C136.458984,17.0410156 134.685059,14.9287109 134.685059,11.5654297 C134.685059,8.17138672 136.44873,6.03857422 139.217285,6.03857422 C140.745117,6.03857422 141.996094,6.80761719 142.652344,8.05859375 L142.693359,8.05859375 L142.693359,6.21289062 L144.84668,6.21289062 L144.84668,16.8051758 C144.84668,19.3789062 142.857422,21.0605469 139.78125,21.0605469 Z"/>
  </g>
</svg>
