<svg xmlns="http://www.w3.org/2000/svg" width="64" height="64" viewBox="0 0 64 64">
  <g fill="none" fill-rule="evenodd">
    <circle cx="32" cy="32" r="32" fill="#36AB80"/>
    <path fill="#FFF" fill-rule="nonzero" d="M29.1464844,42 L27.3203125,36.1894531 L18.9033203,36.1894531 L17.0771484,42 L11.9306641,42 L20.2480469,18.0439453 L26.1416016,18.0439453 L34.4755859,42 L29.1464844,42 Z M23.0537109,22.6259766 L19.9824219,32.4375 L26.2412109,32.4375 L23.1699219,22.6259766 L23.0537109,22.6259766 Z M43.3740234,38.7792969 C45.4824219,38.7792969 47.2255859,37.4013672 47.2255859,35.4755859 L47.2255859,34.1806641 L43.4736328,34.4130859 C41.6640625,34.5458984 40.6347656,35.359375 40.6347656,36.6210938 C40.6347656,37.9492188 41.7304688,38.7792969 43.3740234,38.7792969 Z M41.7802734,42.2822266 C38.3935547,42.2822266 35.8203125,40.0908203 35.8203125,36.8867188 C35.8203125,33.6494141 38.3105469,31.7734375 42.7431641,31.5078125 L47.2255859,31.2421875 L47.2255859,30.0634766 C47.2255859,28.4033203 46.0634766,27.4404297 44.2373047,27.4404297 C42.4277344,27.4404297 41.2822266,28.3369141 41.0498047,29.6484375 L36.6171875,29.6484375 C36.7998047,26.1953125 39.7382812,23.8212891 44.453125,23.8212891 C49.0185547,23.8212891 51.9902344,26.1787109 51.9902344,29.7646484 L51.9902344,42 L47.3085938,42 L47.3085938,39.2773438 L47.2089844,39.2773438 C46.2128906,41.1699219 44.0048828,42.2822266 41.7802734,42.2822266 Z"/>
  </g>
</svg>
