<svg xmlns="http://www.w3.org/2000/svg" width="38" height="34" viewBox="0 0 38 34">
  <path fill="#00D8FF" d="M30.7015255,10.993669 C34.8013107,12.4049949 37.366607,14.6209398 37.366607,16.9698853 C37.366607,19.4186097 34.6184751,21.7477144 30.2865322,23.1828882 C30.1835001,23.217055 30.0777503,23.2511026 29.9687902,23.2852231 C30.0155326,23.4879978 30.0592403,23.6915309 30.0999178,23.8958534 C30.9536886,28.2081766 30.2606373,31.7148193 28.1658059,32.9275361 C26.1376995,34.1016227 22.9805836,33.043721 19.7605705,30.2730116 C19.5194429,30.065014 19.2824864,29.8522486 19.0498406,29.6348427 C18.889765,29.7843113 18.7272829,29.9313048 18.5623573,30.0758526 C15.2526472,32.9691413 11.8685548,34.1199407 9.77171338,32.9107174 C7.74165788,31.7398543 7.08155522,28.4764832 7.87389103,24.3031801 C7.93349243,23.9908715 7.9993102,23.6797944 8.07130366,23.3701337 C7.86243134,23.3062833 7.6544975,23.2391291 7.44745982,23.1686544 C3.28755319,21.7468004 0.6,19.3902493 0.6,16.9698853 C0.6,14.6264425 3.09737217,12.4241569 7.10810578,11.0257865 C7.42346009,10.9158445 7.75163892,10.8098619 8.09239816,10.7077499 C8.02754992,10.4297497 7.96756837,10.1505748 7.91246054,9.87024336 C7.07981081,5.61536764 7.71234258,2.28503464 9.74530436,1.1081931 C11.8644979,-0.118636305 15.2570349,1.09281548 18.6699515,4.12307474 C18.7805409,4.22148349 18.8901453,4.32098898 18.9987484,4.42157627 C19.2067201,4.22706392 19.4181191,4.03615705 19.6329376,3.84886687 C22.9032075,1.00276243 26.1043509,-0.112447218 28.1392252,1.06078616 C30.2606972,2.28410893 30.9054885,5.82820286 29.9846586,10.2981689 C29.9556034,10.4391631 29.924216,10.583342 29.8904647,10.7310853 C30.162312,10.8138985 30.4327066,10.9014393 30.7015255,10.993669 Z M35.0301585,16.9698853 C35.0301585,15.850564 33.0219051,14.2634748 29.941552,13.2029699 C29.7232385,13.1278522 29.4977757,13.0546177 29.2652319,12.9832254 C28.8508618,14.263302 28.3226404,15.604586 27.6935595,16.975383 C28.3555565,18.3846174 28.9056418,19.7464897 29.3326722,21.0360283 C29.4073018,21.0123967 29.4802842,20.98879 29.55176,20.9651525 C32.851041,19.8718366 35.0301585,18.1768724 35.0301585,16.9698853 Z M27.7076753,23.8784908 C26.3621341,24.1703626 24.899477,24.3906333 23.3566849,24.5342607 C22.4735658,25.8014254 21.5754445,26.9501351 20.6780944,27.9587349 C20.8769938,28.1437569 21.0793277,28.3249826 21.2848962,28.5022343 C23.7006137,30.581047 26.0187043,31.4707725 26.9951021,30.9055341 C27.4211432,30.6589201 27.7898057,29.9706728 27.979828,28.9458741 C28.210864,27.7005671 28.1547964,26.1015965 27.8079265,24.3496432 C27.777433,24.1956517 27.7440096,24.0386116 27.7076753,23.8784908 Z M17.0244301,28.3170684 C17.1552684,28.2023819 17.2844792,28.0858616 17.4120244,27.9675427 C16.4782226,26.9401144 15.554819,25.7920301 14.6679372,24.5556019 C13.1185992,24.4235273 11.6659096,24.2185644 10.3369763,23.9435353 C10.2761129,24.2078427 10.220233,24.4732185 10.169393,24.7393887 C9.57489031,27.8704274 9.9617386,30.3230304 10.9390148,30.8866434 C11.3654047,31.1324777 12.1458399,31.1081638 13.128613,30.7611658 C14.3226275,30.3394738 15.6797605,29.4923847 17.0244301,28.3170684 Z M8.69788588,21.1184723 C9.12479065,19.7863466 9.66285516,18.40265 10.2967187,17.0073963 C9.67176322,15.6339456 9.14172069,14.2731401 8.71963574,12.9588917 C8.42917747,13.046582 8.14812897,13.1377111 7.87724586,13.2320821 C4.86788886,14.2812479 2.93658899,15.8416175 2.93658899,16.9698853 C2.93658899,17.4620587 3.34755422,18.1260123 4.13919292,18.8038295 C5.10099302,19.6274713 6.51280358,20.3799452 8.20304513,20.957737 C8.36723763,21.013631 8.53220086,21.0672146 8.69788588,21.1184723 Z M17.1183279,5.86996517 C14.5194637,3.5623518 11.9606199,2.52557325 10.9160245,3.13032613 C9.94729375,3.69113223 9.57992358,6.22438255 10.2054982,9.42143185 L10.2129427,9.49824418 L10.2054118,9.42113201 C10.2521824,9.65874196 10.3028489,9.89555952 10.35739,10.1314891 C11.701629,9.84421398 13.1423617,9.62488901 14.6398345,9.47963329 C15.5185409,8.25095208 16.4331847,7.11158029 17.3611074,6.08964505 C17.2807398,6.01570983 17.1998,5.94247127 17.1183279,5.86996517 Z M26.3151036,14.2681589 C26.5699537,13.6312751 26.7981685,13.0070832 26.9981434,12.3998211 C26.3625045,12.2645808 25.7038447,12.1456503 25.0267037,12.043916 C25.2469192,12.4027563 25.4625317,12.7644149 25.6734872,13.1288031 C25.8919593,13.5059915 26.105847,13.8858047 26.3151036,14.2681589 Z M17.7080037,9.28948015 C18.565385,9.26552724 19.4232715,9.26574573 20.2806411,9.29013543 C19.8552369,8.74995292 19.4273068,8.23905737 18.9998162,7.76104462 C18.5656466,8.24350564 18.1340612,8.75411649 17.7080037,9.28948015 Z M12.2866656,13.140055 C12.5000387,12.7699807 12.7185205,12.4031964 12.9421156,12.0395479 C12.2700642,12.1389542 11.6176285,12.2545364 10.989742,12.3854531 C11.1897209,12.9981535 11.4150894,13.6226795 11.6643881,14.2548678 C11.8666179,13.8804028 12.0740636,13.5087622 12.2866656,13.140055 Z M12.2930852,20.8746922 C12.0790072,20.5048529 11.8701543,20.1320301 11.6665875,19.756335 C11.4079231,20.4109851 11.1748343,21.0564534 10.96918,21.6876184 C11.60769,21.8157867 12.2791244,21.9272497 12.9797416,22.0214721 C12.7452601,21.6425307 12.5162299,21.2600771 12.2930852,20.8746922 Z M20.3299323,24.7135825 C19.8824563,24.7257959 19.4333598,24.7319407 18.9833035,24.7319407 C18.5580083,24.7319407 18.1355612,24.7270848 17.7163808,24.7174084 C18.1538629,25.2677002 18.5961679,25.7913822 19.039739,26.2842303 C19.4688006,25.7961193 19.8996631,25.2715651 20.3299323,24.7135825 Z M25.6799117,20.8635517 C25.4624301,21.2407852 25.2404095,21.6153719 25.0138991,21.9872301 C25.7263454,21.8850767 26.4122039,21.7644395 27.0661686,21.6261985 C26.854726,20.9993418 26.6112345,20.3516471 26.3371713,19.6868153 C26.1234692,20.0820395 25.9043609,20.4743247 25.6799117,20.8635517 Z M23.655807,19.6965474 C24.1680974,18.8092824 24.6502918,17.9055924 25.1018428,16.9865473 C24.6458511,16.0763765 24.1621292,15.1803159 23.6511336,14.2992443 C23.1431855,13.4207699 22.6062371,12.5594073 22.0411775,11.7165763 C21.0338709,11.6445015 20.0107887,11.6079225 18.9833035,11.6079225 C17.9591095,11.6079225 16.9372074,11.6442274 15.9304437,11.7157687 C15.3599098,12.5599271 14.8197066,13.4242171 14.3108716,14.3069871 C13.8018477,15.1896263 13.3241825,16.0899534 12.8788101,17.0063079 C13.325315,17.9223573 13.8044114,18.8221818 14.3151866,19.7040579 L14.3723983,19.8028364 C14.8686325,20.654911 15.3939024,21.4897318 15.9472829,22.3058312 C16.9315689,22.3655114 17.9464572,22.3956742 18.9835111,22.3956742 C20.0074624,22.3961706 21.0311063,22.3624278 22.0527234,22.2944699 C22.6134065,21.445035 23.1480178,20.5786572 23.655807,19.6965474 Z M21.1672407,5.61081995 C20.9881624,5.76704505 20.8116117,5.92613135 20.6376563,6.08801666 C21.548999,7.0966567 22.4564415,8.23728314 23.3383758,9.48193185 C24.8393074,9.62937573 26.2808104,9.85237417 27.6274972,10.1453995 C27.6518665,10.0369633 27.6747914,9.93071179 27.6962801,9.82651659 C28.3975133,6.42255373 28.0177853,3.68793094 26.9721944,3.08485419 C26.0025956,2.5257405 23.6243852,3.47258456 21.1672407,5.61081995 Z M18.9833035,13.3581797 C20.9779612,13.3581797 22.5950091,14.9752276 22.5950091,16.9698853 C22.5950091,18.964543 20.9779612,20.5815909 18.9833035,20.5815909 C16.9886458,20.5815909 15.3715979,18.964543 15.3715979,16.9698853 C15.3715979,14.9752276 16.9886458,13.3581797 18.9833035,13.3581797 Z"/>
</svg>
