<svg xmlns="http://www.w3.org/2000/svg" width="124" height="36" viewBox="0 0 124 36">
  <g fill="none" fill-rule="evenodd">
    <path fill="#FFF" fill-rule="nonzero" d="M18,0 L106,0 C115.941125,0 124,8.0588745 124,18 C124,27.9411255 115.941125,36 106,36 L18,36 C8.0588745,36 0,27.9411255 0,18 C0,8.0588745 8.0588745,0 18,0 Z"/>
    <path fill="#DA552F" d="M31.0935673,18 C31.0935673,24.6274 25.7000214,30 19.0467836,30 C12.3935458,30 7,24.6274 7,18 C7,11.3726 12.3935458,6 19.0467836,6 C25.7000214,6 31.0935673,11.3726 31.0935673,18 Z M20.6530214,17.99995 L17.2397661,17.99995 L17.2397661,14.39995 L20.6530214,14.39995 C21.6509971,14.39995 22.460039,15.20595 22.460039,16.19995 C22.460039,17.19405 21.6509971,17.99995 20.6530214,17.99995 Z M20.6530214,11.99995 L14.8304094,11.99995 L14.8304094,23.99995 L17.2397661,23.99995 L17.2397661,20.39995 L20.6530214,20.39995 C22.9816647,20.39995 24.8693957,18.51965 24.8693957,16.19995 C24.8693957,13.88045 22.9816647,11.99995 20.6530214,11.99995 Z M39.1247463,21.99995 L39.1247463,13.99995 L42.814375,13.99995 C44.5296362,13.99995 45.4637638,15.15455 45.4637638,16.53315 C45.4637638,17.89975 44.5180913,19.05425 42.814375,19.05425 L40.8043691,19.05425 L40.8043691,21.99995 L39.1247463,21.99995 Z M43.7495065,16.53315 C43.7495065,15.87315 43.240028,15.47265 42.5783584,15.47265 L40.8043691,15.47265 L40.8043691,17.58175 L42.5783584,17.58175 C43.240028,17.58175 43.7495065,17.18115 43.7495065,16.53315 Z M46.4856222,22 L46.4856222,16.1676 L47.9871534,16.1676 L47.9871534,16.9337 C48.4012616,16.4387 49.0994731,16.0266 49.8092294,16.0266 L49.8092294,17.4872 C49.7023142,17.4637 49.5723094,17.4522 49.3951212,17.4522 C48.8981914,17.4522 48.2356183,17.7347 47.9871534,18.1003 L47.9871534,22 L46.4856222,22 Z M50.3783898,19.00732 C50.3783898,17.39322 51.5138995,16.02662 53.394804,16.02662 C55.2872533,16.02662 56.4227631,17.39322 56.4227631,19.00732 C56.4227631,20.62142 55.2872533,22.00002 53.394804,22.00002 C51.5138995,22.00002 50.3783898,20.62142 50.3783898,19.00732 Z M54.8616003,19.00732 C54.8616003,18.12372 54.3405769,17.35772 53.394804,17.35772 C52.4596724,17.35772 51.9396529,18.12372 51.9396529,19.00732 C51.9396529,19.90282 52.4596724,20.66842 53.394804,20.66842 C54.3405769,20.66842 54.8616003,19.90282 54.8616003,19.00732 Z M61.4770915,22.00001 L61.4770915,21.12791 C61.0273449,21.69341 60.4128586,22.00001 59.7145467,22.00001 C58.2834892,22.00001 57.1836178,20.91591 57.1836178,19.00731 C57.1836178,17.15771 58.2603995,16.02661 59.7145467,16.02661 C60.388765,16.02661 61.0273449,16.30911 61.4770915,16.89821 L61.4770915,14.00001 L62.9910711,14.00001 L62.9910711,22.00001 L61.4770915,22.00001 Z M61.4770915,20.02041 L61.4770915,18.00581 C61.2285262,17.62871 60.6844132,17.35771 60.1874833,17.35771 C59.3246325,17.35771 58.7332358,18.02921 58.7332358,19.00731 C58.7332358,19.99691 59.3246325,20.66841 60.1874833,20.66841 C60.6844132,20.66841 61.2285262,20.39741 61.4770915,20.02041 Z M68.3409473,22 L68.3409473,21.1399 C67.9509327,21.564 67.2651695,22 66.3310418,22 C65.077072,22 64.4857757,21.3165 64.4857757,20.2089 L64.4857757,16.1676 L65.9872065,16.1676 L65.9872065,19.6198 C65.9872065,20.4094 66.4013147,20.6685 67.0398946,20.6685 C67.6195457,20.6685 68.0809375,20.3504 68.3409473,20.0204 L68.3409473,16.1676 L69.843382,16.1676 L69.843382,22 L68.3409473,22 Z M70.9711818,19.00732 C70.9711818,17.26372 72.2482412,16.02662 73.9991408,16.02662 C75.1701886,16.02662 75.8799449,16.53312 76.2585151,17.05172 L75.2762003,17.97022 C75.0046457,17.56972 74.5904371,17.35772 74.0704176,17.35772 C73.1592792,17.35772 72.5207997,18.01772 72.5207997,19.00732 C72.5207997,19.99692 73.1592792,20.66842 74.0704176,20.66842 C74.5904371,20.66842 75.0046457,20.43292 75.2762003,20.04382 L76.2585151,20.96302 C75.8799449,21.48142 75.1701886,22.00002 73.9991408,22.00002 C72.2482412,22.00002 70.9711818,20.76292 70.9711818,19.00732 Z M77.5500508,20.43291 L77.5500508,17.47571 L76.6042779,17.47571 L76.6042779,16.16761 L77.5500508,16.16761 L77.5500508,14.61251 L79.0524855,14.61251 L79.0524855,16.16761 L80.2110849,16.16761 L80.2110849,17.47571 L79.0524855,17.47571 L79.0524855,20.03241 C79.0524855,20.39741 79.2412184,20.66841 79.572505,20.66841 C79.7969767,20.66841 80.0107067,20.58591 80.0925245,20.49191 L80.4123666,21.63451 C80.1878948,21.83501 79.7854319,22.00001 79.1583968,22.00001 C78.1057087,22.00001 77.5500508,21.45801 77.5500508,20.43291 Z M89.8328108,22 L89.8328108,18.5478 L86.1066403,18.5478 L86.1066403,22 L84.427921,22 L84.427921,14 L86.1066403,14 L86.1066403,17.0867 L89.8328108,17.0867 L89.8328108,14 L91.5239785,14 L91.5239785,22 L89.8328108,22 Z M96.898922,22 L96.898922,21.1399 C96.5089074,21.564 95.8231442,22 94.8890166,22 C93.6350468,22 93.0437505,21.3165 93.0437505,20.2089 L93.0437505,16.1676 L94.5451813,16.1676 L94.5451813,19.6198 C94.5451813,20.4094 94.9592895,20.6685 95.597769,20.6685 C96.1775205,20.6685 96.6389123,20.3504 96.898922,20.0204 L96.898922,16.1676 L98.4013567,16.1676 L98.4013567,22 L96.898922,22 Z M103.750339,22 L103.750339,18.4183 C103.750339,17.6287 103.337235,17.3577 102.697752,17.3577 C102.106355,17.3577 101.657512,17.6877 101.396599,18.0177 L101.396599,22 L99.8951679,22 L99.8951679,16.1676 L101.396599,16.1676 L101.396599,16.8982 C101.763524,16.4742 102.47328,16.0266 103.395963,16.0266 C104.661377,16.0266 105.264319,16.7332 105.264319,17.8408 L105.264319,22 L103.750339,22 Z M107.054672,20.43291 L107.054672,17.47571 L106.108899,17.47571 L106.108899,16.16761 L107.054672,16.16761 L107.054672,14.61251 L108.557107,14.61251 L108.557107,16.16761 L109.715706,16.16761 L109.715706,17.47571 L108.557107,17.47571 L108.557107,20.03241 C108.557107,20.39741 108.74594,20.66841 109.077126,20.66841 C109.301598,20.66841 109.515428,20.58591 109.59825,20.49191 L109.916988,21.63451 C109.692616,21.83501 109.290053,22.00001 108.663018,22.00001 C107.61043,22.00001 107.054672,21.45801 107.054672,20.43291 Z"/>
  </g>
</svg>
