<svg xmlns="http://www.w3.org/2000/svg" width="107" height="19" viewBox="0 0 107 19">
  <path d="M157.8,30.1846154 L170.815385,43.2 L170.815385,39.9220988 C170.815385,36.5361604 170.558922,35.2080886 169.826024,33.8376877 C169.209401,32.6847043 168.315296,31.7905986 167.162312,31.1739763 C165.791911,30.4410779 164.46384,30.1846154 161.077901,30.1846154 L157.8,30.1846154 Z M167.769231,45 L156,45 L156,28.3846154 L161.077901,28.3846154 C165.089736,28.3846154 166.544524,28.8023306 168.01119,29.5867126 C169.477857,30.3710945 170.628906,31.5221431 171.413287,32.9888097 C172.197669,34.4554764 172.615385,35.9102644 172.615385,39.9220988 L172.615385,45 L167.769231,45 Z M172.269231,30.4615385 C171.313353,30.4615385 170.538462,29.6866467 170.538462,28.7307692 C170.538462,27.7748918 171.313353,27 172.269231,27 C173.225108,27 174,27.7748918 174,28.7307692 C174,29.6866467 173.225108,30.4615385 172.269231,30.4615385 Z M180.46101,43.2440787 C179.290721,42.0680659 178.644166,40.4713073 178.667192,38.814 C178.644166,37.1566927 179.290721,35.5599341 180.46101,34.3839213 C181.631298,33.2079086 183.226739,32.5517037 184.887432,32.5633333 C186.225174,32.5525536 187.527663,32.991185 188.585375,33.8086667 L188.585375,32.7926667 L191.2573,32.2593333 L191.2573,44.8 L188.585375,44.8 L188.585375,43.8166667 C187.528012,44.6351026 186.22549,45.0746842 184.887432,45.0646667 C183.226739,45.0762964 181.631298,44.4200914 180.46101,43.2440787 Z M184.972934,35.1659249 C182.954227,35.1659249 181.317741,36.7992652 181.317741,38.814 C181.317741,40.8287348 182.954227,42.4620752 184.972934,42.4620752 C185.93981,42.4664306 186.867748,42.082122 187.547407,41.3957731 C188.227066,40.7094243 188.601189,39.7788552 188.585375,38.814 C188.601189,37.8491448 188.227066,36.9185757 187.547407,36.2322269 C186.867748,35.5458781 185.93981,35.1615694 184.972934,35.1659249 Z M198.989849,44.95 C197.875656,44.95 197.050032,44.6833333 196.438161,44.1713333 C195.738117,43.5686667 195.369391,42.638 195.369391,41.4033333 L195.369391,35.4166667 L193.079552,35.4166667 L193.079552,32.7926667 L195.382751,32.7926667 L195.382751,30.3926667 L198.054675,29.6086667 L198.054675,32.8086667 L201.170139,32.8086667 L201.170139,35.4166667 L198.052003,35.4166667 L198.052003,41.4166667 C198.052003,41.83 198.113457,42.126 198.223006,42.2166667 C198.490199,42.4593333 199.620423,42.3606667 200.29642,42.2993333 L201.170139,42.2166667 L201.170139,44.7153333 L200.488798,44.8193333 C199.993247,44.9012023 199.492117,44.9448868 198.989849,44.95 Z M208.111798,45.0646667 C204.655297,45.0543646 201.860647,42.2513005 201.867498,38.8015927 C201.8744,35.351885 204.680203,32.5599405 208.136717,32.563358 C211.593232,32.5667881 214.393477,35.3642854 214.393492,38.814 C214.405767,40.4787501 213.747283,42.078604 212.566017,43.2540355 C211.384751,44.4294671 209.779786,45.0818819 208.111798,45.0646667 Z M208.111798,35.1659249 C206.093091,35.1659249 204.456606,36.7992652 204.456606,38.814 C204.456606,40.8287348 206.093091,42.4620752 208.111798,42.4620752 C209.078675,42.4664306 210.006613,42.082122 210.686272,41.3957731 C211.36593,40.7094243 211.740053,39.7788552 211.72424,38.814 C211.740053,37.8491448 211.36593,36.9185757 210.686272,36.2322269 C210.006613,35.5458781 209.078675,35.1615694 208.111798,35.1659249 Z M232.95535,44.8 L230.304801,44.8 L230.304801,37.4166667 C230.304801,35.966 229.602085,35.1686667 228.324905,35.1686667 C226.81794,35.1686667 225.986972,36.2486666 225.986972,38.2113333 L225.986972,44.8 L223.339095,44.8 L223.339095,37.4166667 C223.339095,36.39 223.01312,35.1686667 221.468748,35.1686667 C220.736641,35.1686667 219.029281,35.4646666 219.029281,38.2113333 L219.029281,44.8 L216.378732,44.8 L216.378732,32.7926667 L219.013249,32.7926667 L219.013249,33.31 C219.773922,32.8100834 220.667612,32.549937 221.578297,32.5633333 C222.850385,32.5182887 224.073451,33.0554574 224.899499,34.022 C225.786448,33.0708314 227.036554,32.5405576 228.338265,32.5633333 C231.138442,32.5633333 232.947334,34.4673333 232.947334,37.414 L232.95535,44.8 Z M238.018647,44.8 L235.37077,44.8 L235.37077,32.7926667 L238.018647,32.7926667 L238.018647,44.8 Z M236.696044,31.8673721 C236.259307,31.8694602 235.839688,31.6979804 235.529863,31.390767 C235.220039,31.0835535 235.0455,30.6658824 235.044795,30.23 C235.044795,29.3257258 235.779299,28.5926667 236.685357,28.5926667 C237.591413,28.5926667 238.325918,29.3257258 238.325918,30.23 C238.325918,31.1342742 237.591413,31.8673721 236.685357,31.8673721 L236.696044,31.8673721 Z M240.471473,44.8 L240.471473,43.0886667 L245.988997,35.4166667 L240.682555,35.4166667 L240.682555,32.7926667 L249.817864,32.7926667 L249.817864,34.5393333 L244.319044,42.2113333 L250.026274,42.2113333 L250.026274,44.8 L240.471473,44.8 Z M262.80876,40.1553333 L253.563902,40.1553333 C254.055536,41.582 255.330044,42.462 257.010685,42.462 C258.327943,42.462 259.415416,41.9073333 259.925754,40.9766667 L262.236969,42.31 C261.19759,44.03 259.236398,45.0566667 256.989309,45.0566667 C253.336788,45.0566667 250.683568,42.4273333 250.683568,38.806 C250.683568,35.2433333 253.355492,32.5553333 256.906479,32.5553333 C260.307839,32.5553333 262.998467,35.3286667 262.875558,38.8486667 C262.878228,39.2851361 262.855926,39.7214016 262.80876,40.1553333 Z M253.547871,37.534 L260.024615,37.534 C259.667741,36.1142006 258.372732,35.1307347 256.906479,35.166 C255.273934,35.166 254.015457,36.0833333 253.547871,37.534 Z" transform="translate(-156 -27)"/>
</svg>
