<svg xmlns="http://www.w3.org/2000/svg" width="20" height="20" viewBox="0 0 20 20">
  <g fill="none">
    <path fill="#DA552F" d="M20,10 C20,15.523 15.523,20 10,20 C4.477,20 0,15.523 0,10 C0,4.477 4.477,0 10,0 C15.523,0 20,4.477 20,10"/>
    <path fill="#FFF" d="M11.6400672,10 L8.9199616,10 L8.9199616,7 L11.6400672,7 C12.4353413,7 13.0800384,7.67157288 13.0800384,8.5 C13.0800384,9.32842712 12.4353413,10 11.6400672,10 M11.6400672,5 L7,5 L7,15 L8.9199616,15 L8.9199616,12 L11.6400672,12 C13.4957068,12 15,10.4329966 15,8.5 C15,6.56700338 13.4957068,5 11.6400672,5"/>
  </g>
</svg>
