<svg xmlns="http://www.w3.org/2000/svg" width="272" height="288" viewBox="0 0 272 288">
  <g fill="none" fill-rule="evenodd">
    <rect width="272" height="288" fill="#FFF" rx="8"/>
    <path fill="#36AB80" d="M6.53818983,1.66666667 L13.4618102,1.66666667 C14.5762086,1.66666667 14.9803164,1.78269868 15.3877238,2.00058255 C15.7951312,2.21846641 16.1148669,2.53820213 16.3327508,2.94560954 C16.5506347,3.35301694 16.6666667,3.75712474 16.6666667,4.87152317 L16.6666667,17.5 C16.6666667,17.9602373 16.2935706,18.3333824 15.8333333,18.3333824 C15.6530248,18.3333824 15.4775801,18.2748518 15.3333333,18.1666667 L10,14.1666667 L4.66666667,18.1666667 C4.29847683,18.442809 3.77614237,18.3681898 3.5,18 C3.39181489,17.8557532 3.33333333,17.6803085 3.33333333,17.5 L3.33333333,4.87152317 C3.33333333,3.75712474 3.44936535,3.35301694 3.66724921,2.94560954 C3.88513308,2.53820213 4.2048688,2.21846641 4.6122762,2.00058255 C5.01968361,1.78269868 5.42379141,1.66666667 6.53818983,1.66666667 Z" transform="translate(228 242)"/>
    <path fill="#000" fill-rule="nonzero" d="M18.5796028,248.523734 L17.0483528,248.523734 L17.0483528,238.659476 L23.2075325,238.659476 L23.2075325,239.978812 L18.5796028,239.978812 L18.5796028,243.102835 L22.817884,243.102835 L22.817884,244.394828 L18.5796028,244.394828 L18.5796028,248.523734 Z M24.3628059,248.523734 L24.3628059,241.332328 L25.771009,241.332328 L25.771009,242.55596 L25.8051887,242.55596 C26.0444465,241.71514 26.6870247,241.216117 27.5346809,241.216117 C27.746595,241.216117 27.9311653,241.250296 28.0405403,241.270804 L28.0405403,242.644828 C27.9243294,242.596976 27.6645637,242.562796 27.3774544,242.562796 C26.427259,242.562796 25.8393684,243.198538 25.8393684,244.217093 L25.8393684,248.523734 L24.3628059,248.523734 Z M35.1225715,241.332328 L35.1225715,248.523734 L33.7075325,248.523734 L33.7075325,247.306937 L33.6733528,247.306937 C33.2768684,248.168265 32.5454231,248.653617 31.4448372,248.653617 C29.8794075,248.653617 28.9223762,247.635062 28.9223762,245.987601 L28.9223762,241.332328 L30.3989387,241.332328 L30.3989387,245.700492 C30.3989387,246.794242 30.91847,247.382132 31.9370247,247.382132 C33.0034309,247.382132 33.646009,246.643851 33.646009,245.522757 L33.646009,241.332328 L35.1225715,241.332328 Z M36.6264778,248.523734 L36.6264778,241.332328 L38.1030403,241.332328 L38.1030403,248.523734 L36.6264778,248.523734 Z M37.364759,240.170218 C36.8930794,240.170218 36.5102669,239.787406 36.5102669,239.322562 C36.5102669,238.850882 36.8930794,238.474906 37.364759,238.474906 C37.8364387,238.474906 38.2124153,238.850882 38.2124153,239.322562 C38.2124153,239.787406 37.8364387,240.170218 37.364759,240.170218 Z M40.0444465,239.630179 L41.527845,239.630179 L41.527845,241.332328 L42.8950325,241.332328 L42.8950325,242.501273 L41.527845,242.501273 L41.527845,246.466117 C41.527845,247.088187 41.8012825,247.36846 42.402845,247.36846 C42.5532356,247.36846 42.7924934,247.354788 42.8881965,247.334281 L42.8881965,248.503226 C42.724134,248.544242 42.396009,248.571585 42.067884,248.571585 C40.6118294,248.571585 40.0444465,248.017874 40.0444465,246.630179 L40.0444465,242.501273 L38.9985481,242.501273 L38.9985481,241.332328 L40.0444465,241.332328 L40.0444465,239.630179 Z M43.9751106,243.369437 C43.9751106,242.084281 45.0962044,241.202445 46.7505012,241.202445 C48.4253059,241.202445 49.51222,242.132132 49.5600715,243.458304 L48.1723762,243.458304 C48.090345,242.761038 47.5776497,242.323538 46.7505012,242.323538 C45.9506965,242.323538 45.4174934,242.713187 45.4174934,243.287406 C45.4174934,243.738578 45.7456184,244.046195 46.5249153,244.223929 L47.6938606,244.490531 C49.1635872,244.832328 49.724134,245.406546 49.724134,246.445609 C49.724134,247.758109 48.5005012,248.660453 46.8051887,248.660453 C45.0073372,248.660453 43.927259,247.778617 43.7905403,246.411429 L45.2534309,246.411429 C45.3901497,247.163382 45.902845,247.532523 46.8051887,247.532523 C47.6938606,247.532523 48.2407356,247.163382 48.2407356,246.575492 C48.2407356,246.110648 47.974134,245.83721 47.1880012,245.659476 L46.0190559,245.386038 C44.6518684,245.071585 43.9751106,244.415335 43.9751106,243.369437 Z M53.7505012,248.523734 L53.7505012,241.332328 L55.2270637,241.332328 L55.2270637,248.523734 L53.7505012,248.523734 Z M54.4887825,240.170218 C54.0171028,240.170218 53.6342903,239.787406 53.6342903,239.322562 C53.6342903,238.850882 54.0171028,238.474906 54.4887825,238.474906 C54.9604622,238.474906 55.3364387,238.850882 55.3364387,239.322562 C55.3364387,239.787406 54.9604622,240.170218 54.4887825,240.170218 Z M56.6079231,243.369437 C56.6079231,242.084281 57.7290169,241.202445 59.3833137,241.202445 C61.0581184,241.202445 62.1450325,242.132132 62.192884,243.458304 L60.8051887,243.458304 C60.7231575,242.761038 60.2104622,242.323538 59.3833137,242.323538 C58.583509,242.323538 58.0503059,242.713187 58.0503059,243.287406 C58.0503059,243.738578 58.3784309,244.046195 59.1577278,244.223929 L60.3266731,244.490531 C61.7963997,244.832328 62.3569465,245.406546 62.3569465,246.445609 C62.3569465,247.758109 61.1333137,248.660453 59.4380012,248.660453 C57.6401497,248.660453 56.5600715,247.778617 56.4233528,246.411429 L57.8862434,246.411429 C58.0229622,247.163382 58.5356575,247.532523 59.4380012,247.532523 C60.3266731,247.532523 60.8735481,247.163382 60.8735481,246.575492 C60.8735481,246.110648 60.6069465,245.83721 59.8208137,245.659476 L58.6518684,245.386038 C57.2846809,245.071585 56.6079231,244.415335 56.6079231,243.369437 Z M72.6381965,247.197562 L72.6381965,248.523734 L66.5131965,248.523734 L66.5131965,238.659476 L68.0444465,238.659476 L68.0444465,247.197562 L72.6381965,247.197562 Z M73.8208137,248.523734 L73.8208137,241.332328 L75.2973762,241.332328 L75.2973762,248.523734 L73.8208137,248.523734 Z M74.559095,240.170218 C74.0874153,240.170218 73.7046028,239.787406 73.7046028,239.322562 C73.7046028,238.850882 74.0874153,238.474906 74.559095,238.474906 C75.0307747,238.474906 75.4067512,238.850882 75.4067512,239.322562 C75.4067512,239.787406 75.0307747,240.170218 74.559095,240.170218 Z M77.2387825,248.523734 L77.2387825,242.501273 L76.2475715,242.501273 L76.2475715,241.345999 L77.2387825,241.345999 L77.2387825,240.641898 C77.2387825,239.247367 77.8950325,238.591117 79.3579231,238.591117 C79.6587044,238.591117 79.9936653,238.625296 80.1850715,238.659476 L80.1850715,239.753226 C80.0415169,239.725882 79.8432747,239.71221 79.6450325,239.71221 C79.0024544,239.71221 78.7016731,240.033499 78.7016731,240.669242 L78.7016731,241.345999 L80.1577278,241.345999 L80.1577278,242.501273 L78.7221809,242.501273 L78.7221809,248.523734 L77.2387825,248.523734 Z M84.3276497,242.391898 C83.2954231,242.391898 82.5708137,243.178031 82.4956184,244.264945 L86.0913215,244.264945 C86.0571419,243.164359 85.3598762,242.391898 84.3276497,242.391898 Z M86.0844856,246.411429 L87.4858528,246.411429 C87.2807747,247.723929 86.036634,248.660453 84.3891731,248.660453 C82.2768684,248.660453 80.9985481,247.231742 80.9985481,244.96221 C80.9985481,242.706351 82.2973762,241.202445 84.3276497,241.202445 C86.3237434,241.202445 87.567884,242.610648 87.567884,244.791312 L87.567884,245.297171 L82.4887825,245.297171 L82.4887825,245.386038 C82.4887825,246.637015 83.2407356,247.464163 84.4233528,247.464163 C85.2641731,247.464163 85.8862434,247.040335 86.0844856,246.411429 Z"/>
    <path fill="#A7AAB0" fill-rule="nonzero" d="M22.1977669,267.786529 L22.1977669,268.735748 L16.9594856,268.735748 L16.9594856,260.28067 L22.1977669,260.28067 L22.1977669,261.229889 L18.0141731,261.229889 L18.0141731,263.942779 L21.98097,263.942779 L21.98097,264.880279 L18.0141731,264.880279 L18.0141731,267.786529 L22.1977669,267.786529 Z M25.4380012,267.974029 C26.3989387,267.974029 27.13722,267.300201 27.13722,266.421295 L27.13722,265.923248 L25.5083137,266.022857 C24.6880012,266.075592 24.2192512,266.438873 24.2192512,267.013092 C24.2192512,267.59317 24.7055794,267.974029 25.4380012,267.974029 Z M25.2094856,268.841217 C23.996595,268.841217 23.1821419,268.108795 23.1821419,267.013092 C23.1821419,265.970123 23.9848762,265.313873 25.3911262,265.231842 L27.13722,265.132232 L27.13722,264.622467 C27.13722,263.878326 26.6450325,263.433014 25.8012825,263.433014 C25.0161262,263.433014 24.5239387,263.802154 24.3950325,264.39981 L23.4106575,264.39981 C23.48097,263.345123 24.3833137,262.536529 25.82472,262.536529 C27.2544075,262.536529 28.1567512,263.309967 28.1567512,264.522857 L28.1567512,268.735748 L27.1899544,268.735748 L27.1899544,267.68692 L27.1665169,267.68692 C26.8032356,268.384185 26.0297981,268.841217 25.2094856,268.841217 Z M29.7797981,261.171295 L30.7993294,261.171295 L30.7993294,262.641998 L31.9829231,262.641998 L31.9829231,263.479889 L30.7993294,263.479889 L30.7993294,267.100982 C30.7993294,267.657623 31.0337044,267.909576 31.5551887,267.909576 C31.6723762,267.909576 31.9067512,267.891998 31.9770637,267.880279 L31.9770637,268.735748 C31.8540169,268.765045 31.5727669,268.782623 31.3325325,268.782623 C30.2133919,268.782623 29.7797981,268.325592 29.7797981,267.153717 L29.7797981,263.479889 L28.871595,263.479889 L28.871595,262.641998 L29.7797981,262.641998 L29.7797981,261.171295 Z M35.85597,268.735748 L35.85597,263.479889 L35.0063606,263.479889 L35.0063606,262.641998 L35.85597,262.641998 L35.85597,261.96231 C35.85597,260.790435 36.4008919,260.233795 37.5258919,260.233795 C37.7544075,260.233795 38.0005012,260.257232 38.1469856,260.28067 L38.1469856,261.106842 C38.0239387,261.089264 37.8540169,261.071685 37.684095,261.071685 C37.1333137,261.071685 36.8696419,261.364654 36.8696419,261.96817 L36.8696419,262.641998 L38.1176887,262.641998 L38.1176887,263.479889 L36.8755012,263.479889 L36.8755012,268.735748 L35.85597,268.735748 Z M39.1723762,268.735748 L39.1723762,262.641998 L40.1333137,262.641998 L40.1333137,263.638092 L40.1567512,263.638092 C40.35597,262.964264 40.91847,262.536529 41.6333137,262.536529 C41.809095,262.536529 41.9614387,262.565826 42.04347,262.577545 L42.04347,263.567779 C41.9614387,263.538482 41.7446419,263.509185 41.4985481,263.509185 C40.7075325,263.509185 40.1919075,264.077545 40.1919075,264.938873 L40.1919075,268.735748 L39.1723762,268.735748 Z M47.8735481,262.641998 L47.8735481,268.735748 L46.9067512,268.735748 L46.9067512,267.745514 L46.8833137,267.745514 C46.5200325,268.448639 45.88722,268.841217 44.94972,268.841217 C43.6196419,268.841217 42.840345,267.979889 42.840345,266.597076 L42.840345,262.641998 L43.8598762,262.641998 L43.8598762,266.415435 C43.8598762,267.40567 44.3227669,267.938873 45.2661262,267.938873 C46.2563606,267.938873 46.8540169,267.259185 46.8540169,266.222076 L46.8540169,262.641998 L47.8735481,262.641998 Z M49.2446419,268.735748 L49.2446419,262.641998 L50.2641731,262.641998 L50.2641731,268.735748 L49.2446419,268.735748 Z M49.7544075,261.558014 C49.402845,261.558014 49.1157356,261.270904 49.1157356,260.919342 C49.1157356,260.56192 49.402845,260.28067 49.7544075,260.28067 C50.1118294,260.28067 50.3930794,260.56192 50.3930794,260.919342 C50.3930794,261.270904 50.1118294,261.558014 49.7544075,261.558014 Z M51.9692512,261.171295 L52.9887825,261.171295 L52.9887825,262.641998 L54.1723762,262.641998 L54.1723762,263.479889 L52.9887825,263.479889 L52.9887825,267.100982 C52.9887825,267.657623 53.2231575,267.909576 53.7446419,267.909576 C53.8618294,267.909576 54.0962044,267.891998 54.1665169,267.880279 L54.1665169,268.735748 C54.04347,268.765045 53.76222,268.782623 53.5219856,268.782623 C52.402845,268.782623 51.9692512,268.325592 51.9692512,267.153717 L51.9692512,263.479889 L51.0610481,263.479889 L51.0610481,262.641998 L51.9692512,262.641998 L51.9692512,261.171295 Z M55.1508919,264.323639 C55.1508919,263.28067 56.0708137,262.536529 57.3891731,262.536529 C58.7251106,262.536529 59.6157356,263.321685 59.6567512,264.39981 L58.684095,264.39981 C58.6079231,263.761139 58.1391731,263.36856 57.3891731,263.36856 C56.6450325,263.36856 56.152845,263.737701 56.152845,264.270904 C56.152845,264.692779 56.4633919,264.979889 57.1430794,265.143951 L58.1098762,265.378326 C59.340345,265.677154 59.7856575,266.157623 59.7856575,267.03067 C59.7856575,268.091217 58.7837044,268.841217 57.4243294,268.841217 C55.9946419,268.841217 55.1040169,268.120514 54.9868294,266.977935 L56.0063606,266.977935 C56.1294075,267.675201 56.5981575,268.009185 57.4243294,268.009185 C58.2505012,268.009185 58.7602669,267.657623 58.7602669,267.106842 C58.7602669,266.667389 58.5200325,266.415435 57.8227669,266.245514 L56.85597,266.011139 C55.7075325,265.735748 55.1508919,265.202545 55.1508919,264.323639 Z M65.7446419,263.421295 C64.7895637,263.421295 64.121595,264.153717 64.0571419,265.167389 L67.3676887,265.167389 C67.3442512,264.147857 66.7055794,263.421295 65.7446419,263.421295 Z M67.3442512,266.989654 L68.3462044,266.989654 C68.1704231,268.05606 67.1391731,268.841217 65.809095,268.841217 C64.0630012,268.841217 63.0024544,267.628326 63.0024544,265.71231 C63.0024544,263.819732 64.0805794,262.536529 65.76222,262.536529 C67.4087044,262.536529 68.4223762,263.731842 68.4223762,265.577545 L68.4223762,265.964264 L64.0512825,265.964264 L64.0512825,266.022857 C64.0512825,267.188873 64.7368294,267.956451 65.8325325,267.956451 C66.60597,267.956451 67.1743294,267.563873 67.3442512,266.989654 Z M74.4458137,262.641998 L72.2075325,268.735748 L71.1645637,268.735748 L68.9204231,262.641998 L69.9926887,262.641998 L71.6743294,267.651764 L71.6977669,267.651764 L73.3852669,262.641998 L74.4458137,262.641998 Z M77.6860481,263.421295 C76.73097,263.421295 76.0630012,264.153717 75.9985481,265.167389 L79.309095,265.167389 C79.2856575,264.147857 78.6469856,263.421295 77.6860481,263.421295 Z M79.2856575,266.989654 L80.2876106,266.989654 C80.1118294,268.05606 79.0805794,268.841217 77.7505012,268.841217 C76.0044075,268.841217 74.9438606,267.628326 74.9438606,265.71231 C74.9438606,263.819732 76.0219856,262.536529 77.7036262,262.536529 C79.3501106,262.536529 80.3637825,263.731842 80.3637825,265.577545 L80.3637825,265.964264 L75.9926887,265.964264 L75.9926887,266.022857 C75.9926887,267.188873 76.6782356,267.956451 77.7739387,267.956451 C78.5473762,267.956451 79.1157356,267.563873 79.2856575,266.989654 Z M81.3891731,268.735748 L81.3891731,262.641998 L82.3501106,262.641998 L82.3501106,263.638092 L82.3735481,263.638092 C82.5727669,262.964264 83.1352669,262.536529 83.8501106,262.536529 C84.0258919,262.536529 84.1782356,262.565826 84.2602669,262.577545 L84.2602669,263.567779 C84.1782356,263.538482 83.9614387,263.509185 83.715345,263.509185 C82.9243294,263.509185 82.4087044,264.077545 82.4087044,264.938873 L82.4087044,268.735748 L81.3891731,268.735748 Z M85.5962044,271.015045 C85.4731575,271.015045 85.2680794,271.003326 85.1567512,270.979889 L85.1567512,270.12442 C85.2680794,270.147857 85.4262825,270.153717 85.5551887,270.153717 C86.1235481,270.153717 86.4399544,269.878326 86.6743294,269.169342 L86.8149544,268.741607 L84.5649544,262.641998 L85.6547981,262.641998 L87.3422981,267.716217 L87.3598762,267.716217 L89.0473762,262.641998 L90.1196419,262.641998 L87.7231575,269.163482 C87.2016731,270.58731 86.6977669,271.015045 85.5962044,271.015045 Z M93.23097,268.841217 C91.6782356,268.841217 90.6235481,267.599029 90.6235481,265.688873 C90.6235481,263.778717 91.6723762,262.536529 93.2075325,262.536529 C94.0805794,262.536529 94.7837044,262.964264 95.1469856,263.632232 L95.1704231,263.632232 L95.1704231,260.28067 L96.1899544,260.28067 L96.1899544,268.735748 L95.2172981,268.735748 L95.2172981,267.704498 L95.19972,267.704498 C94.8071419,268.407623 94.1098762,268.841217 93.23097,268.841217 Z M93.4243294,263.433014 C92.3462044,263.433014 91.6665169,264.31192 91.6665169,265.688873 C91.6665169,267.071685 92.3462044,267.944732 93.4243294,267.944732 C94.4731575,267.944732 95.1762825,267.054107 95.1762825,265.688873 C95.1762825,264.329498 94.4731575,263.433014 93.4243294,263.433014 Z M99.5766731,267.974029 C100.537611,267.974029 101.275892,267.300201 101.275892,266.421295 L101.275892,265.923248 L99.6469856,266.022857 C98.8266731,266.075592 98.3579231,266.438873 98.3579231,267.013092 C98.3579231,267.59317 98.8442512,267.974029 99.5766731,267.974029 Z M99.3481575,268.841217 C98.1352669,268.841217 97.3208137,268.108795 97.3208137,267.013092 C97.3208137,265.970123 98.1235481,265.313873 99.5297981,265.231842 L101.275892,265.132232 L101.275892,264.622467 C101.275892,263.878326 100.783704,263.433014 99.9399544,263.433014 C99.1547981,263.433014 98.6626106,263.802154 98.5337044,264.39981 L97.5493294,264.39981 C97.6196419,263.345123 98.5219856,262.536529 99.9633919,262.536529 C101.393079,262.536529 102.295423,263.309967 102.295423,264.522857 L102.295423,268.735748 L101.328626,268.735748 L101.328626,267.68692 L101.305189,267.68692 C100.941907,268.384185 100.16847,268.841217 99.3481575,268.841217 Z M104.100111,271.015045 C103.977064,271.015045 103.771986,271.003326 103.660657,270.979889 L103.660657,270.12442 C103.771986,270.147857 103.930189,270.153717 104.059095,270.153717 C104.627454,270.153717 104.943861,269.878326 105.178236,269.169342 L105.318861,268.741607 L103.068861,262.641998 L104.158704,262.641998 L105.846204,267.716217 L105.863782,267.716217 L107.551282,262.641998 L108.623548,262.641998 L106.227064,269.163482 C105.705579,270.58731 105.201673,271.015045 104.100111,271.015045 Z"/>
  </g>
</svg>
