<svg xmlns="http://www.w3.org/2000/svg" xmlns:xlink="http://www.w3.org/1999/xlink" width="296" height="296" viewBox="0 0 296 296">
  <defs>
    <path id="form-a" d="M10.2555408,-4.14336123e-16 L285.744459,4.14336123e-16 C289.310534,-2.4074122e-16 290.603679,0.371302445 291.907383,1.06853082 C293.211087,1.76575919 294.234241,2.78891348 294.931469,4.09261719 C295.628698,5.39632089 296,6.68946584 296,10.2555408 L296,285.744459 C296,289.310534 295.628698,290.603679 294.931469,291.907383 C294.234241,293.211087 293.211087,294.234241 291.907383,294.931469 C290.603679,295.628698 289.310534,296 285.744459,296 L10.2555408,296 C6.68946584,296 5.39632089,295.628698 4.09261719,294.931469 C2.78891348,294.234241 1.76575919,293.211087 1.06853082,291.907383 C0.371302445,290.603679 1.60494146e-16,289.310534 -2.76224082e-16,285.744459 L2.76224082e-16,10.2555408 C-1.60494146e-16,6.68946584 0.371302445,5.39632089 1.06853082,4.09261719 C1.76575919,2.78891348 2.78891348,1.76575919 4.09261719,1.06853082 C5.39632089,0.371302445 6.68946584,2.4074122e-16 10.2555408,-4.14336123e-16 Z"/>
    <path id="form-c" d="M10.2555408,-4.14336123e-16 L237.744459,4.14336123e-16 C241.310534,-2.4074122e-16 242.603679,0.371302445 243.907383,1.06853082 C245.211087,1.76575919 246.234241,2.78891348 246.931469,4.09261719 C247.628698,5.39632089 248,6.68946584 248,10.2555408 L248,29.7444592 C248,33.3105342 247.628698,34.6036791 246.931469,35.9073828 C246.234241,37.2110865 245.211087,38.2342408 243.907383,38.9314692 C242.603679,39.6286976 241.310534,40 237.744459,40 L10.2555408,40 C6.68946584,40 5.39632089,39.6286976 4.09261719,38.9314692 C2.78891348,38.2342408 1.76575919,37.2110865 1.06853082,35.9073828 C0.371302445,34.6036791 1.60494146e-16,33.3105342 -2.76224082e-16,29.7444592 L2.76224082e-16,10.2555408 C-1.60494146e-16,6.68946584 0.371302445,5.39632089 1.06853082,4.09261719 C1.76575919,2.78891348 2.78891348,1.76575919 4.09261719,1.06853082 C5.39632089,0.371302445 6.68946584,2.4074122e-16 10.2555408,-4.14336123e-16 Z"/>
    <path id="form-e" d="M5.1277704,-2.07168062e-16 L242.87223,2.07168062e-16 C244.655267,-1.2037061e-16 245.30184,0.185651222 245.953691,0.534265408 C246.605543,0.882879593 247.11712,1.39445674 247.465735,2.04630859 C247.814349,2.69816044 248,3.34473292 248,5.1277704 L248,26.8722296 C248,28.6552671 247.814349,29.3018396 247.465735,29.9536914 C247.11712,30.6055433 246.605543,31.1171204 245.953691,31.4657346 C245.30184,31.8143488 244.655267,32 242.87223,32 L5.1277704,32 C3.34473292,32 2.69816044,31.8143488 2.04630859,31.4657346 C1.39445674,31.1171204 0.882879593,30.6055433 0.534265408,29.9536914 C0.185651222,29.3018396 8.02470732e-17,28.6552671 -1.38112041e-16,26.8722296 L1.38112041e-16,5.1277704 C-8.02470732e-17,3.34473292 0.185651222,2.69816044 0.534265408,2.04630859 C0.882879593,1.39445674 1.39445674,0.882879593 2.04630859,0.534265408 C2.69816044,0.185651222 3.34473292,1.2037061e-16 5.1277704,-2.07168062e-16 Z"/>
    <path id="form-g" d="M5.1277704,-2.07168062e-16 L242.87223,2.07168062e-16 C244.655267,-1.2037061e-16 245.30184,0.185651222 245.953691,0.534265408 C246.605543,0.882879593 247.11712,1.39445674 247.465735,2.04630859 C247.814349,2.69816044 248,3.34473292 248,5.1277704 L248,26.8722296 C248,28.6552671 247.814349,29.3018396 247.465735,29.9536914 C247.11712,30.6055433 246.605543,31.1171204 245.953691,31.4657346 C245.30184,31.8143488 244.655267,32 242.87223,32 L5.1277704,32 C3.34473292,32 2.69816044,31.8143488 2.04630859,31.4657346 C1.39445674,31.1171204 0.882879593,30.6055433 0.534265408,29.9536914 C0.185651222,29.3018396 8.02470732e-17,28.6552671 -1.38112041e-16,26.8722296 L1.38112041e-16,5.1277704 C-8.02470732e-17,3.34473292 0.185651222,2.69816044 0.534265408,2.04630859 C0.882879593,1.39445674 1.39445674,0.882879593 2.04630859,0.534265408 C2.69816044,0.185651222 3.34473292,1.2037061e-16 5.1277704,-2.07168062e-16 Z"/>
  </defs>
  <g fill="none" fill-rule="evenodd">
    <mask id="form-b" fill="#fff">
      <use xlink:href="#form-a"/>
    </mask>
    <use fill="#FFF" xlink:href="#form-a"/>
    <path d="M10.2555408,-4.14336123e-16 L285.744459,4.14336123e-16 C289.310534,-2.4074122e-16 290.603679,0.371302445 291.907383,1.06853082 C293.211087,1.76575919 294.234241,2.78891348 294.931469,4.09261719 C295.628698,5.39632089 296,6.68946584 296,10.2555408 L296,285.744459 C296,289.310534 295.628698,290.603679 294.931469,291.907383 C294.234241,293.211087 293.211087,294.234241 291.907383,294.931469 C290.603679,295.628698 289.310534,296 285.744459,296 L10.2555408,296 C6.68946584,296 5.39632089,295.628698 4.09261719,294.931469 C2.78891348,294.234241 1.76575919,293.211087 1.06853082,291.907383 C0.371302445,290.603679 1.60494146e-16,289.310534 -2.76224082e-16,285.744459 L2.76224082e-16,10.2555408 C-1.60494146e-16,6.68946584 0.371302445,5.39632089 1.06853082,4.09261719 C1.76575919,2.78891348 2.78891348,1.76575919 4.09261719,1.06853082 C5.39632089,0.371302445 6.68946584,2.4074122e-16 10.2555408,-4.14336123e-16 Z" mask="url(#form-b)"/>
    <path d="M10.2555408,-4.14336123e-16 L285.744459,4.14336123e-16 C289.310534,-2.4074122e-16 290.603679,0.371302445 291.907383,1.06853082 C293.211087,1.76575919 294.234241,2.78891348 294.931469,4.09261719 C295.628698,5.39632089 296,6.68946584 296,10.2555408 L296,285.744459 C296,289.310534 295.628698,290.603679 294.931469,291.907383 C294.234241,293.211087 293.211087,294.234241 291.907383,294.931469 C290.603679,295.628698 289.310534,296 285.744459,296 L10.2555408,296 C6.68946584,296 5.39632089,295.628698 4.09261719,294.931469 C2.78891348,294.234241 1.76575919,293.211087 1.06853082,291.907383 C0.371302445,290.603679 1.60494146e-16,289.310534 -2.76224082e-16,285.744459 L2.76224082e-16,10.2555408 C-1.60494146e-16,6.68946584 0.371302445,5.39632089 1.06853082,4.09261719 C1.76575919,2.78891348 2.78891348,1.76575919 4.09261719,1.06853082 C5.39632089,0.371302445 6.68946584,2.4074122e-16 10.2555408,-4.14336123e-16 Z" mask="url(#form-b)"/>
    <g transform="translate(24 232)">
      <mask id="form-d" fill="#fff">
        <use xlink:href="#form-c"/>
      </mask>
      <use fill="#EEF7FF" xlink:href="#form-c"/>
      <path d="M10.2555408,-4.14336123e-16 L237.744459,4.14336123e-16 C241.310534,-2.4074122e-16 242.603679,0.371302445 243.907383,1.06853082 C245.211087,1.76575919 246.234241,2.78891348 246.931469,4.09261719 C247.628698,5.39632089 248,6.68946584 248,10.2555408 L248,29.7444592 C248,33.3105342 247.628698,34.6036791 246.931469,35.9073828 C246.234241,37.2110865 245.211087,38.2342408 243.907383,38.9314692 C242.603679,39.6286976 241.310534,40 237.744459,40 L10.2555408,40 C6.68946584,40 5.39632089,39.6286976 4.09261719,38.9314692 C2.78891348,38.2342408 1.76575919,37.2110865 1.06853082,35.9073828 C0.371302445,34.6036791 1.60494146e-16,33.3105342 -2.76224082e-16,29.7444592 L2.76224082e-16,10.2555408 C-1.60494146e-16,6.68946584 0.371302445,5.39632089 1.06853082,4.09261719 C1.76575919,2.78891348 2.78891348,1.76575919 4.09261719,1.06853082 C5.39632089,0.371302445 6.68946584,2.4074122e-16 10.2555408,-4.14336123e-16 Z" mask="url(#form-d)"/>
      <path d="M10.2555408,-4.14336123e-16 L237.744459,4.14336123e-16 C241.310534,-2.4074122e-16 242.603679,0.371302445 243.907383,1.06853082 C245.211087,1.76575919 246.234241,2.78891348 246.931469,4.09261719 C247.628698,5.39632089 248,6.68946584 248,10.2555408 L248,29.7444592 C248,33.3105342 247.628698,34.6036791 246.931469,35.9073828 C246.234241,37.2110865 245.211087,38.2342408 243.907383,38.9314692 C242.603679,39.6286976 241.310534,40 237.744459,40 L10.2555408,40 C6.68946584,40 5.39632089,39.6286976 4.09261719,38.9314692 C2.78891348,38.2342408 1.76575919,37.2110865 1.06853082,35.9073828 C0.371302445,34.6036791 1.60494146e-16,33.3105342 -2.76224082e-16,29.7444592 L2.76224082e-16,10.2555408 C-1.60494146e-16,6.68946584 0.371302445,5.39632089 1.06853082,4.09261719 C1.76575919,2.78891348 2.78891348,1.76575919 4.09261719,1.06853082 C5.39632089,0.371302445 6.68946584,2.4074122e-16 10.2555408,-4.14336123e-16 Z" mask="url(#form-d)"/>
      <path fill="#006CE6" fill-rule="nonzero" d="M6.2109375,9.67382812 L6.2109375,11 L0.0859375,11 L0.0859375,1.13574219 L1.6171875,1.13574219 L1.6171875,9.67382812 L6.2109375,9.67382812 Z M10.4355469,11.1367188 C8.37792969,11.1367188 7.02441406,9.72167969 7.02441406,7.40429688 C7.02441406,5.09375 8.38476562,3.67871094 10.4355469,3.67871094 C12.4863281,3.67871094 13.8466797,5.09375 13.8466797,7.40429688 C13.8466797,9.72167969 12.4931641,11.1367188 10.4355469,11.1367188 Z M10.4355469,9.91992188 C11.5976562,9.91992188 12.3427734,9.00390625 12.3427734,7.40429688 C12.3427734,5.81152344 11.5908203,4.89550781 10.4355469,4.89550781 C9.28027344,4.89550781 8.52832031,5.81152344 8.52832031,7.40429688 C8.52832031,9.00390625 9.28027344,9.91992188 10.4355469,9.91992188 Z M18.0507812,9.80371094 C19.2060547,9.80371094 19.9648438,8.8671875 19.9648438,7.38378906 C19.9648438,5.90722656 19.2060547,4.93652344 18.0507812,4.93652344 C16.9160156,4.93652344 16.1777344,5.88671875 16.1777344,7.38378906 C16.1777344,8.88769531 16.9160156,9.80371094 18.0507812,9.80371094 Z M18.0644531,13.7070312 C16.3691406,13.7070312 15.1113281,12.8046875 14.9267578,11.5605469 L16.4101562,11.5605469 C16.6220703,12.1621094 17.2783203,12.5585938 18.1191406,12.5585938 C19.2744141,12.5585938 19.9580078,11.9023438 19.9580078,10.9179688 L19.9580078,9.73535156 L19.9306641,9.73535156 C19.5273438,10.5146484 18.6796875,11.0273438 17.6542969,11.0273438 C15.8496094,11.0273438 14.6669922,9.61914062 14.6669922,7.37695312 C14.6669922,5.11425781 15.8427734,3.69238281 17.6884766,3.69238281 C18.7070312,3.69238281 19.5410156,4.20507812 19.9785156,5.0390625 L20.0058594,5.0390625 L20.0058594,3.80859375 L21.4414062,3.80859375 L21.4414062,10.8701172 C21.4414062,12.5859375 20.1152344,13.7070312 18.0644531,13.7070312 Z M22.9453125,11 L22.9453125,3.80859375 L24.421875,3.80859375 L24.421875,11 L22.9453125,11 Z M23.6835938,2.64648438 C23.2119141,2.64648438 22.8291016,2.26367188 22.8291016,1.79882812 C22.8291016,1.32714844 23.2119141,0.951171875 23.6835938,0.951171875 C24.1552734,0.951171875 24.53125,1.32714844 24.53125,1.79882812 C24.53125,2.26367188 24.1552734,2.64648438 23.6835938,2.64648438 Z M25.9326172,11 L25.9326172,3.80859375 L27.3408203,3.80859375 L27.3408203,5.01171875 L27.375,5.01171875 C27.7646484,4.19140625 28.5302734,3.68554688 29.6376953,3.68554688 C31.2236328,3.68554688 32.1328125,4.69726562 32.1328125,6.34472656 L32.1328125,11 L30.6494141,11 L30.6494141,6.63183594 C30.6494141,5.55175781 30.1435547,4.95703125 29.1181641,4.95703125 C28.0791016,4.95703125 27.4091797,5.6953125 27.4091797,6.80957031 L27.4091797,11 L25.9326172,11 Z" transform="translate(108 14)"/>
    </g>
    <g transform="translate(24 96)">
      <mask id="form-f" fill="#fff">
        <use xlink:href="#form-e"/>
      </mask>
      <use fill="#FFF" xlink:href="#form-e"/>
      <path stroke="#E1E4E8" d="M5.1277704,0.5 C3.5776195,0.5 2.94057806,0.623018378 2.28210802,0.975172007 C1.71739041,1.27718629 1.27718629,1.71739041 0.975172007,2.28210802 C0.623018378,2.94057806 0.5,3.5776195 0.5,5.1277704 L0.5,26.8722296 C0.5,28.4223805 0.623018378,29.0594219 0.975172007,29.717892 C1.27718629,30.2826096 1.71739041,30.7228137 2.28210802,31.024828 C2.94057806,31.3769816 3.5776195,31.5 5.1277704,31.5 L242.87223,31.5 C244.42238,31.5 245.059422,31.3769816 245.717892,31.024828 C246.28261,30.7228137 246.722814,30.2826096 247.024828,29.717892 C247.376982,29.0594219 247.5,28.4223805 247.5,26.8722296 L247.5,5.1277704 C247.5,3.5776195 247.376982,2.94057806 247.024828,2.28210802 C246.722814,1.71739041 246.28261,1.27718629 245.717892,0.975172007 C245.059422,0.623018378 244.42238,0.5 242.87223,0.5 L5.1277704,0.5 Z" mask="url(#form-f)"/>
      <path d="M5.1277704,-2.07168062e-16 L242.87223,2.07168062e-16 C244.655267,-1.2037061e-16 245.30184,0.185651222 245.953691,0.534265408 C246.605543,0.882879593 247.11712,1.39445674 247.465735,2.04630859 C247.814349,2.69816044 248,3.34473292 248,5.1277704 L248,26.8722296 C248,28.6552671 247.814349,29.3018396 247.465735,29.9536914 C247.11712,30.6055433 246.605543,31.1171204 245.953691,31.4657346 C245.30184,31.8143488 244.655267,32 242.87223,32 L5.1277704,32 C3.34473292,32 2.69816044,31.8143488 2.04630859,31.4657346 C1.39445674,31.1171204 0.882879593,30.6055433 0.534265408,29.9536914 C0.185651222,29.3018396 8.02470732e-17,28.6552671 -1.38112041e-16,26.8722296 L1.38112041e-16,5.1277704 C-8.02470732e-17,3.34473292 0.185651222,2.69816044 0.534265408,2.04630859 C0.882879593,1.39445674 1.39445674,0.882879593 2.04630859,0.534265408 C2.69816044,0.185651222 3.34473292,1.2037061e-16 5.1277704,-2.07168062e-16 Z" mask="url(#form-f)"/>
      <path fill="#000" fill-rule="nonzero" d="M3.25585938,7.80859375 L3.25585938,15.3417969 C3.25585938,16.8046875 2.49707031,17.5019531 0.904296875,17.5019531 C0.8359375,17.5019531 0.603515625,17.5019531 0.5625,17.4882812 L0.5625,16.3261719 C0.58984375,16.3261719 0.747070312,16.3330078 0.774414062,16.3330078 C1.50585938,16.3330078 1.77929688,16.0595703 1.77929688,15.3349609 L1.77929688,7.80859375 L3.25585938,7.80859375 Z M2.51074219,6.64648438 C2.0390625,6.64648438 1.65625,6.26367188 1.65625,5.79882812 C1.65625,5.32714844 2.0390625,4.95117188 2.51074219,4.95117188 C2.98242188,4.95117188 3.35839844,5.32714844 3.35839844,5.79882812 C3.35839844,6.26367188 2.98242188,6.64648438 2.51074219,6.64648438 Z M7.85644531,15.1367188 C5.79882812,15.1367188 4.4453125,13.7216797 4.4453125,11.4042969 C4.4453125,9.09375 5.80566406,7.67871094 7.85644531,7.67871094 C9.90722656,7.67871094 11.2675781,9.09375 11.2675781,11.4042969 C11.2675781,13.7216797 9.9140625,15.1367188 7.85644531,15.1367188 Z M7.85644531,13.9199219 C9.01855469,13.9199219 9.76367188,13.0039062 9.76367188,11.4042969 C9.76367188,9.81152344 9.01171875,8.89550781 7.85644531,8.89550781 C6.70117188,8.89550781 5.94921875,9.81152344 5.94921875,11.4042969 C5.94921875,13.0039062 6.70117188,13.9199219 7.85644531,13.9199219 Z M12.4638672,15 L12.4638672,5.13574219 L13.9267578,5.13574219 L13.9267578,9.01171875 L13.9609375,9.01171875 C14.3574219,8.17089844 15.1435547,7.68554688 16.2373047,7.68554688 C17.8164062,7.68554688 18.7597656,8.73828125 18.7597656,10.3652344 L18.7597656,15 L17.2763672,15 L17.2763672,10.6523438 C17.2763672,9.59277344 16.7431641,8.95703125 15.7041016,8.95703125 C14.6103516,8.95703125 13.9404297,9.70898438 13.9404297,10.84375 L13.9404297,15 L12.4638672,15 Z M20.1816406,15 L20.1816406,7.80859375 L21.5898438,7.80859375 L21.5898438,9.01171875 L21.6240234,9.01171875 C22.0136719,8.19140625 22.7792969,7.68554688 23.8867188,7.68554688 C25.4726562,7.68554688 26.3818359,8.69726562 26.3818359,10.3447266 L26.3818359,15 L24.8984375,15 L24.8984375,10.6318359 C24.8984375,9.55175781 24.3925781,8.95703125 23.3671875,8.95703125 C22.328125,8.95703125 21.6582031,9.6953125 21.6582031,10.8095703 L21.6582031,15 L20.1816406,15 Z M30.5039062,15.1230469 C28.6855469,15.1230469 27.4824219,13.6738281 27.4824219,11.4042969 C27.4824219,9.13476562 28.6855469,7.69238281 30.4902344,7.69238281 C31.5224609,7.69238281 32.3427734,8.21191406 32.7460938,9.00488281 L32.7734375,9.00488281 L32.7734375,5.13574219 L34.2568359,5.13574219 L34.2568359,15 L32.8212891,15 L32.8212891,13.7763672 L32.7939453,13.7763672 C32.3701172,14.5966797 31.5498047,15.1230469 30.5039062,15.1230469 Z M30.8935547,8.93652344 C29.7246094,8.93652344 28.9931641,9.89355469 28.9931641,11.4042969 C28.9931641,12.921875 29.7246094,13.8720703 30.8935547,13.8720703 C32.0283203,13.8720703 32.7871094,12.9082031 32.7871094,11.4042969 C32.7871094,9.9140625 32.0283203,8.93652344 30.8935547,8.93652344 Z M38.8574219,15.1367188 C36.7998047,15.1367188 35.4462891,13.7216797 35.4462891,11.4042969 C35.4462891,9.09375 36.8066406,7.67871094 38.8574219,7.67871094 C40.9082031,7.67871094 42.2685547,9.09375 42.2685547,11.4042969 C42.2685547,13.7216797 40.9150391,15.1367188 38.8574219,15.1367188 Z M38.8574219,13.9199219 C40.0195312,13.9199219 40.7646484,13.0039062 40.7646484,11.4042969 C40.7646484,9.81152344 40.0126953,8.89550781 38.8574219,8.89550781 C37.7021484,8.89550781 36.9501953,9.81152344 36.9501953,11.4042969 C36.9501953,13.0039062 37.7021484,13.9199219 38.8574219,13.9199219 Z M46.4179688,8.86816406 C45.3857422,8.86816406 44.6611328,9.65429688 44.5859375,10.7412109 L48.1816406,10.7412109 C48.1474609,9.640625 47.4501953,8.86816406 46.4179688,8.86816406 Z M48.1748047,12.8876953 L49.5761719,12.8876953 C49.3710938,14.2001953 48.1269531,15.1367188 46.4794922,15.1367188 C44.3671875,15.1367188 43.0888672,13.7080078 43.0888672,11.4384766 C43.0888672,9.18261719 44.3876953,7.67871094 46.4179688,7.67871094 C48.4140625,7.67871094 49.6582031,9.08691406 49.6582031,11.2675781 L49.6582031,11.7734375 L44.5791016,11.7734375 L44.5791016,11.8623047 C44.5791016,13.1132812 45.3310547,13.9404297 46.5136719,13.9404297 C47.3544922,13.9404297 47.9765625,13.5166016 48.1748047,12.8876953 Z M56.1523438,9.10058594 C55.3115234,9.10058594 54.8056641,9.77050781 54.8056641,10.8984375 C54.8056641,12.0126953 55.3115234,12.6962891 56.1455078,12.6962891 C57.0068359,12.6962891 57.5605469,11.9990234 57.5605469,10.8984375 C57.5605469,9.79785156 57.0136719,9.10058594 56.1523438,9.10058594 Z M56.3916016,5.15625 C59.5908203,5.15625 61.8808594,7.1796875 61.8808594,10.2011719 C61.8808594,12.3818359 60.8964844,13.8105469 59.2695312,13.8105469 C58.4697266,13.8105469 57.8066406,13.3662109 57.6972656,12.6894531 L57.6289062,12.6894531 C57.3417969,13.3798828 56.7265625,13.7626953 55.9267578,13.7626953 C54.5048828,13.7626953 53.5478516,12.6005859 53.5478516,10.8642578 C53.5478516,9.203125 54.5117188,8.0546875 55.8994141,8.0546875 C56.6308594,8.0546875 57.2802734,8.43066406 57.5400391,9.01855469 L57.6152344,9.01855469 L57.6152344,8.19140625 L58.7705078,8.19140625 L58.7705078,12.0742188 C58.7705078,12.5253906 59.0097656,12.8330078 59.5019531,12.8330078 C60.2607422,12.8330078 60.8144531,11.8896484 60.8144531,10.2353516 C60.8144531,7.74707031 58.9892578,6.09960938 56.3164062,6.09960938 C53.6640625,6.09960938 51.7636719,8.08203125 51.7636719,10.8984375 C51.7636719,13.9130859 53.7734375,15.6083984 56.5488281,15.6083984 C57.3964844,15.6083984 58.2646484,15.4921875 58.6884766,15.3144531 L58.6884766,16.2578125 C58.1074219,16.4492188 57.3349609,16.5585938 56.5009766,16.5585938 C53.1240234,16.5585938 50.6972656,14.4804688 50.6972656,10.8574219 C50.6972656,7.453125 53.0351562,5.15625 56.3916016,5.15625 Z M65.421875,17.1054688 L64.109375,17.1054688 L64.109375,5.13574219 L65.421875,5.13574219 L65.421875,17.1054688 Z" transform="translate(11 6)"/>
    </g>
    <g transform="translate(24 136)">
      <mask id="form-h" fill="#fff">
        <use xlink:href="#form-g"/>
      </mask>
      <use fill="#FFF" xlink:href="#form-g"/>
      <path stroke="#E1E4E8" d="M5.1277704,0.5 C3.5776195,0.5 2.94057806,0.623018378 2.28210802,0.975172007 C1.71739041,1.27718629 1.27718629,1.71739041 0.975172007,2.28210802 C0.623018378,2.94057806 0.5,3.5776195 0.5,5.1277704 L0.5,26.8722296 C0.5,28.4223805 0.623018378,29.0594219 0.975172007,29.717892 C1.27718629,30.2826096 1.71739041,30.7228137 2.28210802,31.024828 C2.94057806,31.3769816 3.5776195,31.5 5.1277704,31.5 L242.87223,31.5 C244.42238,31.5 245.059422,31.3769816 245.717892,31.024828 C246.28261,30.7228137 246.722814,30.2826096 247.024828,29.717892 C247.376982,29.0594219 247.5,28.4223805 247.5,26.8722296 L247.5,5.1277704 C247.5,3.5776195 247.376982,2.94057806 247.024828,2.28210802 C246.722814,1.71739041 246.28261,1.27718629 245.717892,0.975172007 C245.059422,0.623018378 244.42238,0.5 242.87223,0.5 L5.1277704,0.5 Z" mask="url(#form-h)"/>
      <path d="M5.1277704,-2.07168062e-16 L242.87223,2.07168062e-16 C244.655267,-1.2037061e-16 245.30184,0.185651222 245.953691,0.534265408 C246.605543,0.882879593 247.11712,1.39445674 247.465735,2.04630859 C247.814349,2.69816044 248,3.34473292 248,5.1277704 L248,26.8722296 C248,28.6552671 247.814349,29.3018396 247.465735,29.9536914 C247.11712,30.6055433 246.605543,31.1171204 245.953691,31.4657346 C245.30184,31.8143488 244.655267,32 242.87223,32 L5.1277704,32 C3.34473292,32 2.69816044,31.8143488 2.04630859,31.4657346 C1.39445674,31.1171204 0.882879593,30.6055433 0.534265408,29.9536914 C0.185651222,29.3018396 8.02470732e-17,28.6552671 -1.38112041e-16,26.8722296 L1.38112041e-16,5.1277704 C-8.02470732e-17,3.34473292 0.185651222,2.69816044 0.534265408,2.04630859 C0.882879593,1.39445674 1.39445674,0.882879593 2.04630859,0.534265408 C2.69816044,0.185651222 3.34473292,1.2037061e-16 5.1277704,-2.07168062e-16 Z" mask="url(#form-h)"/>
      <g transform="translate(12 6)">
        <path fill="#717D92" d="M0.833333333,10 C2.41916667,6.1991342 5.41666667,3.33333333 10,3.33333333 C14.5833333,3.33333333 17.5808333,6.1991342 19.1666667,10 C17.5808333,13.8008658 14.5833333,16.6666667 10,16.6666667 C5.41666667,16.6666667 2.41916667,13.8008658 0.833333333,10 Z M7.5,10 C7.5,8.61491903 8.61491903,7.5 10,7.5 C11.385081,7.5 12.5,8.61491903 12.5,10 C12.5,11.385081 11.385081,12.5 10,12.5 C8.61491903,12.5 7.5,11.385081 7.5,10 Z M5.83333333,10 C5.83333333,12.3055556 7.69444444,14.1666667 10,14.1666667 C12.3055556,14.1666667 14.1666667,12.3055556 14.1666667,10 C14.1666667,7.69444444 12.3055556,5.83333333 10,5.83333333 C7.69444444,5.83333333 5.83333333,7.69444444 5.83333333,10 Z" transform="translate(204)"/>
        <path fill="#A7AAB0" fill-rule="nonzero" d="M0.95703125,5.13574219 L4.47753906,5.13574219 C6.33007812,5.13574219 7.63574219,6.43457031 7.63574219,8.30078125 C7.63574219,10.1738281 6.31640625,11.4794922 4.46386719,11.4794922 L2.1875,11.4794922 L2.1875,15 L0.95703125,15 L0.95703125,5.13574219 Z M2.1875,6.22949219 L2.1875,10.3857422 L4.15625,10.3857422 C5.56445312,10.3857422 6.37109375,9.61328125 6.37109375,8.30078125 C6.37109375,6.99511719 5.57128906,6.22949219 4.15625,6.22949219 L2.1875,6.22949219 Z M11.2041016,14.1113281 C12.3251953,14.1113281 13.1865234,13.3251953 13.1865234,12.2998047 L13.1865234,11.71875 L11.2861328,11.8349609 C10.3291016,11.8964844 9.78222656,12.3203125 9.78222656,12.9902344 C9.78222656,13.6669922 10.3496094,14.1113281 11.2041016,14.1113281 Z M10.9375,15.1230469 C9.52246094,15.1230469 8.57226562,14.2685547 8.57226562,12.9902344 C8.57226562,11.7734375 9.50878906,11.0078125 11.1494141,10.9121094 L13.1865234,10.7958984 L13.1865234,10.2011719 C13.1865234,9.33300781 12.6123047,8.81347656 11.6279297,8.81347656 C10.7119141,8.81347656 10.1376953,9.24414062 9.98730469,9.94140625 L8.83886719,9.94140625 C8.92089844,8.7109375 9.97363281,7.76757812 11.6552734,7.76757812 C13.3232422,7.76757812 14.3759766,8.66992188 14.3759766,10.0849609 L14.3759766,15 L13.2480469,15 L13.2480469,13.7763672 L13.2207031,13.7763672 C12.796875,14.5898438 11.8945312,15.1230469 10.9375,15.1230469 Z M15.7636719,9.85253906 C15.7636719,8.63574219 16.8369141,7.76757812 18.375,7.76757812 C19.9335938,7.76757812 20.9726562,8.68359375 21.0205078,9.94140625 L19.8857422,9.94140625 C19.796875,9.19628906 19.25,8.73828125 18.375,8.73828125 C17.5068359,8.73828125 16.9326172,9.16894531 16.9326172,9.79101562 C16.9326172,10.2832031 17.2949219,10.6181641 18.0878906,10.8095703 L19.2158203,11.0830078 C20.6513672,11.4316406 21.1708984,11.9921875 21.1708984,13.0107422 C21.1708984,14.2480469 20.0019531,15.1230469 18.4160156,15.1230469 C16.7480469,15.1230469 15.7089844,14.2822266 15.5722656,12.9492188 L16.7617188,12.9492188 C16.9052734,13.7626953 17.4521484,14.1523438 18.4160156,14.1523438 C19.3798828,14.1523438 19.9746094,13.7421875 19.9746094,13.0996094 C19.9746094,12.5869141 19.6943359,12.2929688 18.8808594,12.0947266 L17.7529297,11.8212891 C16.4130859,11.5 15.7636719,10.8779297 15.7636719,9.85253906 Z M22.2783203,9.85253906 C22.2783203,8.63574219 23.3515625,7.76757812 24.8896484,7.76757812 C26.4482422,7.76757812 27.4873047,8.68359375 27.5351562,9.94140625 L26.4003906,9.94140625 C26.3115234,9.19628906 25.7646484,8.73828125 24.8896484,8.73828125 C24.0214844,8.73828125 23.4472656,9.16894531 23.4472656,9.79101562 C23.4472656,10.2832031 23.8095703,10.6181641 24.6025391,10.8095703 L25.7304688,11.0830078 C27.1660156,11.4316406 27.6855469,11.9921875 27.6855469,13.0107422 C27.6855469,14.2480469 26.5166016,15.1230469 24.9306641,15.1230469 C23.2626953,15.1230469 22.2236328,14.2822266 22.0869141,12.9492188 L23.2763672,12.9492188 C23.4199219,13.7626953 23.9667969,14.1523438 24.9306641,14.1523438 C25.8945312,14.1523438 26.4892578,13.7421875 26.4892578,13.0996094 C26.4892578,12.5869141 26.2089844,12.2929688 25.3955078,12.0947266 L24.2675781,11.8212891 C22.9277344,11.5 22.2783203,10.8779297 22.2783203,9.85253906 Z M37.9599609,7.890625 L35.9775391,15 L34.7675781,15 L33.1611328,9.49707031 L33.1337891,9.49707031 L31.5341797,15 L30.3242188,15 L28.3349609,7.890625 L29.5175781,7.890625 L30.9394531,13.6738281 L30.9667969,13.6738281 L32.5732422,7.890625 L33.7216797,7.890625 L35.3349609,13.6738281 L35.3623047,13.6738281 L36.7841797,7.890625 L37.9599609,7.890625 Z M41.8769531,15.1230469 C39.9082031,15.1230469 38.5820312,13.7080078 38.5820312,11.4453125 C38.5820312,9.17578125 39.9082031,7.76757812 41.8769531,7.76757812 C43.8388672,7.76757812 45.1650391,9.17578125 45.1650391,11.4453125 C45.1650391,13.7080078 43.8388672,15.1230469 41.8769531,15.1230469 Z M41.8769531,14.0771484 C43.1347656,14.0771484 43.9550781,13.1201172 43.9550781,11.4453125 C43.9550781,9.77050781 43.1347656,8.81347656 41.8769531,8.81347656 C40.6191406,8.81347656 39.7919922,9.77050781 39.7919922,11.4453125 C39.7919922,13.1201172 40.6191406,14.0771484 41.8769531,14.0771484 Z M46.3613281,15 L46.3613281,7.890625 L47.4824219,7.890625 L47.4824219,9.05273438 L47.5097656,9.05273438 C47.7421875,8.26660156 48.3984375,7.76757812 49.2324219,7.76757812 C49.4375,7.76757812 49.6152344,7.80175781 49.7109375,7.81542969 L49.7109375,8.97070312 C49.6152344,8.93652344 49.3623047,8.90234375 49.0751953,8.90234375 C48.1523438,8.90234375 47.5507812,9.56542969 47.5507812,10.5703125 L47.5507812,15 L46.3613281,15 Z M53.3681641,15.1230469 C51.5566406,15.1230469 50.3261719,13.6738281 50.3261719,11.4453125 C50.3261719,9.21679688 51.5498047,7.76757812 53.3408203,7.76757812 C54.359375,7.76757812 55.1796875,8.26660156 55.6035156,9.04589844 L55.6308594,9.04589844 L55.6308594,5.13574219 L56.8203125,5.13574219 L56.8203125,15 L55.6855469,15 L55.6855469,13.796875 L55.6650391,13.796875 C55.2070312,14.6171875 54.3935547,15.1230469 53.3681641,15.1230469 Z M53.59375,8.81347656 C52.3359375,8.81347656 51.5429688,9.83886719 51.5429688,11.4453125 C51.5429688,13.0585938 52.3359375,14.0771484 53.59375,14.0771484 C54.8173828,14.0771484 55.6376953,13.0380859 55.6376953,11.4453125 C55.6376953,9.859375 54.8173828,8.81347656 53.59375,8.81347656 Z"/>
      </g>
    </g>
    <path fill="#000" fill-rule="nonzero" d="M34.2695312,36.3125 L30.9287109,48 L28.6513672,48 L24.4726562,32.4990234 L26.9755859,32.4990234 L29.84375,44.6376953 L29.9296875,44.6376953 L33.2060547,32.4990234 L35.4404297,32.4990234 L38.7275391,44.6376953 L38.8134766,44.6376953 L41.6816406,32.4990234 L44.1845703,32.4990234 L39.9951172,48 L37.7285156,48 L34.3769531,36.3125 L34.2695312,36.3125 Z M50.5332031,38.3642578 C48.9111328,38.3642578 47.7724609,39.5996094 47.6542969,41.3076172 L53.3046875,41.3076172 C53.2509766,39.578125 52.1552734,38.3642578 50.5332031,38.3642578 Z M53.2939453,44.6806641 L55.4960938,44.6806641 C55.1738281,46.7431641 53.21875,48.2148438 50.6298828,48.2148438 C47.3105469,48.2148438 45.3017578,45.9697266 45.3017578,42.4033203 C45.3017578,38.8583984 47.3427734,36.4951172 50.5332031,36.4951172 C53.6699219,36.4951172 55.625,38.7080078 55.625,42.1347656 L55.625,42.9296875 L47.6435547,42.9296875 L47.6435547,43.0693359 C47.6435547,45.0351562 48.8251953,46.3349609 50.6835938,46.3349609 C52.0048828,46.3349609 52.9824219,45.6689453 53.2939453,44.6806641 Z M57.5048828,48 L57.5048828,32.4990234 L59.8251953,32.4990234 L59.8251953,48 L57.5048828,48 Z M71.9101562,40.5878906 L69.6972656,40.5878906 C69.4609375,39.3847656 68.5585938,38.4287109 67.0439453,38.4287109 C65.25,38.4287109 64.0683594,39.921875 64.0683594,42.3496094 C64.0683594,44.8310547 65.2607422,46.2705078 67.0654297,46.2705078 C68.4941406,46.2705078 69.4287109,45.4863281 69.6972656,44.1757812 L71.9316406,44.1757812 C71.6845703,46.5820312 69.7617188,48.2148438 67.0439453,48.2148438 C63.8105469,48.2148438 61.7050781,46.0019531 61.7050781,42.3496094 C61.7050781,38.7617188 63.8105469,36.4951172 67.0224609,36.4951172 C69.9335938,36.4951172 71.7060547,38.3642578 71.9101562,40.5878906 Z M78.4306641,48.2148438 C75.1972656,48.2148438 73.0703125,45.9912109 73.0703125,42.3496094 C73.0703125,38.71875 75.2080078,36.4951172 78.4306641,36.4951172 C81.6533203,36.4951172 83.7910156,38.71875 83.7910156,42.3496094 C83.7910156,45.9912109 81.6640625,48.2148438 78.4306641,48.2148438 Z M78.4306641,46.3027344 C80.2568359,46.3027344 81.4277344,44.8632812 81.4277344,42.3496094 C81.4277344,39.8466797 80.2460938,38.4072266 78.4306641,38.4072266 C76.6152344,38.4072266 75.4335938,39.8466797 75.4335938,42.3496094 C75.4335938,44.8632812 76.6152344,46.3027344 78.4306641,46.3027344 Z M85.5849609,48 L85.5849609,36.6992188 L87.7978516,36.6992188 L87.7978516,38.6005859 L87.8515625,38.6005859 C88.3564453,37.34375 89.5380859,36.5058594 91.0634766,36.5058594 C92.6318359,36.5058594 93.7705078,37.3115234 94.2216797,38.71875 L94.2753906,38.71875 C94.8554688,37.34375 96.1875,36.5058594 97.7988281,36.5058594 C100.033203,36.5058594 101.494141,37.9882812 101.494141,40.2333984 L101.494141,48 L99.1630859,48 L99.1630859,40.7919922 C99.1630859,39.3310547 98.3789062,38.4931641 97.0039062,38.4931641 C95.6289062,38.4931641 94.6728516,39.5136719 94.6728516,40.9423828 L94.6728516,48 L92.3955078,48 L92.3955078,40.6201172 C92.3955078,39.3203125 91.5683594,38.4931641 90.2578125,38.4931641 C88.8828125,38.4931641 87.9052734,39.5673828 87.9052734,41.0175781 L87.9052734,48 L85.5849609,48 Z M108.455078,38.3642578 C106.833008,38.3642578 105.694336,39.5996094 105.576172,41.3076172 L111.226562,41.3076172 C111.172852,39.578125 110.077148,38.3642578 108.455078,38.3642578 Z M111.21582,44.6806641 L113.417969,44.6806641 C113.095703,46.7431641 111.140625,48.2148438 108.551758,48.2148438 C105.232422,48.2148438 103.223633,45.9697266 103.223633,42.4033203 C103.223633,38.8583984 105.264648,36.4951172 108.455078,36.4951172 C111.591797,36.4951172 113.546875,38.7080078 113.546875,42.1347656 L113.546875,42.9296875 L105.56543,42.9296875 L105.56543,43.0693359 C105.56543,45.0351562 106.74707,46.3349609 108.605469,46.3349609 C109.926758,46.3349609 110.904297,45.6689453 111.21582,44.6806641 Z M126.297852,48 L120.078125,48 L120.078125,32.4990234 L126.265625,32.4990234 C129.015625,32.4990234 130.820312,34.0244141 130.820312,36.3662109 C130.820312,38.0097656 129.606445,39.4814453 128.05957,39.7392578 L128.05957,39.8251953 C130.165039,40.0615234 131.583008,41.5546875 131.583008,43.6171875 C131.583008,46.3457031 129.595703,48 126.297852,48 Z M122.484375,34.4648438 L122.484375,39.0947266 L125.180664,39.0947266 C127.264648,39.0947266 128.414062,38.2353516 128.414062,36.6992188 C128.414062,35.2597656 127.425781,34.4648438 125.685547,34.4648438 L122.484375,34.4648438 Z M122.484375,46.0341797 L125.803711,46.0341797 C127.973633,46.0341797 129.123047,45.1425781 129.123047,43.4667969 C129.123047,41.7910156 127.941406,40.9316406 125.664062,40.9316406 L122.484375,40.9316406 L122.484375,46.0341797 Z M137.330078,46.3564453 C138.952148,46.3564453 140.219727,45.2392578 140.219727,43.7675781 L140.219727,42.8759766 L137.4375,43.0478516 C136.051758,43.1445312 135.267578,43.7568359 135.267578,44.7236328 C135.267578,45.7119141 136.083984,46.3564453 137.330078,46.3564453 Z M136.685547,48.1933594 C134.472656,48.1933594 132.925781,46.8183594 132.925781,44.7880859 C132.925781,42.8115234 134.44043,41.5976562 137.125977,41.4472656 L140.219727,41.2646484 L140.219727,40.3945312 C140.219727,39.1376953 139.371094,38.3857422 137.953125,38.3857422 C136.610352,38.3857422 135.772461,39.0302734 135.568359,40.0400391 L133.376953,40.0400391 C133.505859,37.9990234 135.246094,36.4951172 138.039062,36.4951172 C140.77832,36.4951172 142.529297,37.9453125 142.529297,40.2119141 L142.529297,48 L140.305664,48 L140.305664,46.1416016 L140.251953,46.1416016 C139.59668,47.3984375 138.167969,48.1933594 136.685547,48.1933594 Z M154.474609,40.5878906 L152.261719,40.5878906 C152.025391,39.3847656 151.123047,38.4287109 149.608398,38.4287109 C147.814453,38.4287109 146.632812,39.921875 146.632812,42.3496094 C146.632812,44.8310547 147.825195,46.2705078 149.629883,46.2705078 C151.058594,46.2705078 151.993164,45.4863281 152.261719,44.1757812 L154.496094,44.1757812 C154.249023,46.5820312 152.326172,48.2148438 149.608398,48.2148438 C146.375,48.2148438 144.269531,46.0019531 144.269531,42.3496094 C144.269531,38.7617188 146.375,36.4951172 149.586914,36.4951172 C152.498047,36.4951172 154.270508,38.3642578 154.474609,40.5878906 Z M158.567383,41.5439453 L163.132812,36.6992188 L165.861328,36.6992188 L161.177734,41.5654297 L166.043945,48 L163.347656,48 L159.512695,42.9833984 L158.545898,43.9394531 L158.545898,48 L156.225586,48 L156.225586,32.4990234 L158.545898,32.4990234 L158.545898,41.5439453 L158.567383,41.5439453 Z"/>
    <path fill="#B3DAFF" d="M3.89721853,2.66666667 C3.28568819,2.66666667 3.13612148,2.69554933 2.98528611,2.77621697 C2.89171815,2.82625766 2.82625766,2.89171815 2.77621697,2.98528611 C2.69554933,3.13612148 2.66666667,3.28568819 2.66666667,3.89721853 L2.66666667,12.1027815 C2.66666667,12.7143118 2.69554933,12.8638785 2.77621697,13.0147139 C2.82625766,13.1082819 2.89171815,13.1737423 2.98528611,13.223783 C3.13612148,13.3044507 3.28568819,13.3333333 3.89721853,13.3333333 L12.1027815,13.3333333 C12.7143118,13.3333333 12.8638785,13.3044507 13.0147139,13.223783 C13.1082819,13.1737423 13.1737423,13.1082819 13.223783,13.0147139 C13.3044507,12.8638785 13.3333333,12.7143118 13.3333333,12.1027815 L13.3333333,3.89721853 C13.3333333,3.28568819 13.3044507,3.13612148 13.223783,2.98528611 C13.1737423,2.89171815 13.1082819,2.82625766 13.0147139,2.77621697 C12.8638785,2.69554933 12.7143118,2.66666667 12.1027815,2.66666667 L3.89721853,2.66666667 Z M3.89721853,1.33333333 L12.1027815,1.33333333 C12.9943002,1.33333333 13.3175864,1.42615894 13.6435124,1.60046604 C13.9694383,1.77477313 14.2252269,2.0305617 14.399534,2.35648763 C14.5738411,2.68241356 14.6666667,3.00569979 14.6666667,3.89721853 L14.6666667,12.1027815 C14.6666667,12.9943002 14.5738411,13.3175864 14.399534,13.6435124 C14.2252269,13.9694383 13.9694383,14.2252269 13.6435124,14.399534 C13.3175864,14.5738411 12.9943002,14.6666667 12.1027815,14.6666667 L3.89721853,14.6666667 C3.00569979,14.6666667 2.68241356,14.5738411 2.35648763,14.399534 C2.0305617,14.2252269 1.77477313,13.9694383 1.60046604,13.6435124 C1.42615894,13.3175864 1.33333333,12.9943002 1.33333333,12.1027815 L1.33333333,3.89721853 C1.33333333,3.00569979 1.42615894,2.68241356 1.60046604,2.35648763 C1.77477313,2.0305617 2.0305617,1.77477313 2.35648763,1.60046604 C2.68241356,1.42615894 3.00569979,1.33333333 3.89721853,1.33333333 Z" transform="translate(24 200)"/>
    <path fill="#000" fill-rule="nonzero" d="M50.0917969,204.646484 L50.0917969,207.6875 L51.9316406,207.6875 C52.9453125,207.6875 53.5253906,207.130859 53.5253906,206.164062 C53.5253906,205.220703 52.9101562,204.646484 51.8964844,204.646484 L50.0917969,204.646484 Z M50.0917969,208.748047 L50.0917969,212 L48.7792969,212 L48.7792969,203.544922 L52.0546875,203.544922 C53.7949219,203.544922 54.8789062,204.552734 54.8789062,206.128906 C54.8789062,207.271484 54.2695312,208.197266 53.2382812,208.542969 L55.1308594,212 L53.6191406,212 L51.8964844,208.748047 L50.0917969,208.748047 Z M58.5703125,206.744141 C57.6855469,206.744141 57.0644531,207.417969 57,208.349609 L60.0820312,208.349609 C60.0527344,207.40625 59.4550781,206.744141 58.5703125,206.744141 Z M60.0761719,210.189453 L61.2773438,210.189453 C61.1015625,211.314453 60.0351562,212.117188 58.6230469,212.117188 C56.8125,212.117188 55.7167969,210.892578 55.7167969,208.947266 C55.7167969,207.013672 56.8300781,205.724609 58.5703125,205.724609 C60.28125,205.724609 61.3476562,206.931641 61.3476562,208.800781 L61.3476562,209.234375 L56.9941406,209.234375 L56.9941406,209.310547 C56.9941406,210.382812 57.6386719,211.091797 58.6523438,211.091797 C59.3730469,211.091797 59.90625,210.728516 60.0761719,210.189453 Z M62.3261719,212 L62.3261719,205.835938 L63.5332031,205.835938 L63.5332031,206.873047 L63.5625,206.873047 C63.8378906,206.1875 64.4824219,205.730469 65.3144531,205.730469 C66.1699219,205.730469 66.7910156,206.169922 67.0371094,206.9375 L67.0664062,206.9375 C67.3828125,206.1875 68.109375,205.730469 68.9882812,205.730469 C70.2070312,205.730469 71.0039062,206.539062 71.0039062,207.763672 L71.0039062,212 L69.7324219,212 L69.7324219,208.068359 C69.7324219,207.271484 69.3046875,206.814453 68.5546875,206.814453 C67.8046875,206.814453 67.2832031,207.371094 67.2832031,208.150391 L67.2832031,212 L66.0410156,212 L66.0410156,207.974609 C66.0410156,207.265625 65.5898438,206.814453 64.875,206.814453 C64.125,206.814453 63.5917969,207.400391 63.5917969,208.191406 L63.5917969,212 L62.3261719,212 Z M74.8007812,206.744141 C73.9160156,206.744141 73.2949219,207.417969 73.2304688,208.349609 L76.3125,208.349609 C76.2832031,207.40625 75.6855469,206.744141 74.8007812,206.744141 Z M76.3066406,210.189453 L77.5078125,210.189453 C77.3320312,211.314453 76.265625,212.117188 74.8535156,212.117188 C73.0429688,212.117188 71.9472656,210.892578 71.9472656,208.947266 C71.9472656,207.013672 73.0605469,205.724609 74.8007812,205.724609 C76.5117188,205.724609 77.578125,206.931641 77.578125,208.800781 L77.578125,209.234375 L73.2246094,209.234375 L73.2246094,209.310547 C73.2246094,210.382812 73.8691406,211.091797 74.8828125,211.091797 C75.6035156,211.091797 76.1367188,210.728516 76.3066406,210.189453 Z M78.5566406,212 L78.5566406,205.835938 L79.7636719,205.835938 L79.7636719,206.873047 L79.7929688,206.873047 C80.0683594,206.1875 80.7128906,205.730469 81.5449219,205.730469 C82.4003906,205.730469 83.0214844,206.169922 83.2675781,206.9375 L83.296875,206.9375 C83.6132812,206.1875 84.3398438,205.730469 85.21875,205.730469 C86.4375,205.730469 87.234375,206.539062 87.234375,207.763672 L87.234375,212 L85.9628906,212 L85.9628906,208.068359 C85.9628906,207.271484 85.5351562,206.814453 84.7851562,206.814453 C84.0351562,206.814453 83.5136719,207.371094 83.5136719,208.150391 L83.5136719,212 L82.2714844,212 L82.2714844,207.974609 C82.2714844,207.265625 81.8203125,206.814453 81.1054688,206.814453 C80.3554688,206.814453 79.8222656,207.400391 79.8222656,208.191406 L79.8222656,212 L78.5566406,212 Z M91.734375,212.105469 C90.8320312,212.105469 90.1347656,211.666016 89.7539062,210.951172 L89.7304688,210.951172 L89.7304688,212 L88.5,212 L88.5,203.544922 L89.765625,203.544922 L89.765625,206.884766 L89.7949219,206.884766 C90.1640625,206.169922 90.8671875,205.736328 91.7402344,205.736328 C93.2929688,205.736328 94.3066406,206.966797 94.3066406,208.917969 C94.3066406,210.875 93.2988281,212.105469 91.734375,212.105469 Z M91.3945312,206.802734 C90.4335938,206.802734 89.7597656,207.646484 89.7597656,208.917969 C89.7597656,210.201172 90.4335938,211.033203 91.3945312,211.033203 C92.390625,211.033203 93.0058594,210.224609 93.0058594,208.917969 C93.0058594,207.623047 92.390625,206.802734 91.3945312,206.802734 Z M97.8691406,206.744141 C96.984375,206.744141 96.3632812,207.417969 96.2988281,208.349609 L99.3808594,208.349609 C99.3515625,207.40625 98.7539062,206.744141 97.8691406,206.744141 Z M99.375,210.189453 L100.576172,210.189453 C100.400391,211.314453 99.3339844,212.117188 97.921875,212.117188 C96.1113281,212.117188 95.015625,210.892578 95.015625,208.947266 C95.015625,207.013672 96.1289062,205.724609 97.8691406,205.724609 C99.5800781,205.724609 100.646484,206.931641 100.646484,208.800781 L100.646484,209.234375 L96.2929688,209.234375 L96.2929688,209.310547 C96.2929688,210.382812 96.9375,211.091797 97.9511719,211.091797 C98.671875,211.091797 99.2050781,210.728516 99.375,210.189453 Z M101.625,212 L101.625,205.835938 L102.832031,205.835938 L102.832031,206.884766 L102.861328,206.884766 C103.066406,206.164062 103.617188,205.736328 104.34375,205.736328 C104.525391,205.736328 104.683594,205.765625 104.777344,205.783203 L104.777344,206.960938 C104.677734,206.919922 104.455078,206.890625 104.208984,206.890625 C103.394531,206.890625 102.890625,207.435547 102.890625,208.308594 L102.890625,212 L101.625,212 Z M116.701172,212 L115.5,212 L115.5,205.777344 L115.458984,205.777344 L112.910156,212 L111.9375,212 L109.382812,205.777344 L109.341797,205.777344 L109.341797,212 L108.146484,212 L108.146484,203.544922 L109.664062,203.544922 L112.400391,210.283203 L112.447266,210.283203 L115.177734,203.544922 L116.701172,203.544922 L116.701172,212 Z M120.685547,206.744141 C119.800781,206.744141 119.179688,207.417969 119.115234,208.349609 L122.197266,208.349609 C122.167969,207.40625 121.570312,206.744141 120.685547,206.744141 Z M122.191406,210.189453 L123.392578,210.189453 C123.216797,211.314453 122.150391,212.117188 120.738281,212.117188 C118.927734,212.117188 117.832031,210.892578 117.832031,208.947266 C117.832031,207.013672 118.945312,205.724609 120.685547,205.724609 C122.396484,205.724609 123.462891,206.931641 123.462891,208.800781 L123.462891,209.234375 L119.109375,209.234375 L119.109375,209.310547 C119.109375,210.382812 119.753906,211.091797 120.767578,211.091797 C121.488281,211.091797 122.021484,210.728516 122.191406,210.189453 Z"/>
  </g>
</svg>
