<svg xmlns="http://www.w3.org/2000/svg" xmlns:xlink="http://www.w3.org/1999/xlink" width="272" height="72" viewBox="0 0 272 72">
  <defs>
    <path id="john-a" d="M20,0 C31.045695,-2.02906125e-15 40,8.954305 40,20 C40,31.045695 31.045695,40 20,40 C8.954305,40 1.3527075e-15,31.045695 0,20 C-1.3527075e-15,8.954305 8.954305,2.02906125e-15 20,0 Z"/>
    <filter id="john-b" width="157.5%" height="160%" x="-28.8%" y="-16.2%" filterUnits="objectBoundingBox">
      <feMorphology in="SourceAlpha" radius=".5" result="shadowSpreadOuter1"/>
      <feOffset dy="6" in="shadowSpreadOuter1" result="shadowOffsetOuter1"/>
      <feGaussianBlur in="shadowOffsetOuter1" result="shadowBlurOuter1" stdDeviation="3"/>
      <feColorMatrix in="shadowBlurOuter1" result="shadowMatrixOuter1" values="0 0 0 0 0.0392156863   0 0 0 0 0.0862745098   0 0 0 0 0.274509804  0 0 0 0.1 0"/>
      <feOffset in="SourceAlpha" result="shadowOffsetOuter2"/>
      <feGaussianBlur in="shadowOffsetOuter2" result="shadowBlurOuter2" stdDeviation=".5"/>
      <feColorMatrix in="shadowBlurOuter2" result="shadowMatrixOuter2" values="0 0 0 0 0.0392156863   0 0 0 0 0.0862745098   0 0 0 0 0.274509804  0 0 0 0.06 0"/>
      <feMerge>
        <feMergeNode in="shadowMatrixOuter1"/>
        <feMergeNode in="shadowMatrixOuter2"/>
      </feMerge>
    </filter>
    <circle id="john-e" cx="4" cy="4" r="4"/>
    <filter id="john-d" width="237.5%" height="250%" x="-68.8%" y="-43.8%" filterUnits="objectBoundingBox">
      <feMorphology in="SourceAlpha" radius=".5" result="shadowSpreadOuter1"/>
      <feOffset dy="3" in="shadowSpreadOuter1" result="shadowOffsetOuter1"/>
      <feGaussianBlur in="shadowOffsetOuter1" result="shadowBlurOuter1" stdDeviation="1.5"/>
      <feColorMatrix in="shadowBlurOuter1" result="shadowMatrixOuter1" values="0 0 0 0 0.0392156863   0 0 0 0 0.0862745098   0 0 0 0 0.274509804  0 0 0 0.1 0"/>
      <feOffset in="SourceAlpha" result="shadowOffsetOuter2"/>
      <feGaussianBlur in="shadowOffsetOuter2" result="shadowBlurOuter2" stdDeviation=".5"/>
      <feColorMatrix in="shadowBlurOuter2" result="shadowMatrixOuter2" values="0 0 0 0 0.0392156863   0 0 0 0 0.0862745098   0 0 0 0 0.274509804  0 0 0 0.06 0"/>
      <feMerge>
        <feMergeNode in="shadowMatrixOuter1"/>
        <feMergeNode in="shadowMatrixOuter2"/>
      </feMerge>
    </filter>
  </defs>
  <g fill="none" fill-rule="evenodd">
    <rect width="272" height="72" fill="#FFF" rx="12"/>
    <path fill="#596780" d="M12.5,5.34517797 L5,12.845178 L5,14.654822 L6.80964406,14.654822 L14.3096441,7.15482203 L12.5,5.34517797 Z M16.077411,7.74407768 L7.74407768,16.077411 C7.58779737,16.2336913 7.37583577,16.3214887 7.15482203,16.3214887 L4.16666667,16.3214887 C3.70642938,16.3214887 3.33333333,15.9483927 3.33333333,15.4881554 L3.33333333,12.5 C3.33333333,12.2789863 3.4211307,12.0670247 3.57741102,11.9107443 L11.9107443,3.57741102 C12.2361813,3.25197411 12.7638187,3.25197411 13.0892557,3.57741102 L16.077411,6.56556638 C16.4028479,6.89100329 16.4028479,7.41864077 16.077411,7.74407768 Z" transform="translate(228 26)"/>
    <g transform="translate(16 16)">
      <mask id="john-c" fill="#fff">
        <use xlink:href="#john-a"/>
      </mask>
      <use fill="#000" filter="url(#john-b)" xlink:href="#john-a"/>
      <use fill="#FFF" xlink:href="#john-a"/>
      <path fill="#0284FE" d="M20,0 C31.045695,-2.02906125e-15 40,8.954305 40,20 C40,31.045695 31.045695,40 20,40 C8.954305,40 1.3527075e-15,31.045695 0,20 C-1.3527075e-15,8.954305 8.954305,2.02906125e-15 20,0 Z" mask="url(#john-c)"/>
      <path fill="#FFF" fill-rule="nonzero" d="M11.8310547,22.4707031 L13.3349609,22.4707031 C13.3554688,23.2910156 13.9501953,23.8515625 14.8046875,23.8515625 C15.8095703,23.8515625 16.3564453,23.25 16.3564453,22.1220703 L16.3564453,15.1357422 L17.8876953,15.1357422 L17.8876953,22.1289062 C17.8876953,24.0839844 16.7392578,25.21875 14.8183594,25.21875 C13.0410156,25.21875 11.8310547,24.1113281 11.8310547,22.4707031 Z M19.7265625,15.1357422 L23.2060547,15.1357422 C26.1386719,15.1357422 27.875,16.9404297 27.875,20.0507812 C27.875,23.1679688 26.1455078,25 23.2060547,25 L19.7265625,25 L19.7265625,15.1357422 Z M21.2578125,16.4550781 L21.2578125,23.6738281 L23.0625,23.6738281 C25.1542969,23.6738281 26.3095703,22.3955078 26.3095703,20.0644531 C26.3095703,17.7402344 25.1474609,16.4550781 23.0625,16.4550781 L21.2578125,16.4550781 Z" mask="url(#john-c)"/>
      <g transform="translate(30 30)">
        <use fill="#000" filter="url(#john-d)" xlink:href="#john-e"/>
        <use fill="#FFF" xlink:href="#john-e"/>
        <circle cx="4" cy="4" r="3" fill="#F7AF22"/>
      </g>
    </g>
    <path fill="#000" fill-rule="nonzero" d="M72.2597656,30.4707031 L73.7636719,30.4707031 C73.7841797,31.2910156 74.3789062,31.8515625 75.2333984,31.8515625 C76.2382812,31.8515625 76.7851562,31.25 76.7851562,30.1220703 L76.7851562,23.1357422 L78.3164062,23.1357422 L78.3164062,30.1289062 C78.3164062,32.0839844 77.1679688,33.21875 75.2470703,33.21875 C73.4697266,33.21875 72.2597656,32.1113281 72.2597656,30.4707031 Z M83.0673828,33.1367188 C81.0097656,33.1367188 79.65625,31.7216797 79.65625,29.4042969 C79.65625,27.09375 81.0166016,25.6787109 83.0673828,25.6787109 C85.1181641,25.6787109 86.4785156,27.09375 86.4785156,29.4042969 C86.4785156,31.7216797 85.125,33.1367188 83.0673828,33.1367188 Z M83.0673828,31.9199219 C84.2294922,31.9199219 84.9746094,31.0039062 84.9746094,29.4042969 C84.9746094,27.8115234 84.2226562,26.8955078 83.0673828,26.8955078 C81.9121094,26.8955078 81.1601562,27.8115234 81.1601562,29.4042969 C81.1601562,31.0039062 81.9121094,31.9199219 83.0673828,31.9199219 Z M87.6748047,33 L87.6748047,23.1357422 L89.1376953,23.1357422 L89.1376953,27.0117188 L89.171875,27.0117188 C89.5683594,26.1708984 90.3544922,25.6855469 91.4482422,25.6855469 C93.0273438,25.6855469 93.9707031,26.7382812 93.9707031,28.3652344 L93.9707031,33 L92.4873047,33 L92.4873047,28.6523438 C92.4873047,27.5927734 91.9541016,26.9570312 90.9150391,26.9570312 C89.8212891,26.9570312 89.1513672,27.7089844 89.1513672,28.84375 L89.1513672,33 L87.6748047,33 Z M95.3925781,33 L95.3925781,25.8085938 L96.8007812,25.8085938 L96.8007812,27.0117188 L96.8349609,27.0117188 C97.2246094,26.1914062 97.9902344,25.6855469 99.0976562,25.6855469 C100.683594,25.6855469 101.592773,26.6972656 101.592773,28.3447266 L101.592773,33 L100.109375,33 L100.109375,28.6318359 C100.109375,27.5517578 99.6035156,26.9570312 98.578125,26.9570312 C97.5390625,26.9570312 96.8691406,27.6953125 96.8691406,28.8095703 L96.8691406,33 L95.3925781,33 Z M106.029297,23.1357422 L109.508789,23.1357422 C112.441406,23.1357422 114.177734,24.9404297 114.177734,28.0507812 C114.177734,31.1679688 112.448242,33 109.508789,33 L106.029297,33 L106.029297,23.1357422 Z M107.560547,24.4550781 L107.560547,31.6738281 L109.365234,31.6738281 C111.457031,31.6738281 112.612305,30.3955078 112.612305,28.0644531 C112.612305,25.7402344 111.450195,24.4550781 109.365234,24.4550781 L107.560547,24.4550781 Z M118.552734,33.1367188 C116.495117,33.1367188 115.141602,31.7216797 115.141602,29.4042969 C115.141602,27.09375 116.501953,25.6787109 118.552734,25.6787109 C120.603516,25.6787109 121.963867,27.09375 121.963867,29.4042969 C121.963867,31.7216797 120.610352,33.1367188 118.552734,33.1367188 Z M118.552734,31.9199219 C119.714844,31.9199219 120.459961,31.0039062 120.459961,29.4042969 C120.459961,27.8115234 119.708008,26.8955078 118.552734,26.8955078 C117.397461,26.8955078 116.645508,27.8115234 116.645508,29.4042969 C116.645508,31.0039062 117.397461,31.9199219 118.552734,31.9199219 Z M126.113281,26.8681641 C125.081055,26.8681641 124.356445,27.6542969 124.28125,28.7412109 L127.876953,28.7412109 C127.842773,27.640625 127.145508,26.8681641 126.113281,26.8681641 Z M127.870117,30.8876953 L129.271484,30.8876953 C129.066406,32.2001953 127.822266,33.1367188 126.174805,33.1367188 C124.0625,33.1367188 122.78418,31.7080078 122.78418,29.4384766 C122.78418,27.1826172 124.083008,25.6787109 126.113281,25.6787109 C128.109375,25.6787109 129.353516,27.0869141 129.353516,29.2675781 L129.353516,29.7734375 L124.274414,29.7734375 L124.274414,29.8623047 C124.274414,31.1132812 125.026367,31.9404297 126.208984,31.9404297 C127.049805,31.9404297 127.671875,31.5166016 127.870117,30.8876953 Z"/>
    <path fill="#A7AAB0" fill-rule="nonzero" d="M73.875,43.5449219 L73.875,48.9648438 C73.875,50.2421875 74.7128906,51.1679688 76.1777344,51.1679688 C77.6425781,51.1679688 78.4804688,50.2421875 78.4804688,48.9648438 L78.4804688,43.5449219 L79.5351562,43.5449219 L79.5351562,49.0351562 C79.5351562,50.8398438 78.2753906,52.140625 76.1777344,52.140625 C74.0800781,52.140625 72.8203125,50.8398438 72.8203125,49.0351562 L72.8203125,43.5449219 L73.875,43.5449219 Z M82.2304688,52 L81.1757812,52 L81.1757812,43.5449219 L82.2304688,43.5449219 L82.2304688,52 Z M83.9238281,53.7988281 L83.0507812,53.7988281 L86.0449219,43.5449219 L86.9179688,43.5449219 L83.9238281,53.7988281 Z M88.7929688,43.5449219 L88.7929688,48.9648438 C88.7929688,50.2421875 89.6308594,51.1679688 91.0957031,51.1679688 C92.5605469,51.1679688 93.3984375,50.2421875 93.3984375,48.9648438 L93.3984375,43.5449219 L94.453125,43.5449219 L94.453125,49.0351562 C94.453125,50.8398438 93.1933594,52.140625 91.0957031,52.140625 C88.9980469,52.140625 87.7382812,50.8398438 87.7382812,49.0351562 L87.7382812,43.5449219 L88.7929688,43.5449219 Z M95.5371094,52 L98.4140625,47.7636719 L98.4140625,47.7226562 L95.5722656,43.5449219 L96.84375,43.5449219 L99.0996094,46.9433594 L99.140625,46.9433594 L101.425781,43.5449219 L102.626953,43.5449219 L99.7089844,47.7753906 L99.7089844,47.8105469 L102.5625,52 L101.296875,52 L99.0527344,48.6308594 L99.0117188,48.6308594 L96.7324219,52 L95.5371094,52 Z M106.171875,43.5449219 L109.013672,43.5449219 C111.521484,43.5449219 113.003906,45.109375 113.003906,47.7695312 C113.003906,50.4355469 111.527344,52 109.013672,52 L106.171875,52 L106.171875,43.5449219 Z M107.226562,44.4941406 L107.226562,51.0507812 L108.943359,51.0507812 C110.859375,51.0507812 111.925781,49.8789062 111.925781,47.78125 C111.925781,45.6660156 110.865234,44.4941406 108.943359,44.4941406 L107.226562,44.4941406 Z M116.601562,46.6855469 C115.646484,46.6855469 114.978516,47.4179688 114.914062,48.4316406 L118.224609,48.4316406 C118.201172,47.4121094 117.5625,46.6855469 116.601562,46.6855469 Z M118.201172,50.2539062 L119.203125,50.2539062 C119.027344,51.3203125 117.996094,52.1054688 116.666016,52.1054688 C114.919922,52.1054688 113.859375,50.8925781 113.859375,48.9765625 C113.859375,47.0839844 114.9375,45.8007812 116.619141,45.8007812 C118.265625,45.8007812 119.279297,46.9960938 119.279297,48.8417969 L119.279297,49.2285156 L114.908203,49.2285156 L114.908203,49.2871094 C114.908203,50.453125 115.59375,51.2207031 116.689453,51.2207031 C117.462891,51.2207031 118.03125,50.828125 118.201172,50.2539062 Z M120.199219,47.5878906 C120.199219,46.5449219 121.119141,45.8007812 122.4375,45.8007812 C123.773438,45.8007812 124.664062,46.5859375 124.705078,47.6640625 L123.732422,47.6640625 C123.65625,47.0253906 123.1875,46.6328125 122.4375,46.6328125 C121.693359,46.6328125 121.201172,47.0019531 121.201172,47.5351562 C121.201172,47.9570312 121.511719,48.2441406 122.191406,48.4082031 L123.158203,48.6425781 C124.388672,48.9414062 124.833984,49.421875 124.833984,50.2949219 C124.833984,51.3554688 123.832031,52.1054688 122.472656,52.1054688 C121.042969,52.1054688 120.152344,51.3847656 120.035156,50.2421875 L121.054688,50.2421875 C121.177734,50.9394531 121.646484,51.2734375 122.472656,51.2734375 C123.298828,51.2734375 123.808594,50.921875 123.808594,50.3710938 C123.808594,49.9316406 123.568359,49.6796875 122.871094,49.5097656 L121.904297,49.2753906 C120.755859,49 120.199219,48.4667969 120.199219,47.5878906 Z M125.941406,52 L125.941406,45.90625 L126.960938,45.90625 L126.960938,52 L125.941406,52 Z M126.451172,44.8222656 C126.099609,44.8222656 125.8125,44.5351562 125.8125,44.1835938 C125.8125,43.8261719 126.099609,43.5449219 126.451172,43.5449219 C126.808594,43.5449219 127.089844,43.8261719 127.089844,44.1835938 C127.089844,44.5351562 126.808594,44.8222656 126.451172,44.8222656 Z M130.816406,51.1503906 C131.876953,51.1503906 132.585938,50.2714844 132.585938,48.9296875 C132.585938,47.5878906 131.876953,46.6972656 130.816406,46.6972656 C129.767578,46.6972656 129.082031,47.5644531 129.082031,48.9296875 C129.082031,50.2949219 129.767578,51.1503906 130.816406,51.1503906 Z M130.851562,54.296875 C129.509766,54.296875 128.449219,53.5410156 128.279297,52.5039062 L129.328125,52.5039062 C129.527344,53.0605469 130.130859,53.4296875 130.892578,53.4296875 C131.947266,53.4296875 132.585938,52.8203125 132.585938,51.9121094 L132.585938,50.9511719 L132.5625,50.9511719 C132.1875,51.6132812 131.466797,52.046875 130.611328,52.046875 C129.058594,52.046875 128.039062,50.8222656 128.039062,48.9296875 C128.039062,47.0195312 129.058594,45.8007812 130.634766,45.8007812 C131.496094,45.8007812 132.210938,46.2226562 132.615234,46.9316406 L132.632812,46.9316406 L132.632812,45.90625 L133.605469,45.90625 L133.605469,51.8769531 C133.605469,53.3300781 132.533203,54.296875 130.851562,54.296875 Z M134.929688,52 L134.929688,45.90625 L135.890625,45.90625 L135.890625,46.8789062 L135.914062,46.8789062 C136.253906,46.2226562 136.904297,45.8007812 137.847656,45.8007812 C139.183594,45.8007812 139.957031,46.6621094 139.957031,48.0449219 L139.957031,52 L138.9375,52 L138.9375,48.2265625 C138.9375,47.2421875 138.474609,46.703125 137.537109,46.703125 C136.576172,46.703125 135.949219,47.3828125 135.949219,48.4140625 L135.949219,52 L134.929688,52 Z M143.695312,46.6855469 C142.740234,46.6855469 142.072266,47.4179688 142.007812,48.4316406 L145.318359,48.4316406 C145.294922,47.4121094 144.65625,46.6855469 143.695312,46.6855469 Z M145.294922,50.2539062 L146.296875,50.2539062 C146.121094,51.3203125 145.089844,52.1054688 143.759766,52.1054688 C142.013672,52.1054688 140.953125,50.8925781 140.953125,48.9765625 C140.953125,47.0839844 142.03125,45.8007812 143.712891,45.8007812 C145.359375,45.8007812 146.373047,46.9960938 146.373047,48.8417969 L146.373047,49.2285156 L142.001953,49.2285156 L142.001953,49.2871094 C142.001953,50.453125 142.6875,51.2207031 143.783203,51.2207031 C144.556641,51.2207031 145.125,50.828125 145.294922,50.2539062 Z M147.398438,52 L147.398438,45.90625 L148.359375,45.90625 L148.359375,46.9023438 L148.382812,46.9023438 C148.582031,46.2285156 149.144531,45.8007812 149.859375,45.8007812 C150.035156,45.8007812 150.1875,45.8300781 150.269531,45.8417969 L150.269531,46.8320312 C150.1875,46.8027344 149.970703,46.7734375 149.724609,46.7734375 C148.933594,46.7734375 148.417969,47.3417969 148.417969,48.203125 L148.417969,52 L147.398438,52 Z"/>
  </g>
</svg>
