<svg xmlns="http://www.w3.org/2000/svg" xmlns:xlink="http://www.w3.org/1999/xlink" width="296" height="48" viewBox="0 0 296 48">
  <defs>
    <path id="notification-a" d="M10.2555408,-4.14336123e-16 L285.744459,4.14336123e-16 C289.310534,-2.4074122e-16 290.603679,0.371302445 291.907383,1.06853082 C293.211087,1.76575919 294.234241,2.78891348 294.931469,4.09261719 C295.628698,5.39632089 296,6.68946584 296,10.2555408 L296,37.7444592 C296,41.3105342 295.628698,42.6036791 294.931469,43.9073828 C294.234241,45.2110865 293.211087,46.2342408 291.907383,46.9314692 C290.603679,47.6286976 289.310534,48 285.744459,48 L10.2555408,48 C6.68946584,48 5.39632089,47.6286976 4.09261719,46.9314692 C2.78891348,46.2342408 1.76575919,45.2110865 1.06853082,43.9073828 C0.371302445,42.6036791 1.60494146e-16,41.3105342 -2.76224082e-16,37.7444592 L2.76224082e-16,10.2555408 C-1.60494146e-16,6.68946584 0.371302445,5.39632089 1.06853082,4.09261719 C1.76575919,2.78891348 2.78891348,1.76575919 4.09261719,1.06853082 C5.39632089,0.371302445 6.68946584,2.4074122e-16 10.2555408,-4.14336123e-16 Z"/>
  </defs>
  <g fill="none" fill-rule="evenodd">
    <mask id="notification-b" fill="#fff">
      <use xlink:href="#notification-a"/>
    </mask>
    <path fill="#FFF" d="M10.2555408,-4.14336123e-16 L285.744459,4.14336123e-16 C289.310534,-2.4074122e-16 290.603679,0.371302445 291.907383,1.06853082 C293.211087,1.76575919 294.234241,2.78891348 294.931469,4.09261719 C295.628698,5.39632089 296,6.68946584 296,10.2555408 L296,37.7444592 C296,41.3105342 295.628698,42.6036791 294.931469,43.9073828 C294.234241,45.2110865 293.211087,46.2342408 291.907383,46.9314692 C290.603679,47.6286976 289.310534,48 285.744459,48 L10.2555408,48 C6.68946584,48 5.39632089,47.6286976 4.09261719,46.9314692 C2.78891348,46.2342408 1.76575919,45.2110865 1.06853082,43.9073828 C0.371302445,42.6036791 1.60494146e-16,41.3105342 -2.76224082e-16,37.7444592 L2.76224082e-16,10.2555408 C-1.60494146e-16,6.68946584 0.371302445,5.39632089 1.06853082,4.09261719 C1.76575919,2.78891348 2.78891348,1.76575919 4.09261719,1.06853082 C5.39632089,0.371302445 6.68946584,2.4074122e-16 10.2555408,-4.14336123e-16 Z" mask="url(#notification-b)"/>
    <path d="M10.2555408,-4.14336123e-16 L285.744459,4.14336123e-16 C289.310534,-2.4074122e-16 290.603679,0.371302445 291.907383,1.06853082 C293.211087,1.76575919 294.234241,2.78891348 294.931469,4.09261719 C295.628698,5.39632089 296,6.68946584 296,10.2555408 L296,37.7444592 C296,41.3105342 295.628698,42.6036791 294.931469,43.9073828 C294.234241,45.2110865 293.211087,46.2342408 291.907383,46.9314692 C290.603679,47.6286976 289.310534,48 285.744459,48 L10.2555408,48 C6.68946584,48 5.39632089,47.6286976 4.09261719,46.9314692 C2.78891348,46.2342408 1.76575919,45.2110865 1.06853082,43.9073828 C0.371302445,42.6036791 1.60494146e-16,41.3105342 -2.76224082e-16,37.7444592 L2.76224082e-16,10.2555408 C-1.60494146e-16,6.68946584 0.371302445,5.39632089 1.06853082,4.09261719 C1.76575919,2.78891348 2.78891348,1.76575919 4.09261719,1.06853082 C5.39632089,0.371302445 6.68946584,2.4074122e-16 10.2555408,-4.14336123e-16 Z" mask="url(#notification-b)"/>
    <path fill="#000" d="M11.1785113,10 L14.7559223,13.577411 C15.0813592,13.9028479 15.0813592,14.4304854 14.7559223,14.7559223 C14.4304854,15.0813592 13.9028479,15.0813592 13.577411,14.7559223 L10,11.1785113 L6.42258898,14.7559223 C6.09715207,15.0813592 5.56951459,15.0813592 5.24407768,14.7559223 C4.91864077,14.4304854 4.91864077,13.9028479 5.24407768,13.577411 L8.8214887,10 L5.24407768,6.42258898 C4.91864077,6.09715207 4.91864077,5.56951459 5.24407768,5.24407768 C5.56951459,4.91864077 6.09715207,4.91864077 6.42258898,5.24407768 L10,8.8214887 L13.577411,5.24407768 C13.9028479,4.91864077 14.4304854,4.91864077 14.7559223,5.24407768 C15.0813592,5.56951459 15.0813592,6.09715207 14.7559223,6.42258898 L11.1785113,10 Z" transform="translate(260 14)"/>
    <path fill="#505256" fill-rule="nonzero" d="M50.3994141,29 L48.9091797,29 L48.9091797,19.1357422 L50.296875,19.1357422 L55.4101562,26.4091797 L55.4648438,26.4091797 L55.4648438,19.1357422 L56.9550781,19.1357422 L56.9550781,29 L55.5742188,29 L50.4609375,21.7333984 L50.3994141,21.7333984 L50.3994141,29 Z M61.6855469,29.1367188 C59.6279297,29.1367188 58.2744141,27.7216797 58.2744141,25.4042969 C58.2744141,23.09375 59.6347656,21.6787109 61.6855469,21.6787109 C63.7363281,21.6787109 65.0966797,23.09375 65.0966797,25.4042969 C65.0966797,27.7216797 63.7431641,29.1367188 61.6855469,29.1367188 Z M61.6855469,27.9199219 C62.8476562,27.9199219 63.5927734,27.0039062 63.5927734,25.4042969 C63.5927734,23.8115234 62.8408203,22.8955078 61.6855469,22.8955078 C60.5302734,22.8955078 59.7783203,23.8115234 59.7783203,25.4042969 C59.7783203,27.0039062 60.5302734,27.9199219 61.6855469,27.9199219 Z M66.6689453,20.1064453 L68.1523438,20.1064453 L68.1523438,21.8085938 L69.5195312,21.8085938 L69.5195312,22.9775391 L68.1523438,22.9775391 L68.1523438,26.9423828 C68.1523438,27.5644531 68.4257812,27.8447266 69.0273438,27.8447266 C69.1777344,27.8447266 69.4169922,27.8310547 69.5126953,27.8105469 L69.5126953,28.9794922 C69.3486328,29.0205078 69.0205078,29.0478516 68.6923828,29.0478516 C67.2363281,29.0478516 66.6689453,28.4941406 66.6689453,27.1064453 L66.6689453,22.9775391 L65.6230469,22.9775391 L65.6230469,21.8085938 L66.6689453,21.8085938 L66.6689453,20.1064453 Z M70.7773438,29 L70.7773438,21.8085938 L72.2539062,21.8085938 L72.2539062,29 L70.7773438,29 Z M71.515625,20.6464844 C71.0439453,20.6464844 70.6611328,20.2636719 70.6611328,19.7988281 C70.6611328,19.3271484 71.0439453,18.9511719 71.515625,18.9511719 C71.9873047,18.9511719 72.3632812,19.3271484 72.3632812,19.7988281 C72.3632812,20.2636719 71.9873047,20.6464844 71.515625,20.6464844 Z M74.1953125,29 L74.1953125,22.9775391 L73.2041016,22.9775391 L73.2041016,21.8222656 L74.1953125,21.8222656 L74.1953125,21.1181641 C74.1953125,19.7236328 74.8515625,19.0673828 76.3144531,19.0673828 C76.6152344,19.0673828 76.9501953,19.1015625 77.1416016,19.1357422 L77.1416016,20.2294922 C76.9980469,20.2021484 76.7998047,20.1884766 76.6015625,20.1884766 C75.9589844,20.1884766 75.6582031,20.5097656 75.6582031,21.1455078 L75.6582031,21.8222656 L77.1142578,21.8222656 L77.1142578,22.9775391 L75.6787109,22.9775391 L75.6787109,29 L74.1953125,29 Z M78.3242188,29 L78.3242188,21.8085938 L79.8007812,21.8085938 L79.8007812,29 L78.3242188,29 Z M79.0625,20.6464844 C78.5908203,20.6464844 78.2080078,20.2636719 78.2080078,19.7988281 C78.2080078,19.3271484 78.5908203,18.9511719 79.0625,18.9511719 C79.5341797,18.9511719 79.9101562,19.3271484 79.9101562,19.7988281 C79.9101562,20.2636719 79.5341797,20.6464844 79.0625,20.6464844 Z M87.484375,24.2832031 L86.0761719,24.2832031 C85.9257812,23.5175781 85.3515625,22.9091797 84.3876953,22.9091797 C83.2460938,22.9091797 82.4941406,23.859375 82.4941406,25.4042969 C82.4941406,26.9833984 83.2529297,27.8994141 84.4013672,27.8994141 C85.3105469,27.8994141 85.9052734,27.4003906 86.0761719,26.5664062 L87.4980469,26.5664062 C87.3408203,28.0976562 86.1171875,29.1367188 84.3876953,29.1367188 C82.3300781,29.1367188 80.9902344,27.7285156 80.9902344,25.4042969 C80.9902344,23.1210938 82.3300781,21.6787109 84.3740234,21.6787109 C86.2265625,21.6787109 87.3544922,22.8681641 87.484375,24.2832031 Z M91.0595703,27.9541016 C92.0917969,27.9541016 92.8984375,27.2431641 92.8984375,26.3066406 L92.8984375,25.7392578 L91.1279297,25.8486328 C90.2460938,25.9101562 89.7470703,26.2998047 89.7470703,26.9150391 C89.7470703,27.5439453 90.2666016,27.9541016 91.0595703,27.9541016 Z M90.6494141,29.1230469 C89.2412109,29.1230469 88.2568359,28.2480469 88.2568359,26.9560547 C88.2568359,25.6982422 89.2207031,24.9257812 90.9296875,24.8300781 L92.8984375,24.7138672 L92.8984375,24.1601562 C92.8984375,23.3603516 92.3583984,22.8818359 91.4560547,22.8818359 C90.6015625,22.8818359 90.0683594,23.2919922 89.9384766,23.9345703 L88.5439453,23.9345703 C88.6259766,22.6357422 89.7333984,21.6787109 91.5107422,21.6787109 C93.2539062,21.6787109 94.3681641,22.6015625 94.3681641,24.0439453 L94.3681641,29 L92.953125,29 L92.953125,27.8173828 L92.9189453,27.8173828 C92.5019531,28.6171875 91.5927734,29.1230469 90.6494141,29.1230469 Z M96.2275391,20.1064453 L97.7109375,20.1064453 L97.7109375,21.8085938 L99.078125,21.8085938 L99.078125,22.9775391 L97.7109375,22.9775391 L97.7109375,26.9423828 C97.7109375,27.5644531 97.984375,27.8447266 98.5859375,27.8447266 C98.7363281,27.8447266 98.9755859,27.8310547 99.0712891,27.8105469 L99.0712891,28.9794922 C98.9072266,29.0205078 98.5791016,29.0478516 98.2509766,29.0478516 C96.7949219,29.0478516 96.2275391,28.4941406 96.2275391,27.1064453 L96.2275391,22.9775391 L95.1816406,22.9775391 L95.1816406,21.8085938 L96.2275391,21.8085938 L96.2275391,20.1064453 Z M100.335938,29 L100.335938,21.8085938 L101.8125,21.8085938 L101.8125,29 L100.335938,29 Z M101.074219,20.6464844 C100.602539,20.6464844 100.219727,20.2636719 100.219727,19.7988281 C100.219727,19.3271484 100.602539,18.9511719 101.074219,18.9511719 C101.545898,18.9511719 101.921875,19.3271484 101.921875,19.7988281 C101.921875,20.2636719 101.545898,20.6464844 101.074219,20.6464844 Z M106.413086,29.1367188 C104.355469,29.1367188 103.001953,27.7216797 103.001953,25.4042969 C103.001953,23.09375 104.362305,21.6787109 106.413086,21.6787109 C108.463867,21.6787109 109.824219,23.09375 109.824219,25.4042969 C109.824219,27.7216797 108.470703,29.1367188 106.413086,29.1367188 Z M106.413086,27.9199219 C107.575195,27.9199219 108.320312,27.0039062 108.320312,25.4042969 C108.320312,23.8115234 107.568359,22.8955078 106.413086,22.8955078 C105.257812,22.8955078 104.505859,23.8115234 104.505859,25.4042969 C104.505859,27.0039062 105.257812,27.9199219 106.413086,27.9199219 Z M110.96582,29 L110.96582,21.8085938 L112.374023,21.8085938 L112.374023,23.0117188 L112.408203,23.0117188 C112.797852,22.1914062 113.563477,21.6855469 114.670898,21.6855469 C116.256836,21.6855469 117.166016,22.6972656 117.166016,24.3447266 L117.166016,29 L115.682617,29 L115.682617,24.6318359 C115.682617,23.5517578 115.176758,22.9570312 114.151367,22.9570312 C113.112305,22.9570312 112.442383,23.6953125 112.442383,24.8095703 L112.442383,29 L110.96582,29 Z M121.424805,29 L121.424805,21.8085938 L122.833008,21.8085938 L122.833008,23.0185547 L122.867188,23.0185547 C123.188477,22.21875 123.94043,21.6855469 124.911133,21.6855469 C125.90918,21.6855469 126.633789,22.1982422 126.920898,23.09375 L126.955078,23.09375 C127.324219,22.21875 128.171875,21.6855469 129.197266,21.6855469 C130.619141,21.6855469 131.548828,22.6289062 131.548828,24.0576172 L131.548828,29 L130.06543,29 L130.06543,24.4130859 C130.06543,23.4833984 129.566406,22.9501953 128.691406,22.9501953 C127.816406,22.9501953 127.208008,23.5996094 127.208008,24.5087891 L127.208008,29 L125.758789,29 L125.758789,24.3037109 C125.758789,23.4765625 125.232422,22.9501953 124.398438,22.9501953 C123.523438,22.9501953 122.901367,23.6337891 122.901367,24.5566406 L122.901367,29 L121.424805,29 Z M135.978516,22.8681641 C134.946289,22.8681641 134.22168,23.6542969 134.146484,24.7412109 L137.742188,24.7412109 C137.708008,23.640625 137.010742,22.8681641 135.978516,22.8681641 Z M137.735352,26.8876953 L139.136719,26.8876953 C138.931641,28.2001953 137.6875,29.1367188 136.040039,29.1367188 C133.927734,29.1367188 132.649414,27.7080078 132.649414,25.4384766 C132.649414,23.1826172 133.948242,21.6787109 135.978516,21.6787109 C137.974609,21.6787109 139.21875,23.0869141 139.21875,25.2675781 L139.21875,25.7734375 L134.139648,25.7734375 L134.139648,25.8623047 C134.139648,27.1132812 134.891602,27.9404297 136.074219,27.9404297 C136.915039,27.9404297 137.537109,27.5166016 137.735352,26.8876953 Z M140.230469,23.8457031 C140.230469,22.5605469 141.351562,21.6787109 143.005859,21.6787109 C144.680664,21.6787109 145.767578,22.6083984 145.81543,23.9345703 L144.427734,23.9345703 C144.345703,23.2373047 143.833008,22.7998047 143.005859,22.7998047 C142.206055,22.7998047 141.672852,23.1894531 141.672852,23.7636719 C141.672852,24.2148438 142.000977,24.5224609 142.780273,24.7001953 L143.949219,24.9667969 C145.418945,25.3085938 145.979492,25.8828125 145.979492,26.921875 C145.979492,28.234375 144.755859,29.1367188 143.060547,29.1367188 C141.262695,29.1367188 140.182617,28.2548828 140.045898,26.8876953 L141.508789,26.8876953 C141.645508,27.6396484 142.158203,28.0087891 143.060547,28.0087891 C143.949219,28.0087891 144.496094,27.6396484 144.496094,27.0517578 C144.496094,26.5869141 144.229492,26.3134766 143.443359,26.1357422 L142.274414,25.8623047 C140.907227,25.5478516 140.230469,24.8916016 140.230469,23.8457031 Z M146.991211,23.8457031 C146.991211,22.5605469 148.112305,21.6787109 149.766602,21.6787109 C151.441406,21.6787109 152.52832,22.6083984 152.576172,23.9345703 L151.188477,23.9345703 C151.106445,23.2373047 150.59375,22.7998047 149.766602,22.7998047 C148.966797,22.7998047 148.433594,23.1894531 148.433594,23.7636719 C148.433594,24.2148438 148.761719,24.5224609 149.541016,24.7001953 L150.709961,24.9667969 C152.179688,25.3085938 152.740234,25.8828125 152.740234,26.921875 C152.740234,28.234375 151.516602,29.1367188 149.821289,29.1367188 C148.023438,29.1367188 146.943359,28.2548828 146.806641,26.8876953 L148.269531,26.8876953 C148.40625,27.6396484 148.918945,28.0087891 149.821289,28.0087891 C150.709961,28.0087891 151.256836,27.6396484 151.256836,27.0517578 C151.256836,26.5869141 150.990234,26.3134766 150.204102,26.1357422 L149.035156,25.8623047 C147.667969,25.5478516 146.991211,24.8916016 146.991211,23.8457031 Z M156.397461,27.9541016 C157.429688,27.9541016 158.236328,27.2431641 158.236328,26.3066406 L158.236328,25.7392578 L156.46582,25.8486328 C155.583984,25.9101562 155.084961,26.2998047 155.084961,26.9150391 C155.084961,27.5439453 155.604492,27.9541016 156.397461,27.9541016 Z M155.987305,29.1230469 C154.579102,29.1230469 153.594727,28.2480469 153.594727,26.9560547 C153.594727,25.6982422 154.558594,24.9257812 156.267578,24.8300781 L158.236328,24.7138672 L158.236328,24.1601562 C158.236328,23.3603516 157.696289,22.8818359 156.793945,22.8818359 C155.939453,22.8818359 155.40625,23.2919922 155.276367,23.9345703 L153.881836,23.9345703 C153.963867,22.6357422 155.071289,21.6787109 156.848633,21.6787109 C158.591797,21.6787109 159.706055,22.6015625 159.706055,24.0439453 L159.706055,29 L158.291016,29 L158.291016,27.8173828 L158.256836,27.8173828 C157.839844,28.6171875 156.930664,29.1230469 155.987305,29.1230469 Z M164.197266,27.8037109 C165.352539,27.8037109 166.111328,26.8671875 166.111328,25.3837891 C166.111328,23.9072266 165.352539,22.9365234 164.197266,22.9365234 C163.0625,22.9365234 162.324219,23.8867188 162.324219,25.3837891 C162.324219,26.8876953 163.0625,27.8037109 164.197266,27.8037109 Z M164.210938,31.7070312 C162.515625,31.7070312 161.257812,30.8046875 161.073242,29.5605469 L162.556641,29.5605469 C162.768555,30.1621094 163.424805,30.5585938 164.265625,30.5585938 C165.420898,30.5585938 166.104492,29.9023438 166.104492,28.9179688 L166.104492,27.7353516 L166.077148,27.7353516 C165.673828,28.5146484 164.826172,29.0273438 163.800781,29.0273438 C161.996094,29.0273438 160.813477,27.6191406 160.813477,25.3769531 C160.813477,23.1142578 161.989258,21.6923828 163.834961,21.6923828 C164.853516,21.6923828 165.6875,22.2050781 166.125,23.0390625 L166.152344,23.0390625 L166.152344,21.8085938 L167.587891,21.8085938 L167.587891,28.8701172 C167.587891,30.5859375 166.261719,31.7070312 164.210938,31.7070312 Z M172.051758,22.8681641 C171.019531,22.8681641 170.294922,23.6542969 170.219727,24.7412109 L173.81543,24.7412109 C173.78125,23.640625 173.083984,22.8681641 172.051758,22.8681641 Z M173.808594,26.8876953 L175.209961,26.8876953 C175.004883,28.2001953 173.760742,29.1367188 172.113281,29.1367188 C170.000977,29.1367188 168.722656,27.7080078 168.722656,25.4384766 C168.722656,23.1826172 170.021484,21.6787109 172.051758,21.6787109 C174.047852,21.6787109 175.291992,23.0869141 175.291992,25.2675781 L175.291992,25.7734375 L170.212891,25.7734375 L170.212891,25.8623047 C170.212891,27.1132812 170.964844,27.9404297 172.147461,27.9404297 C172.988281,27.9404297 173.610352,27.5166016 173.808594,26.8876953 Z"/>
    <path fill="#F7AF22" d="M11.7557911,3.21895043 L18.3867068,15.3756291 C18.9156322,16.3453257 18.5583166,17.560199 17.5886199,18.0891245 C17.2948427,18.2493666 16.9655536,18.3333333 16.6309156,18.3333333 L3.36908438,18.3333333 C2.26451488,18.3333333 1.36908438,17.4379028 1.36908438,16.3333333 C1.36908438,15.9986954 1.45305112,15.6694063 1.61329323,15.3756291 L8.24420885,3.21895043 C8.77313431,2.24925376 9.98800759,1.89193809 10.9577043,2.42086355 C11.2948373,2.6047543 11.5719004,2.8818174 11.7557911,3.21895043 Z M10.0793651,13.75 C9.61912779,13.75 9.24603175,14.123096 9.24603175,14.5833333 C9.24603175,15.0435706 9.61912779,15.4166667 10.0793651,15.4166667 C10.5396024,15.4166667 10.9126984,15.0435706 10.9126984,14.5833333 C10.9126984,14.123096 10.5396024,13.75 10.0793651,13.75 Z M10.0793651,7.5 C9.61912779,7.5 9.24603175,7.87309604 9.24603175,8.33333333 L9.24603175,11.6666667 C9.24603175,12.126904 9.61912779,12.5 10.0793651,12.5 C10.5396024,12.5 10.9126984,12.126904 10.9126984,11.6666667 L10.9126984,8.33333333 C10.9126984,7.87309604 10.5396024,7.5 10.0793651,7.5 Z" transform="translate(16 14)"/>
  </g>
</svg>
