<svg xmlns="http://www.w3.org/2000/svg" xmlns:xlink="http://www.w3.org/1999/xlink" width="288" height="88" viewBox="0 0 288 88">
  <defs>
    <path id="upload-a" d="M10.2555408,-4.14336123e-16 L277.744459,4.14336123e-16 C281.310534,-2.4074122e-16 282.603679,0.371302445 283.907383,1.06853082 C285.211087,1.76575919 286.234241,2.78891348 286.931469,4.09261719 C287.628698,5.39632089 288,6.68946584 288,10.2555408 L288,77.7444592 C288,81.3105342 287.628698,82.6036791 286.931469,83.9073828 C286.234241,85.2110865 285.211087,86.2342408 283.907383,86.9314692 C282.603679,87.6286976 281.310534,88 277.744459,88 L10.2555408,88 C6.68946584,88 5.39632089,87.6286976 4.09261719,86.9314692 C2.78891348,86.2342408 1.76575919,85.2110865 1.06853082,83.9073828 C0.371302445,82.6036791 1.60494146e-16,81.3105342 -2.76224082e-16,77.7444592 L2.76224082e-16,10.2555408 C-1.60494146e-16,6.68946584 0.371302445,5.39632089 1.06853082,4.09261719 C1.76575919,2.78891348 2.78891348,1.76575919 4.09261719,1.06853082 C5.39632089,0.371302445 6.68946584,2.4074122e-16 10.2555408,-4.14336123e-16 Z"/>
    <path id="upload-c" d="M10.2555408,-4.14336123e-16 L229.744459,4.14336123e-16 C233.310534,-2.4074122e-16 234.603679,0.371302445 235.907383,1.06853082 C237.211087,1.76575919 238.234241,2.78891348 238.931469,4.09261719 C239.628698,5.39632089 240,6.68946584 240,10.2555408 L240,29.7444592 C240,33.3105342 239.628698,34.6036791 238.931469,35.9073828 C238.234241,37.2110865 237.211087,38.2342408 235.907383,38.9314692 C234.603679,39.6286976 233.310534,40 229.744459,40 L10.2555408,40 C6.68946584,40 5.39632089,39.6286976 4.09261719,38.9314692 C2.78891348,38.2342408 1.76575919,37.2110865 1.06853082,35.9073828 C0.371302445,34.6036791 1.60494146e-16,33.3105342 -2.76224082e-16,29.7444592 L2.76224082e-16,10.2555408 C-1.60494146e-16,6.68946584 0.371302445,5.39632089 1.06853082,4.09261719 C1.76575919,2.78891348 2.78891348,1.76575919 4.09261719,1.06853082 C5.39632089,0.371302445 6.68946584,2.4074122e-16 10.2555408,-4.14336123e-16 Z"/>
  </defs>
  <g fill="none" fill-rule="evenodd">
    <mask id="upload-b" fill="#fff">
      <use xlink:href="#upload-a"/>
    </mask>
    <use fill="#FFF" xlink:href="#upload-a"/>
    <path d="M10.2555408,-4.14336123e-16 L277.744459,4.14336123e-16 C281.310534,-2.4074122e-16 282.603679,0.371302445 283.907383,1.06853082 C285.211087,1.76575919 286.234241,2.78891348 286.931469,4.09261719 C287.628698,5.39632089 288,6.68946584 288,10.2555408 L288,77.7444592 C288,81.3105342 287.628698,82.6036791 286.931469,83.9073828 C286.234241,85.2110865 285.211087,86.2342408 283.907383,86.9314692 C282.603679,87.6286976 281.310534,88 277.744459,88 L10.2555408,88 C6.68946584,88 5.39632089,87.6286976 4.09261719,86.9314692 C2.78891348,86.2342408 1.76575919,85.2110865 1.06853082,83.9073828 C0.371302445,82.6036791 1.60494146e-16,81.3105342 -2.76224082e-16,77.7444592 L2.76224082e-16,10.2555408 C-1.60494146e-16,6.68946584 0.371302445,5.39632089 1.06853082,4.09261719 C1.76575919,2.78891348 2.78891348,1.76575919 4.09261719,1.06853082 C5.39632089,0.371302445 6.68946584,2.4074122e-16 10.2555408,-4.14336123e-16 Z" mask="url(#upload-b)"/>
    <path d="M10.2555408,-4.14336123e-16 L277.744459,4.14336123e-16 C281.310534,-2.4074122e-16 282.603679,0.371302445 283.907383,1.06853082 C285.211087,1.76575919 286.234241,2.78891348 286.931469,4.09261719 C287.628698,5.39632089 288,6.68946584 288,10.2555408 L288,77.7444592 C288,81.3105342 287.628698,82.6036791 286.931469,83.9073828 C286.234241,85.2110865 285.211087,86.2342408 283.907383,86.9314692 C282.603679,87.6286976 281.310534,88 277.744459,88 L10.2555408,88 C6.68946584,88 5.39632089,87.6286976 4.09261719,86.9314692 C2.78891348,86.2342408 1.76575919,85.2110865 1.06853082,83.9073828 C0.371302445,82.6036791 1.60494146e-16,81.3105342 -2.76224082e-16,77.7444592 L2.76224082e-16,10.2555408 C-1.60494146e-16,6.68946584 0.371302445,5.39632089 1.06853082,4.09261719 C1.76575919,2.78891348 2.78891348,1.76575919 4.09261719,1.06853082 C5.39632089,0.371302445 6.68946584,2.4074122e-16 10.2555408,-4.14336123e-16 Z" mask="url(#upload-b)"/>
    <g transform="translate(24 24)">
      <mask id="upload-d" fill="#fff">
        <use xlink:href="#upload-c"/>
      </mask>
      <use fill="#FEF7E6" xlink:href="#upload-c"/>
      <path d="M10.2555408,-4.14336123e-16 L229.744459,4.14336123e-16 C233.310534,-2.4074122e-16 234.603679,0.371302445 235.907383,1.06853082 C237.211087,1.76575919 238.234241,2.78891348 238.931469,4.09261719 C239.628698,5.39632089 240,6.68946584 240,10.2555408 L240,29.7444592 C240,33.3105342 239.628698,34.6036791 238.931469,35.9073828 C238.234241,37.2110865 237.211087,38.2342408 235.907383,38.9314692 C234.603679,39.6286976 233.310534,40 229.744459,40 L10.2555408,40 C6.68946584,40 5.39632089,39.6286976 4.09261719,38.9314692 C2.78891348,38.2342408 1.76575919,37.2110865 1.06853082,35.9073828 C0.371302445,34.6036791 1.60494146e-16,33.3105342 -2.76224082e-16,29.7444592 L2.76224082e-16,10.2555408 C-1.60494146e-16,6.68946584 0.371302445,5.39632089 1.06853082,4.09261719 C1.76575919,2.78891348 2.78891348,1.76575919 4.09261719,1.06853082 C5.39632089,0.371302445 6.68946584,2.4074122e-16 10.2555408,-4.14336123e-16 Z" mask="url(#upload-d)"/>
      <path d="M10.2555408,-4.14336123e-16 L229.744459,4.14336123e-16 C233.310534,-2.4074122e-16 234.603679,0.371302445 235.907383,1.06853082 C237.211087,1.76575919 238.234241,2.78891348 238.931469,4.09261719 C239.628698,5.39632089 240,6.68946584 240,10.2555408 L240,29.7444592 C240,33.3105342 239.628698,34.6036791 238.931469,35.9073828 C238.234241,37.2110865 237.211087,38.2342408 235.907383,38.9314692 C234.603679,39.6286976 233.310534,40 229.744459,40 L10.2555408,40 C6.68946584,40 5.39632089,39.6286976 4.09261719,38.9314692 C2.78891348,38.2342408 1.76575919,37.2110865 1.06853082,35.9073828 C0.371302445,34.6036791 1.60494146e-16,33.3105342 -2.76224082e-16,29.7444592 L2.76224082e-16,10.2555408 C-1.60494146e-16,6.68946584 0.371302445,5.39632089 1.06853082,4.09261719 C1.76575919,2.78891348 2.78891348,1.76575919 4.09261719,1.06853082 C5.39632089,0.371302445 6.68946584,2.4074122e-16 10.2555408,-4.14336123e-16 Z" mask="url(#upload-d)"/>
      <g fill="#F7AF22" transform="translate(23.04 8)">
        <path d="M9.16666667,4.51184464 L6.42258898,7.25592232 C6.09715207,7.58135923 5.56951459,7.58135923 5.24407768,7.25592232 C4.91864077,6.93048541 4.91864077,6.40284793 5.24407768,6.07741102 L9.41074435,1.91074435 C9.73618126,1.58530744 10.2638187,1.58530744 10.5892557,1.91074435 L14.7559223,6.07741102 C15.0813592,6.40284793 15.0813592,6.93048541 14.7559223,7.25592232 C14.4304854,7.58135923 13.9028479,7.58135923 13.577411,7.25592232 L10.8333333,4.51184464 L10.8333333,12.5 C10.8333333,12.9602373 10.4602373,13.3333333 10,13.3333333 C9.53976271,13.3333333 9.16666667,12.9602373 9.16666667,12.5 L9.16666667,4.51184464 Z M16.6666667,13.3333333 C16.6666667,12.873096 17.0397627,12.5 17.5,12.5 C17.9602373,12.5 18.3333333,12.873096 18.3333333,13.3333333 L18.3333333,16.25 C18.3333333,17.4005932 17.4005932,18.3333333 16.25,18.3333333 L3.75,18.3333333 C2.59940677,18.3333333 1.66666667,17.4005932 1.66666667,16.25 L1.66666667,13.3333333 C1.66666667,12.873096 2.03976271,12.5 2.5,12.5 C2.96023729,12.5 3.33333333,12.873096 3.33333333,13.3333333 L3.33333333,16.25 C3.33333333,16.4801186 3.51988135,16.6666667 3.75,16.6666667 L16.25,16.6666667 C16.4801186,16.6666667 16.6666667,16.4801186 16.6666667,16.25 L16.6666667,13.3333333 Z" transform="translate(0 2)"/>
        <path fill-rule="nonzero" d="M60.4554623,7.13574219 L60.4554623,13.4042969 C60.4554623,14.8125 61.3441342,15.8037109 62.9163998,15.8037109 C64.4886655,15.8037109 65.3841733,14.8125 65.3841733,13.4042969 L65.3841733,7.13574219 L66.9085873,7.13574219 L66.9085873,13.5341797 C66.9085873,15.6601562 65.3910092,17.1640625 62.9163998,17.1640625 C60.4417905,17.1640625 58.9242123,15.6601562 58.9242123,13.5341797 L58.9242123,7.13574219 L60.4554623,7.13574219 Z M72.2953061,9.69238281 C74.1205014,9.69238281 75.3236264,11.1279297 75.3236264,13.4042969 C75.3236264,15.6806641 74.1273373,17.1230469 72.3226498,17.1230469 C71.2904233,17.1230469 70.4701108,16.6171875 70.0599545,15.8173828 L70.0257748,15.8173828 L70.0257748,19.3789062 L68.5492123,19.3789062 L68.5492123,9.80859375 L69.9779233,9.80859375 L69.9779233,11.0458984 L70.005267,11.0458984 C70.4290951,10.21875 71.2562436,9.69238281 72.2953061,9.69238281 Z M71.9056576,15.8720703 C73.074603,15.8720703 73.8060483,14.9150391 73.8060483,13.4042969 C73.8060483,11.9003906 73.074603,10.9365234 71.9056576,10.9365234 C70.777728,10.9365234 70.0189389,11.9208984 70.0189389,13.4042969 C70.0189389,14.9013672 70.770892,15.8720703 71.9056576,15.8720703 Z M76.5130795,17 L76.5130795,7.13574219 L77.989642,7.13574219 L77.989642,17 L76.5130795,17 Z M82.5970639,17.1367188 C80.5394467,17.1367188 79.1859311,15.7216797 79.1859311,13.4042969 C79.1859311,11.09375 80.5462826,9.67871094 82.5970639,9.67871094 C84.6478451,9.67871094 86.0081967,11.09375 86.0081967,13.4042969 C86.0081967,15.7216797 84.6546811,17.1367188 82.5970639,17.1367188 Z M82.5970639,15.9199219 C83.7591733,15.9199219 84.5042905,15.0039062 84.5042905,13.4042969 C84.5042905,11.8115234 83.7523373,10.8955078 82.5970639,10.8955078 C81.4417905,10.8955078 80.6898373,11.8115234 80.6898373,13.4042969 C80.6898373,15.0039062 81.4417905,15.9199219 82.5970639,15.9199219 Z M89.6654233,15.9541016 C90.6976498,15.9541016 91.5042905,15.2431641 91.5042905,14.3066406 L91.5042905,13.7392578 L89.7337826,13.8486328 C88.8519467,13.9101562 88.3529233,14.2998047 88.3529233,14.9150391 C88.3529233,15.5439453 88.8724545,15.9541016 89.6654233,15.9541016 Z M89.255267,17.1230469 C87.8470639,17.1230469 86.8626889,16.2480469 86.8626889,14.9560547 C86.8626889,13.6982422 87.8265561,12.9257812 89.5355405,12.8300781 L91.5042905,12.7138672 L91.5042905,12.1601562 C91.5042905,11.3603516 90.9642514,10.8818359 90.0619076,10.8818359 C89.2074155,10.8818359 88.6742123,11.2919922 88.5443295,11.9345703 L87.1497983,11.9345703 C87.2318295,10.6357422 88.3392514,9.67871094 90.1165951,9.67871094 C91.8597592,9.67871094 92.974017,10.6015625 92.974017,12.0439453 L92.974017,17 L91.558978,17 L91.558978,15.8173828 L91.5247983,15.8173828 C91.1078061,16.6171875 90.1986264,17.1230469 89.255267,17.1230469 Z M97.1029233,17.1230469 C95.2845639,17.1230469 94.0814389,15.6738281 94.0814389,13.4042969 C94.0814389,11.1347656 95.2845639,9.69238281 97.0892514,9.69238281 C98.121478,9.69238281 98.9417905,10.2119141 99.3451108,11.0048828 L99.3724545,11.0048828 L99.3724545,7.13574219 L100.855853,7.13574219 L100.855853,17 L99.4203061,17 L99.4203061,15.7763672 L99.3929623,15.7763672 C98.9691342,16.5966797 98.1488217,17.1230469 97.1029233,17.1230469 Z M97.4925717,10.9365234 C96.3236264,10.9365234 95.5921811,11.8935547 95.5921811,13.4042969 C95.5921811,14.921875 96.3236264,15.8720703 97.4925717,15.8720703 C98.6273373,15.8720703 99.3861264,14.9082031 99.3861264,13.4042969 C99.3861264,11.9140625 98.6273373,10.9365234 97.4925717,10.9365234 Z M115.361712,17 L113.960345,17 L113.960345,9.74023438 L113.912494,9.74023438 L110.938861,17 L109.804095,17 L106.823626,9.74023438 L106.775775,9.74023438 L106.775775,17 L105.381244,17 L105.381244,7.13574219 L107.151751,7.13574219 L110.344134,14.9970703 L110.398822,14.9970703 L113.584369,7.13574219 L115.361712,7.13574219 L115.361712,17 Z M120.092181,17.1367188 C118.034564,17.1367188 116.681048,15.7216797 116.681048,13.4042969 C116.681048,11.09375 118.0414,9.67871094 120.092181,9.67871094 C122.142962,9.67871094 123.503314,11.09375 123.503314,13.4042969 C123.503314,15.7216797 122.149798,17.1367188 120.092181,17.1367188 Z M120.092181,15.9199219 C121.25429,15.9199219 121.999408,15.0039062 121.999408,13.4042969 C121.999408,11.8115234 121.247455,10.8955078 120.092181,10.8955078 C118.936908,10.8955078 118.184955,11.8115234 118.184955,13.4042969 C118.184955,15.0039062 118.936908,15.9199219 120.092181,15.9199219 Z M124.644915,17 L124.644915,9.80859375 L126.053119,9.80859375 L126.053119,11.0322266 L126.087298,11.0322266 C126.326556,10.1914062 126.969134,9.69238281 127.81679,9.69238281 C128.028705,9.69238281 128.213275,9.7265625 128.32265,9.74707031 L128.32265,11.1210938 C128.206439,11.0732422 127.946673,11.0390625 127.659564,11.0390625 C126.709369,11.0390625 126.121478,11.6748047 126.121478,12.6933594 L126.121478,17 L124.644915,17 Z M132.246478,10.8681641 C131.214251,10.8681641 130.489642,11.6542969 130.414447,12.7412109 L134.01015,12.7412109 C133.97597,11.640625 133.278705,10.8681641 132.246478,10.8681641 Z M134.003314,14.8876953 L135.404681,14.8876953 C135.199603,16.2001953 133.955462,17.1367188 132.308001,17.1367188 C130.195697,17.1367188 128.917376,15.7080078 128.917376,13.4384766 C128.917376,11.1826172 130.216205,9.67871094 132.246478,9.67871094 C134.242572,9.67871094 135.486712,11.0869141 135.486712,13.2675781 L135.486712,13.7734375 L130.407611,13.7734375 L130.407611,13.8623047 C130.407611,15.1132812 131.159564,15.9404297 132.342181,15.9404297 C133.183001,15.9404297 133.805072,15.5166016 134.003314,14.8876953 Z"/>
      </g>
    </g>
  </g>
</svg>
