<svg xmlns="http://www.w3.org/2000/svg" width="80" height="80" viewBox="0 0 80 80">
  <g fill="none" fill-rule="evenodd">
    <g transform="translate(21 18)">
      <path fill="#FF6B38" d="M11.9126731,9.219122 L31.547417,19.9091492 C33.4876336,20.9654894 34.2041571,23.3946787 33.1478169,25.3348953 C32.7795469,26.0113096 32.2238312,26.5670252 31.547417,26.9352952 L11.9126731,37.6253224 C9.97245644,38.6816626 7.54326719,37.9651392 6.48692702,36.0249225 C6.16740485,35.4380451 6,34.7804707 6,34.1122495 L6,12.732195 C6,10.523056 7.790861,8.73219498 10,8.73219498 C10.6682212,8.73219498 11.3257956,8.89959983 11.9126731,9.219122 Z"/>
      <path stroke="#000" stroke-linecap="round" stroke-linejoin="round" stroke-width="2" d="M2,33 C2.00896985,31.3676981 2.60536166,30.4465269 3.78917544,30.2364862 C5.56489611,29.9214252 6.85871786,32.7429078 8.56661616,32.4475351 C10.2745145,32.1521625 10.425761,28.577255 11.6732439,28.0951204 C12.5048991,27.7736973 13.9471512,28.2668693 16,29.5746365"/>
      <circle cx="9" cy="9" r="8" stroke="#000" stroke-width="2"/>
    </g>
  </g>
</svg>
