<svg xmlns="http://www.w3.org/2000/svg" xmlns:xlink="http://www.w3.org/1999/xlink" width="80" height="80" viewBox="0 0 80 80">
  <defs>
    <circle id="group-6-a" cx="20" cy="20" r="20"/>
    <rect id="group-6-c" width="29" height="29" x="0" y="0" rx="10"/>
  </defs>
  <g fill="none" fill-rule="evenodd">
    <rect width="80" height="80" fill="#FFF"/>
    <g transform="translate(14 20)">
      <mask id="group-6-b" fill="#fff">
        <use xlink:href="#group-6-a"/>
      </mask>
      <polygon fill="#FFC148" points="-112 -84 121 -84 121 86 -112 86" mask="url(#group-6-b)"/>
    </g>
    <path stroke="#000" stroke-width="2" d="M56.9555596,14.2896454 C56.6623133,14.1301571 56.3338111,14.0466046 56,14.0466046 C54.8954305,14.0466046 54,14.9420351 54,16.0466046 L54,26.9533954 C54,27.2872065 54.0835525,27.6157087 54.2430407,27.908955 C54.7707817,28.8792968 55.9852178,29.2380956 56.9555596,28.7103546 L66.982557,23.2569593 C67.3213743,23.0726862 67.5996836,22.794377 67.7839566,22.4555596 C68.3116976,21.4852178 67.9528988,20.2707817 66.982557,19.7430407 L56.9555596,14.2896454 Z"/>
    <g transform="translate(40 40)">
      <mask id="group-6-d" fill="#fff">
        <use xlink:href="#group-6-c"/>
      </mask>
      <use fill="#FFF" fill-opacity="0" xlink:href="#group-6-c"/>
      <g stroke="#000" stroke-linecap="square" stroke-width="2" mask="url(#group-6-d)">
        <path d="M5.90769244 52.7229098L66.5390259 113.354243M9.75551852 48.2337794L70.386852 108.865113M14.8859533 43.1033446L75.5172868 103.734678M19.3750837 38.6142142L80.0064172 99.2455476M24.5055185 33.4837794L85.136852 94.1151128M25.6359533 29.6359533L86.2672868 90.2672868M30.0131912 24.5055185L90.6445246 85.136852M35.1436259 19.3750837L95.7749594 80.0064172M41.9464819 14.8859533L102.577815 75.5172868M48.2337794 9.75551852L108.865113 70.386852M53.8797726 5.90769244L114.511106 66.5390259M57.2120403.777257655L117.843374 61.4085911M.777257655 57.2120403L61.4085911 117.843374" transform="translate(-58 -31)"/>
      </g>
    </g>
  </g>
</svg>
