<svg xmlns="http://www.w3.org/2000/svg" xmlns:xlink="http://www.w3.org/1999/xlink" width="80" height="80" viewBox="0 0 80 80">
  <defs>
    <rect id="components-a" width="16" height="17" x="0" y="0"/>
  </defs>
  <g fill="none" fill-rule="evenodd">
    <g transform="translate(20 14)">
      <circle cx="16" cy="28" r="16" fill="#FFC148"/>
      <path stroke="#000" stroke-width="2" d="M24.9555596,3.28964537 C24.6623133,3.13015715 24.3338111,3.04660463 24,3.04660463 C22.8954305,3.04660463 22,3.94203513 22,5.04660463 L22,14.9533954 C22,15.2872065 22.0835525,15.6157087 22.2430407,15.908955 C22.7707817,16.8792968 23.9852178,17.2380956 24.9555596,16.7103546 L34.0632217,11.7569593 C34.4020391,11.5726862 34.6803484,11.294377 34.8646214,10.9555596 C35.3923624,9.98521778 35.0335635,8.77078172 34.0632217,8.24304073 L24.9555596,3.28964537 Z"/>
      <g transform="translate(22 32)">
        <mask id="components-b" fill="#fff">
          <use xlink:href="#components-a"/>
        </mask>
        <use fill="#FFF" fill-opacity="0" xlink:href="#components-a"/>
        <path stroke="#000" stroke-linecap="square" stroke-width="2" d="M-15.5579909.874758116L17.6574352 34.6780679M-12.7474049-3.98557278L20.4680212 29.817737M-9.02062298-8.48836232L24.1948032 25.3149475M-5.57627738-13.3486932L27.6391488 20.4546166M-1.48325502-17.4939414L31.7321711 16.3093684" mask="url(#components-b)"/>
      </g>
    </g>
  </g>
</svg>
