<svg xmlns="http://www.w3.org/2000/svg" width="43" height="39" viewBox="0 0 43 39">
  <path d="M652.545381,1661.1609 C654.792996,1658.6237 658.075582,1657.02439 661.731707,1657.02439 C668.507298,1657.02439 674,1662.51709 674,1669.29268 C674,1672.94881 672.400686,1676.23139 669.863488,1678.47901 L669.896674,1678.5122 L652.512195,1695.89667 L635.127716,1678.5122 L635.143624,1678.49629 C632.602027,1676.24423 631,1672.95554 631,1669.29268 C631,1662.50362 636.503622,1657 643.292683,1657 C646.955543,1657 650.24423,1658.60203 652.496287,1661.14362 L652.512195,1661.12772 L652.545381,1661.1609 Z M651.308546,1662.81891 L650.999382,1662.47 C649.056134,1660.27692 646.279843,1659 643.292683,1659 C637.608191,1659 633,1663.60819 633,1669.29268 C633,1672.27984 634.276916,1675.05613 636.470001,1676.99938 L638.060048,1678.40829 L637.956143,1678.5122 L652.512195,1693.06825 L664.285678,1681.29476 C663.461849,1681.46921 662.607495,1681.56098 661.731707,1681.56098 C654.956116,1681.56098 649.463415,1676.06827 649.463415,1669.29268 C649.463415,1666.91644 650.138989,1664.69799 651.308546,1662.81891 Z M660.731707,1668.29268 L657.146341,1668.29268 L657.146341,1670.29268 L660.731707,1670.29268 L660.731707,1673.87805 L662.731707,1673.87805 L662.731707,1670.29268 L666.317073,1670.29268 L666.317073,1668.29268 L662.731707,1668.29268 L662.731707,1664.70732 L660.731707,1664.70732 L660.731707,1668.29268 Z" transform="translate(-631 -1657)"/>
</svg>
