<svg xmlns="http://www.w3.org/2000/svg" width="40" height="40" viewBox="0 0 40 40">
  <g fill="none" fill-rule="evenodd">
    <rect width="40" height="40" fill="#FFF"/>
    <path fill="#000" fill-rule="nonzero" d="M15.9790698,3.92048261 C17.7111967,1.9826454 20.2395969,0.761726079 23.054409,0.761726079 C28.2733467,0.761726079 32.5076923,4.95885574 32.5076923,10.1407129 C32.5076923,12.9250637 31.2851516,15.4251039 29.3442275,17.1424708 L16.1380863,29.9231679 L3.09654315,16.9962477 C1.24825244,15.2322999 -3.37507799e-13,12.8643782 -3.37507799e-13,10.1407129 C-3.37507799e-13,5.09243658 4.1287242,1 9.2217636,1 C11.8908702,1 14.2951288,2.12398298 15.9790698,3.92048261 Z M14.7886799,5.58591113 L14.6350766,5.41408315 C13.2714993,3.88872016 11.3220957,3 9.2217636,3 C5.22936071,3 2,6.20097766 2,10.1407129 C2,12.2096635 2.89230786,14.1326828 4.42828551,15.481719 L5.93753777,16.9962477 L16.1548218,27.1237313 L24.0669255,19.466521 C23.7342589,19.5016721 23.3964485,19.5196998 23.054409,19.5196998 C17.8354713,19.5196998 13.6011257,15.3225701 13.6011257,10.1407129 C13.6011257,8.48742862 14.0321587,6.93438412 14.7886799,5.58591113 Z M22.054409,9.14071295 L19.364728,9.14071295 L19.364728,11.1407129 L22.054409,11.1407129 L22.054409,13.8067542 L24.054409,13.8067542 L24.054409,11.1407129 L26.7440901,11.1407129 L26.7440901,9.14071295 L24.054409,9.14071295 L24.054409,6.47467167 L22.054409,6.47467167 L22.054409,9.14071295 Z" transform="translate(4 5)"/>
  </g>
</svg>
