<svg xmlns="http://www.w3.org/2000/svg" width="41" height="25" viewBox="0 0 41 25">
  <path d="M945.680664,1416 L943.854492,1410.18945 L935.4375,1410.18945 L933.611328,1416 L928.464844,1416 L936.782227,1392.04395 L942.675781,1392.04395 L951.009766,1416 L945.680664,1416 Z M939.587891,1396.62598 L936.516602,1406.4375 L942.775391,1406.4375 L939.704102,1396.62598 L939.587891,1396.62598 Z M959.908203,1412.7793 C962.016602,1412.7793 963.759766,1411.40137 963.759766,1409.47559 L963.759766,1408.18066 L960.007812,1408.41309 C958.198242,1408.5459 957.168945,1409.35938 957.168945,1410.62109 C957.168945,1411.94922 958.264648,1412.7793 959.908203,1412.7793 Z M958.314453,1416.28223 C954.927734,1416.28223 952.354492,1414.09082 952.354492,1410.88672 C952.354492,1407.64941 954.844727,1405.77344 959.277344,1405.50781 L963.759766,1405.24219 L963.759766,1404.06348 C963.759766,1402.40332 962.597656,1401.44043 960.771484,1401.44043 C958.961914,1401.44043 957.816406,1402.33691 957.583984,1403.64844 L953.151367,1403.64844 C953.333984,1400.19531 956.272461,1397.82129 960.987305,1397.82129 C965.552734,1397.82129 968.524414,1400.17871 968.524414,1403.76465 L968.524414,1416 L963.842773,1416 L963.842773,1413.27734 L963.743164,1413.27734 C962.74707,1415.16992 960.539062,1416.28223 958.314453,1416.28223 Z" transform="translate(-928 -1392)"/>
</svg>
