<svg xmlns="http://www.w3.org/2000/svg" width="40" height="40" viewBox="0 0 40 40">
  <g fill="none" fill-rule="evenodd">
    <rect width="40" height="40" fill="#FFF"/>
    <path fill="#000" fill-rule="nonzero" d="M17.0414422,29.9303771 L15.4459179,24.8537091 L8.09200166,24.8537091 L6.49647741,29.9303771 L2,29.9303771 L9.26688769,9 L14.4160796,9 L21.697472,29.9303771 L17.0414422,29.9303771 Z M11.7181931,13.0033154 L9.03481144,21.575632 L14.5031082,21.575632 L11.8197265,13.0033154 L11.7181931,13.0033154 Z M29.4720265,27.1164525 C31.3141318,27.1164525 32.8371322,25.912557 32.8371322,24.2300041 L32.8371322,23.0986324 L29.5590551,23.3016991 C27.9780356,23.4177373 27.0787402,24.1284708 27.0787402,25.230833 C27.0787402,26.3912143 28.0360547,27.1164525 29.4720265,27.1164525 Z M28.079569,30.1769581 C25.1205968,30.1769581 22.8723581,28.2623291 22.8723581,25.4629092 C22.8723581,22.6344799 25.0480729,20.9954414 28.9208454,20.7633651 L32.8371322,20.5312889 L32.8371322,19.5014505 C32.8371322,18.0509739 31.8217986,17.2096975 30.2262743,17.2096975 C28.6452549,17.2096975 27.644426,17.9929548 27.4413593,19.1388313 L23.5685868,19.1388313 C23.7281392,16.12184 26.2954828,14.0476585 30.4148363,14.0476585 C34.4036469,14.0476585 37,16.1073353 37,19.2403647 L37,29.9303771 L32.909656,29.9303771 L32.909656,27.5515955 L32.8226274,27.5515955 C31.9523415,29.2051388 30.0232076,30.1769581 28.079569,30.1769581 Z"/>
  </g>
</svg>
