<svg xmlns="http://www.w3.org/2000/svg" width="40" height="40" viewBox="0 0 40 40">
  <g fill="none" fill-rule="evenodd">
    <rect width="40" height="40" fill="#FFF"/>
    <g transform="translate(4 5)">
      <path fill="#000" fill-rule="nonzero" d="M6.07942449,24.5 L6.07942449,24 C6.07942449,22.3431458 7.42257024,21 9.07942449,21 C10.7362787,21 12.0794245,22.3431458 12.0794245,24 L12.0794245,24.5 L30.5081134,24.5 C31.0603981,24.5 31.5081134,24.9477153 31.5081134,25.5 C31.5081134,26.0522847 31.0603981,26.5 30.5081134,26.5 L12.0794245,26.5 L12.0794245,27 C12.0794245,28.6568542 10.7362787,30 9.07942449,30 C7.42257024,30 6.07942449,28.6568542 6.07942449,27 L6.07942449,26.5 L1.41666667,26.5 C0.864381917,26.5 0.416666667,26.0522847 0.416666667,25.5 C0.416666667,24.9477153 0.864381917,24.5 1.41666667,24.5 L6.07942449,24.5 L6.07942449,24.5 Z M19.4544245,14 L19.4544245,13.5 C19.4544245,11.8431458 20.7975702,10.5 22.4544245,10.5 C24.1112787,10.5 25.4544245,11.8431458 25.4544245,13.5 L25.4544245,14 L30.5081134,14 C31.0603981,14 31.5081134,14.4477153 31.5081134,15 C31.5081134,15.5522847 31.0603981,16 30.5081134,16 L25.4544245,16 L25.4544245,16.5 C25.4544245,18.1568542 24.1112787,19.5 22.4544245,19.5 C20.7975702,19.5 19.4544245,18.1568542 19.4544245,16.5 L19.4544245,16 L1.41666667,16 C0.864381917,16 0.416666667,15.5522847 0.416666667,15 C0.416666667,14.4477153 0.864381917,14 1.41666667,14 L19.4544245,14 Z M21.4544245,14 L23.4544245,14 L23.4544245,13.5 C23.4544245,12.9477153 23.0067092,12.5 22.4544245,12.5 C21.9021397,12.5 21.4544245,12.9477153 21.4544245,13.5 L21.4544245,14 Z M23.4544245,16 L21.4544245,16 L21.4544245,16.5 C21.4544245,17.0522847 21.9021397,17.5 22.4544245,17.5 C23.0067092,17.5 23.4544245,17.0522847 23.4544245,16.5 L23.4544245,16 Z M6.07942449,3.875 L6.07942449,3 C6.07942449,1.34314575 7.42257024,-8.8817842e-16 9.07942449,-8.8817842e-16 C10.7362787,-8.8817842e-16 12.0794245,1.34314575 12.0794245,3 L12.0794245,3.875 L30.5081134,3.875 C31.0603981,3.875 31.5081134,4.32271525 31.5081134,4.875 C31.5081134,5.42728475 31.0603981,5.875 30.5081134,5.875 L12.0794245,5.875 L12.0794245,6 C12.0794245,7.65685425 10.7362787,9 9.07942449,9 C7.42257024,9 6.07942449,7.65685425 6.07942449,6 L6.07942449,5.875 L1.41666667,5.875 C0.864381917,5.875 0.416666667,5.42728475 0.416666667,4.875 C0.416666667,4.32271525 0.864381917,3.875 1.41666667,3.875 L6.07942449,3.875 Z"/>
      <path fill="#FFF" d="M22.4544245,12.5 C23.0067092,12.5 23.4544245,12.9477153 23.4544245,13.5 L23.4544245,16.5 C23.4544245,17.0522847 23.0067092,17.5 22.4544245,17.5 C21.9021397,17.5 21.4544245,17.0522847 21.4544245,16.5 L21.4544245,13.5 C21.4544245,12.9477153 21.9021397,12.5 22.4544245,12.5 Z"/>
    </g>
  </g>
</svg>
