<svg xmlns="http://www.w3.org/2000/svg" width="42" height="40" viewBox="0 0 42 40">
  <path d="M7.77256599,33 L7.77256599,32 C7.77256599,29.790861 9.56342699,28 11.772566,28 C13.981705,28 15.772566,29.790861 15.772566,32 L15.772566,33 L40.3441512,33 C40.8964359,33 41.3441512,33.4477153 41.3441512,34 C41.3441512,34.5522847 40.8964359,35 40.3441512,35 L15.772566,35 L15.772566,36 C15.772566,38.209139 13.981705,40 11.772566,40 C9.56342699,40 7.77256599,38.209139 7.77256599,36 L7.77256599,35 L1.55555556,35 C1.00327081,35 0.555555556,34.5522847 0.555555556,34 C0.555555556,33.4477153 1.00327081,33 1.55555556,33 L7.77256599,33 Z M25.6058993,19 L25.6058993,18 C25.6058993,15.790861 27.3967603,14 29.6058993,14 C31.8150383,14 33.6058993,15.790861 33.6058993,18 L33.6058993,19 L40.3441512,19 C40.8964359,19 41.3441512,19.4477153 41.3441512,20 C41.3441512,20.5522847 40.8964359,21 40.3441512,21 L33.6058993,21 L33.6058993,22 C33.6058993,24.209139 31.8150383,26 29.6058993,26 C27.3967603,26 25.6058993,24.209139 25.6058993,22 L25.6058993,21 L1.55555556,21 C1.00327081,21 0.555555556,20.5522847 0.555555556,20 C0.555555556,19.4477153 1.00327081,19 1.55555556,19 L25.6058993,19 Z M7.77256599,5.5 L7.77256599,4 C7.77256599,1.790861 9.56342699,4.05812251e-16 11.772566,0 C13.981705,-4.05812251e-16 15.772566,1.790861 15.772566,4 L15.772566,5.5 L40.3441512,5.5 C40.8964359,5.5 41.3441512,5.94771525 41.3441512,6.5 C41.3441512,7.05228475 40.8964359,7.5 40.3441512,7.5 L15.772566,7.5 L15.772566,8 C15.772566,10.209139 13.981705,12 11.772566,12 C9.56342699,12 7.77256599,10.209139 7.77256599,8 L7.77256599,7.5 L1.55555556,7.5 C1.00327081,7.5 0.555555556,7.05228475 0.555555556,6.5 C0.555555556,5.94771525 1.00327081,5.5 1.55555556,5.5 L7.77256599,5.5 Z M29.6058993,16 C28.5013298,16 27.6058993,16.8954305 27.6058993,18 L27.6058993,22 C27.6058993,23.1045695 28.5013298,24 29.6058993,24 C30.7104688,24 31.6058993,23.1045695 31.6058993,22 L31.6058993,18 C31.6058993,16.8954305 30.7104688,16 29.6058993,16 Z"/>
</svg>
