<svg xmlns="http://www.w3.org/2000/svg" width="40" height="40" viewBox="0 0 40 40">
  <g fill="none" fill-rule="evenodd">
    <rect width="40" height="40" fill="#FFF"/>
    <path fill="#000" d="M7.5,0 L19.5,0 C23.6421356,-7.6089797e-16 27,3.35786438 27,7.5 C27,11.6421356 23.6421356,15 19.5,15 L7.5,15 C3.35786438,15 5.07265313e-16,11.6421356 0,7.5 C-5.07265313e-16,3.35786438 3.35786438,7.6089797e-16 7.5,0 Z M19.5,12 C21.9852814,12 24,9.98528137 24,7.5 C24,5.01471863 21.9852814,3 19.5,3 C17.0147186,3 15,5.01471863 15,7.5 C15,9.98528137 17.0147186,12 19.5,12 Z M7.5,18 L19.5,18 C23.6421356,18 27,21.3578644 27,25.5 C27,29.6421356 23.6421356,33 19.5,33 L7.5,33 C3.35786438,33 0,29.6421356 0,25.5 C0,21.3578644 3.35786438,18 7.5,18 Z M7.5,20 C4.46243388,20 2,22.4624339 2,25.5 C2,28.5375661 4.46243388,31 7.5,31 L19.5,31 C22.5375661,31 25,28.5375661 25,25.5 C25,22.4624339 22.5375661,20 19.5,20 L7.5,20 Z M8.5,29.5 C6.290861,29.5 4.5,27.709139 4.5,25.5 C4.5,23.290861 6.290861,21.5 8.5,21.5 C10.709139,21.5 12.5,23.290861 12.5,25.5 C12.5,27.709139 10.709139,29.5 8.5,29.5 Z" transform="translate(6 3)"/>
  </g>
</svg>
