<svg xmlns="http://www.w3.org/2000/svg" width="35" height="40" viewBox="0 0 35 40">
  <path d="M9.09090909,2.64677169e-12 L25.3276956,2.64677169e-12 C30.348466,2.64677169e-12 34.4186047,4.07013864 34.4186047,9.09090909 C34.4186047,14.1116795 30.348466,18.1818182 25.3276956,18.1818182 L9.09090909,18.1818182 C4.07013864,18.1818182 6.09645667e-12,14.1116795 6.09645667e-12,9.09090909 C6.09645667e-12,4.07013864 4.07013864,2.64677169e-12 9.09090909,2.64677169e-12 Z M9.09090909,2 C5.17470814,2 2,5.17470814 2,9.09090909 C2,13.00711 5.17470814,16.1818182 9.09090909,16.1818182 L25.3276956,16.1818182 C29.2438965,16.1818182 32.4186047,13.00711 32.4186047,9.09090909 C32.4186047,5.17470814 29.2438965,2 25.3276956,2 L9.09090909,2 Z M9.09090909,21.8181818 L25.3276956,21.8181818 C30.348466,21.8181818 34.4186047,25.8883205 34.4186047,30.9090909 C34.4186047,35.9298614 30.348466,40 25.3276956,40 L9.09090909,40 C4.07013864,40 6.09645667e-12,35.9298614 6.09645667e-12,30.9090909 C6.09645667e-12,25.8883205 4.07013864,21.8181818 9.09090909,21.8181818 Z M9.09090909,23.8181818 C5.17470814,23.8181818 2,26.99289 2,30.9090909 C2,34.8252919 5.17470814,38 9.09090909,38 L25.3276956,38 C29.2438965,38 32.4186047,34.8252919 32.4186047,30.9090909 C32.4186047,26.99289 29.2438965,23.8181818 25.3276956,23.8181818 L9.09090909,23.8181818 Z M24.6511628,15.0909091 C21.2783151,15.0909091 18.5348837,12.4098284 18.5348837,9.09090909 C18.5348837,5.77198978 21.2783151,3.09090909 24.6511628,3.09090909 C28.0240105,3.09090909 30.7674419,5.77198978 30.7674419,9.09090909 C30.7674419,12.4098284 28.0240105,15.0909091 24.6511628,15.0909091 Z M9.76744186,36.9090909 C6.39459419,36.9090909 3.65116279,34.2280102 3.65116279,30.9090909 C3.65116279,27.5901716 6.39459419,24.9090909 9.76744186,24.9090909 C13.1402895,24.9090909 15.8837209,27.5901716 15.8837209,30.9090909 C15.8837209,34.2280102 13.1402895,36.9090909 9.76744186,36.9090909 Z"/>
</svg>
