<svg xmlns="http://www.w3.org/2000/svg" width="40" height="40" viewBox="0 0 40 40">
  <g fill="none" fill-rule="evenodd">
    <rect width="40" height="40" fill="#FFF"/>
    <path fill="#000" d="M28.969216,5.69365246 C31.4803113,8.58863805 33,12.3668479 33,16.5 C33,25.6126984 25.6126984,33 16.5,33 C7.38730163,33 0,25.6126984 0,16.5 C0,7.38730163 7.38730163,0 16.5,0 C19.8178454,0 22.9069692,0.979273814 25.4941026,2.66455265 C25.7936514,2.54308825 26.1211561,2.47619048 26.4642857,2.47619048 C27.8910213,2.47619048 29.047619,3.63278821 29.047619,5.05952381 C29.047619,5.27831859 29.020419,5.49076047 28.969216,5.69365246 Z M24.0562966,4.12208879 C21.8558075,2.77589156 19.2685134,2 16.5,2 C8.49187113,2 2,8.49187113 2,16.5 C2,24.5081289 8.49187113,31 16.5,31 C24.5081289,31 31,24.5081289 31,16.5 C31,13.0150572 29.7705833,9.81725996 27.7218034,7.31666185 C27.3496463,7.52444586 26.9207942,7.64285714 26.4642857,7.64285714 C25.0375501,7.64285714 23.8809524,6.48625941 23.8809524,5.05952381 C23.8809524,4.72885642 23.9430791,4.41269949 24.0562966,4.12208879 Z M16.8690476,24.6190476 C12.5888408,24.6190476 9.11904762,21.1492544 9.11904762,16.8690476 C9.11904762,12.5888408 12.5888408,9.11904762 16.8690476,9.11904762 C21.1492544,9.11904762 24.6190476,12.5888408 24.6190476,16.8690476 C24.6190476,21.1492544 21.1492544,24.6190476 16.8690476,24.6190476 Z M15.8780488,15.8780488 L13.608631,15.8780488 L13.608631,17.8780488 L15.8780488,17.8780488 L15.8780488,20.1294643 L17.8780488,20.1294643 L17.8780488,17.8780488 L20.1294643,17.8780488 L20.1294643,15.8780488 L17.8780488,15.8780488 L17.8780488,13.608631 L15.8780488,13.608631 L15.8780488,15.8780488 Z" transform="translate(3 3)"/>
  </g>
</svg>
