<svg xmlns="http://www.w3.org/2000/svg" width="42" height="42" viewBox="0 0 42 42">
  <path fill-rule="evenodd" d="M36.988253,7.38409079 C40.1135348,11.050354 42,15.8048732 42,21 C42,32.5979797 32.5979797,42 21,42 C9.40202025,42 0,32.5979797 0,21 C0,9.40202025 9.40202025,0 21,0 C25.1577585,0 29.0333032,1.20830065 32.2946415,3.29290916 C32.7606877,3.04514408 33.2925213,2.9047619 33.8571429,2.9047619 C35.698092,2.9047619 37.1904762,4.39714607 37.1904762,6.23809524 C37.1904762,6.64075921 37.1190788,7.02674741 36.988253,7.38409079 Z M30.8683567,4.76052722 C27.9921033,3.00894885 24.613878,2 21,2 C10.5065898,2 2,10.5065898 2,21 C2,31.4934102 10.5065898,40 21,40 C31.4934102,40 40,31.4934102 40,21 C40,16.4474431 38.3988466,12.2688557 35.7289525,8.99665037 C35.1953622,9.3594212 34.551011,9.57142857 33.8571429,9.57142857 C32.0161937,9.57142857 30.5238095,8.0790444 30.5238095,6.23809524 C30.5238095,5.70748667 30.6477878,5.20583478 30.8683567,4.76052722 Z M21.4761905,31.4761905 C15.953343,31.4761905 11.4761905,26.999038 11.4761905,21.4761905 C11.4761905,15.953343 15.953343,11.4761905 21.4761905,11.4761905 C26.999038,11.4761905 31.4761905,15.953343 31.4761905,21.4761905 C31.4761905,26.999038 26.999038,31.4761905 21.4761905,31.4761905 Z M20.4878049,20.4878049 L17.5595238,20.4878049 L17.5595238,22.4878049 L20.4878049,22.4878049 L20.4878049,25.3928571 L22.4878049,25.3928571 L22.4878049,22.4878049 L25.3928571,22.4878049 L25.3928571,20.4878049 L22.4878049,20.4878049 L22.4878049,17.5595238 L20.4878049,17.5595238 L20.4878049,20.4878049 Z"/>
</svg>
