<svg xmlns="http://www.w3.org/2000/svg" width="40" height="40" viewBox="0 0 40 40">
  <g fill="none" fill-rule="evenodd">
    <rect width="40" height="40" fill="#FFF"/>
    <path fill="#000" fill-rule="nonzero" d="M16.1994228,14.3863636 L19.6768382,10.9089482 L17.9720713,10.9089482 L17.9720713,8.90894821 L21.0910518,8.90894821 L23.0910518,8.90894821 L23.0910518,13.676065 L21.0910518,13.676065 L21.0910518,12.3231618 L17.6136364,15.8005772 L17.6136364,30 L21.8528129,30 L21.8528129,32 L7,32 C3.13400675,32 0,28.8659932 0,25 L0,11.7792194 L2,11.7792194 L2,14.3863636 L16.1994228,14.3863636 Z M13,-3.96482847e-12 L13,2 L8,2 L8,-3.96482847e-12 L13,-3.96482847e-12 Z M21,-3.96482847e-12 L21,2 L16,2 L16,-3.96482847e-12 L21,-3.96482847e-12 Z M29.312066,2.01809664 L27.9835896,3.5131386 C26.8926993,2.54378652 25.489927,2 24,2 L24,-3.96482847e-12 C25.9844012,-3.96482847e-12 27.8585431,0.726513568 29.312066,2.01809664 Z M32,10.0735935 L30,10.0735935 L30,8 C30,7.16103014 29.828298,6.34799809 29.4999549,5.59755587 L31.3322474,4.79586773 C31.7706818,5.79792821 32,6.88378047 32,8 L32,10.0735935 Z M32,18.0735935 L30,18.0735935 L30,13.0735935 L32,13.0735935 L32,18.0735935 Z M31.650948,26.3436547 L29.7384789,25.7584522 C29.911187,25.1940341 30,24.6035556 30,24 L30,21.0735935 L32,21.0735935 L32,24 C32,24.8024374 31.8815271,25.5901115 31.650948,26.3436547 Z M24.9253078,31.9469704 L24.6961626,29.9601406 C26.1629692,29.7909708 27.501384,29.0868459 28.4763741,27.9953608 L29.967944,29.3277344 C28.6693376,30.7815025 26.8832163,31.7211608 24.9253078,31.9469704 Z M1.45416179,3.39984762 L3.08962948,4.55104067 C2.38411597,5.55334393 2,6.74654724 2,8 L2,8.77921939 L0,8.77921939 L0,8 C0,6.33103694 0.513322342,4.73647183 1.45416179,3.39984762 Z M8,-3.96482847e-12 L8,2 C6.9224267,2 5.88865033,2.28355838 4.97966049,2.81432416 L3.97117893,1.08719796 C5.18418076,0.378917357 6.56560991,-3.96482847e-12 8,-3.96482847e-12 Z" transform="translate(5 4)"/>
  </g>
</svg>
