<svg xmlns="http://www.w3.org/2000/svg" width="40" height="40" viewBox="0 0 40 40">
  <path d="M26.0903694,12.495417 L23.480092,12.495417 L23.480092,10.495417 L27.504583,10.495417 L29.504583,10.495417 L29.504583,16.0658903 L27.504583,16.0658903 L27.504583,13.9096306 L22.7272727,18.6869408 L22.7272727,40 L7,40 C3.13400675,40 -7.93895345e-12,36.8659932 -7.94031507e-12,33 L-7.94031507e-12,17.2727273 L21.3130592,17.2727273 L26.0903694,12.495417 Z M13,0 L13,2 L8,2 L8,0 L13,0 Z M21,0 L21,2 L16,2 L16,0 L21,0 Z M29,0 L29,2 L24,2 L24,0 L29,0 Z M37.312066,2.01809664 L35.9835896,3.5131386 C34.8926993,2.54378652 33.489927,2 32,2 L32,0 C33.9844012,0 35.8585431,0.726513568 37.312066,2.01809664 Z M40,10.0735935 L38,10.0735935 L38,8 C38,7.16103014 37.828298,6.34799809 37.4999549,5.59755587 L39.3322474,4.79586773 C39.7706818,5.79792821 40,6.88378047 40,8 L40,10.0735935 Z M40,18.0735935 L38,18.0735935 L38,13.0735935 L40,13.0735935 L40,18.0735935 Z M40,26.0735935 L38,26.0735935 L38,21.0735935 L40,21.0735935 L40,26.0735935 Z M39.650948,34.3436547 L37.7384789,33.7584522 C37.911187,33.1940341 38,32.6035556 38,32 L38,29.0735935 L40,29.0735935 L40,32 C40,32.8024374 39.8815271,33.5901115 39.650948,34.3436547 Z M32.9253078,39.9469704 L32.6961626,37.9601406 C34.1629692,37.7909708 35.501384,37.0868459 36.4763741,35.9953608 L37.967944,37.3277344 C36.6693376,38.7815025 34.8832163,39.7211608 32.9253078,39.9469704 Z M24.8528129,40 L24.8528129,38 L29.8528129,38 L29.8528129,40 L24.8528129,40 Z M0,11.7792194 L2,11.7792194 L2,16.7792194 L0,16.7792194 L0,11.7792194 Z M1.45416179,3.39984762 L3.08962948,4.55104067 C2.38411597,5.55334393 2,6.74654724 2,8 L2,8.77921939 L0,8.77921939 L0,8 C0,6.33103694 0.513322342,4.73647183 1.45416179,3.39984762 Z M8,0 L8,2 C6.9224267,2 5.88865033,2.28355838 4.97966049,2.81432416 L3.97117893,1.08719796 C5.18418076,0.378917357 6.56560991,0 8,0 Z"/>
</svg>
