<svg xmlns="http://www.w3.org/2000/svg" width="117" height="60" viewBox="0 0 117 60">
  <g fill="none" transform="translate(.616 .34)">
    <polygon fill="#505256" points="6.664 2.38 1.862 5.278 6.664 8.162 5.894 9.296 .518 5.95 .518 4.592 5.936 1.246"/>
    <path fill="#0284FE" d="M15.512,6.874 C15.512,7.87267166 15.1573369,8.58666452 14.448,9.016 C13.7386631,9.44533548 12.8380055,9.66 11.746,9.66 L8.918,9.66 L8.918,2.27373675e-12 L11.564,2.27373675e-12 C12.5906718,2.27373675e-12 13.43533,0.18899811 14.098,0.567 C14.76067,0.94500189 15.092,1.57266228 15.092,2.45 C15.092,3.0100028 14.9216684,3.46966487 14.581,3.829 C14.2403316,4.18833513 13.8133359,4.42399944 13.3,4.536 C13.9346698,4.64800056 14.4619979,4.88366487 14.882,5.243 C15.3020021,5.60233513 15.512,6.14599636 15.512,6.874 Z M13.44,2.576 C13.44,2.09999762 13.2930015,1.75466774 12.999,1.54 C12.7049985,1.32533226 12.2733362,1.218 11.704,1.218 L10.542,1.218 L10.542,4.004 L11.802,4.004 C12.3526694,4.004 12.763332,3.88966781 13.034,3.661 C13.304668,3.43233219 13.44,3.07066914 13.44,2.576 Z M13.818,6.874 C13.818,6.2673303 13.6500017,5.84033457 13.314,5.593 C12.9779983,5.34566543 12.5113363,5.222 11.914,5.222 L10.542,5.222 L10.542,8.4 L11.858,8.4 C13.1646732,8.4 13.818,7.89133842 13.818,6.874 Z M18.998,7.434 C18.998,7.86333548 19.0843325,8.17366571 19.257,8.365 C19.4296675,8.55633429 19.6933316,8.652 20.048,8.652 C20.3840017,8.652 20.7083318,8.55400098 21.021,8.358 C21.3336682,8.16199902 21.5833324,7.91466816 21.77,7.616 L21.77,2.268 L23.338,2.268 L23.338,9.66 L21.98,9.66 L21.882,8.708 C21.6206654,9.07200182 21.2800021,9.35199902 20.86,9.548 C20.4399979,9.74400098 20.0060022,9.842 19.558,9.842 C18.8486631,9.842 18.3166684,9.65066858 17.962,9.268 C17.6073316,8.88533142 17.43,8.33933688 17.43,7.63 L17.43,2.268 L18.998,2.268 L18.998,7.434 Z M32.004,9.268 C31.7239986,9.44533422 31.3973352,9.58533282 31.024,9.688 C30.6506648,9.79066718 30.2586687,9.842 29.848,9.842 C29.0079958,9.842 28.3593356,9.62500217 27.902,9.191 C27.4446644,8.75699783 27.216,8.1666704 27.216,7.42 L27.216,3.416 L25.578,3.416 L25.578,2.268 L27.216,2.268 L27.216,0.616 L28.784,0.434 L28.784,2.268 L31.29,2.268 L31.108,3.416 L28.784,3.416 L28.784,7.406 C28.784,7.80733534 28.8866656,8.10366571 29.092,8.295 C29.2973344,8.48633429 29.6239978,8.582 30.072,8.582 C30.5666691,8.582 31.0239979,8.4653345 31.444,8.232 L32.004,9.268 Z M40.404,9.268 C40.1239986,9.44533422 39.7973352,9.58533282 39.424,9.688 C39.0506648,9.79066718 38.6586687,9.842 38.248,9.842 C37.4079958,9.842 36.7593356,9.62500217 36.302,9.191 C35.8446644,8.75699783 35.616,8.1666704 35.616,7.42 L35.616,3.416 L33.978,3.416 L33.978,2.268 L35.616,2.268 L35.616,0.616 L37.184,0.434 L37.184,2.268 L39.69,2.268 L39.508,3.416 L37.184,3.416 L37.184,7.406 C37.184,7.80733534 37.2866656,8.10366571 37.492,8.295 C37.6973344,8.48633429 38.0239978,8.582 38.472,8.582 C38.9666691,8.582 39.4239979,8.4653345 39.844,8.232 L40.404,9.268 Z M45.598,2.072 C46.6620053,2.072 47.4833304,2.41966319 48.062,3.115 C48.6406696,3.81033681 48.93,4.75532736 48.93,5.95 C48.93,7.14467264 48.6360029,8.0919965 48.048,8.792 C47.4599971,9.4920035 46.6386719,9.842 45.584,9.842 C44.5199947,9.842 43.6963363,9.49900343 43.113,8.813 C42.5296638,8.12699657 42.238,7.1773394 42.238,5.964 C42.238,4.78799412 42.5343304,3.84533688 43.127,3.136 C43.7196696,2.42666312 44.5433281,2.072 45.598,2.072 Z M45.598,3.29 C45.0286638,3.29 44.6016681,3.50933114 44.317,3.948 C44.0323319,4.38666886 43.89,5.05866214 43.89,5.964 C43.89,6.87867124 44.0299986,7.55299783 44.31,7.987 C44.5900014,8.42100217 45.0146638,8.638 45.584,8.638 C46.1533362,8.638 46.5779986,8.41866886 46.858,7.98 C47.1380014,7.54133114 47.278,6.86467124 47.278,5.95 C47.278,5.04466214 47.1380014,4.37500217 46.858,3.941 C46.5779986,3.50699783 46.1580028,3.29 45.598,3.29 Z M51.03,2.268 L52.388,2.268 L52.5,3.234 C52.8080015,2.8606648 53.1696646,2.57366767 53.585,2.373 C54.0003354,2.17233233 54.4366644,2.072 54.894,2.072 C55.5753367,2.072 56.0886649,2.26333142 56.434,2.646 C56.7793351,3.02866858 56.952,3.5699965 56.952,4.27 L56.952,9.66 L55.384,9.66 L55.384,5.054 C55.384,4.59666438 55.3583336,4.24433457 55.307,3.997 C55.2556664,3.74966543 55.1553341,3.56766725 55.006,3.451 C54.8566659,3.33433275 54.6326682,3.276 54.334,3.276 C53.9979983,3.276 53.6783349,3.37866564 53.375,3.584 C53.0716652,3.78933436 52.8126677,4.04599846 52.598,4.354 L52.598,9.66 L51.03,9.66 L51.03,2.268 Z"/>
    <path fill="#36AB80" d="M18.998,27.15 C19.2500013,26.8046649 19.5509983,26.5386676 19.901,26.352 C20.2510018,26.1653324 20.6266647,26.072 21.028,26.072 C21.9706714,26.072 22.6659978,26.4126633 23.114,27.094 C23.5620022,27.7753367 23.786,28.7273272 23.786,29.95 C23.786,31.1073391 23.5270026,32.0453297 23.009,32.764 C22.4909974,33.4826703 21.765338,33.842 20.832,33.842 C20.0106626,33.842 19.366669,33.5386697 18.9,32.932 L18.816,33.66 L17.43,33.66 L17.43,23.3 L18.998,23.118 L18.998,27.15 Z M20.454,32.652 C20.995336,32.652 21.4083319,32.4303355 21.693,31.987 C21.9776681,31.5436644 22.12,30.8693379 22.12,29.964 C22.12,29.030662 21.991668,28.3493355 21.735,27.92 C21.4783321,27.4906645 21.0980025,27.276 20.594,27.276 C20.2766651,27.276 19.9803347,27.373999 19.705,27.57 C19.4296653,27.766001 19.194001,28.0226651 18.998,28.34 L18.998,31.798 C19.3713352,32.3673362 19.8566637,32.652 20.454,32.652 Z M32.466,26.632 C32.195332,26.7253338 31.8896684,26.7883332 31.549,26.821 C31.2083316,26.8536668 30.8000024,26.87 30.324,26.87 C30.7720022,27.0753344 31.1079989,27.3319985 31.332,27.64 C31.5560011,27.9480015 31.668,28.3213311 31.668,28.76 C31.668,29.2453358 31.5490012,29.6746648 31.311,30.048 C31.0729988,30.4213352 30.7346689,30.7153323 30.296,30.93 C29.8573311,31.1446677 29.3393363,31.252 28.742,31.252 C28.3219979,31.252 27.9860013,31.2100004 27.734,31.126 C27.6313328,31.200667 27.5520003,31.2916661 27.496,31.399 C27.4399997,31.5063339 27.412,31.6206661 27.412,31.742 C27.412,32.1153352 27.7153303,32.302 28.322,32.302 L29.61,32.302 C30.1326693,32.302 30.5993313,32.3906658 31.01,32.568 C31.4206687,32.7453342 31.7403322,32.9903318 31.969,33.303 C32.1976678,33.6156682 32.312,33.967998 32.312,34.36 C32.312,35.097337 31.9946698,35.668998 31.36,36.075 C30.7253302,36.481002 29.8106726,36.684 28.616,36.684 C27.7853292,36.684 27.1296691,36.5976675 26.649,36.425 C26.1683309,36.2523325 25.8276677,36.000335 25.627,35.669 C25.4263323,35.337665 25.326,34.9106693 25.326,34.388 L26.726,34.388 C26.726,34.6680014 26.7796661,34.8896658 26.887,35.053 C26.9943339,35.2163341 27.183332,35.3376663 27.454,35.417 C27.724668,35.4963337 28.1166641,35.536 28.63,35.536 C29.3766704,35.536 29.9133317,35.4450009 30.24,35.263 C30.5666683,35.0809991 30.73,34.8126684 30.73,34.458 C30.73,34.1593318 30.601668,33.9283341 30.345,33.765 C30.0883321,33.6016658 29.7406689,33.52 29.302,33.52 L28.028,33.52 C27.36533,33.52 26.8636684,33.384668 26.523,33.114 C26.1823316,32.843332 26.012,32.5026687 26.012,32.092 C26.012,31.8399987 26.0819993,31.5973345 26.222,31.364 C26.3620007,31.1306655 26.5626654,30.9300008 26.824,30.762 C26.3853311,30.5286655 26.0656677,30.246335 25.865,29.915 C25.6643323,29.583665 25.564,29.1753358 25.564,28.69 C25.564,28.1766641 25.6946654,27.7216686 25.956,27.325 C26.2173346,26.9283313 26.581331,26.6203344 27.048,26.401 C27.514669,26.1816656 28.0466637,26.072 28.644,26.072 C29.4466707,26.0813334 30.0836643,26.0253339 30.555,25.904 C31.0263357,25.7826661 31.5279973,25.5913346 32.06,25.33 L32.466,26.632 Z M28.658,27.164 C28.1633309,27.164 27.7900013,27.3016653 27.538,27.577 C27.2859987,27.8523347 27.16,28.223331 27.16,28.69 C27.16,29.1660024 27.2883321,29.5416653 27.545,29.817 C27.801668,30.0923347 28.1773309,30.23 28.672,30.23 C29.138669,30.23 29.4933321,30.094668 29.736,29.824 C29.9786679,29.553332 30.1,29.1660025 30.1,28.662 C30.1,27.6633283 29.6193381,27.164 28.658,27.164 Z"/>
    <path fill="#505256" d="M40.082,28.564 L34.286,28.564 L34.286,27.276 L40.082,27.276 L40.082,28.564 Z M40.082,31.322 L34.286,31.322 L34.286,30.048 L40.082,30.048 L40.082,31.322 Z M45.108,26.03 C45.108,26.3380015 44.9936678,26.6016656 44.765,26.821 C44.5363322,27.0403344 44.2633349,27.15 43.946,27.15 C43.6193317,27.15 43.3463344,27.0403344 43.127,26.821 C42.9076656,26.6016656 42.798,26.3380015 42.798,26.03 C42.798,25.8806659 42.8213331,25.7196675 42.868,25.547 C42.9146669,25.3743325 42.9986661,25.1620013 43.12,24.91 L44.198,22.614 L45.248,22.614 L44.674,25.148 C44.9633348,25.3626677 45.108,25.6566648 45.108,26.03 Z M48.23,26.03 C48.23,26.3380015 48.1156678,26.6016656 47.887,26.821 C47.6583322,27.0403344 47.3853349,27.15 47.068,27.15 C46.7413317,27.15 46.4683344,27.0403344 46.249,26.821 C46.0296656,26.6016656 45.92,26.3380015 45.92,26.03 C45.92,25.8713325 45.9409998,25.7080008 45.983,25.54 C46.0250002,25.3719992 46.1066661,25.1620013 46.228,24.91 L47.32,22.614 L48.37,22.614 L47.782,25.148 C48.0806682,25.3720011 48.23,25.6659982 48.23,26.03 Z"/>
    <path fill="#FE7A4B" d="M56.126,26.072 C56.5833356,26.072 56.9426654,26.2306651 57.204,26.548 C57.4653346,26.8653349 57.596,27.4066628 57.596,28.172 L57.596,33.66 L56.21,33.66 L56.21,28.382 C56.21,27.9713313 56.179667,27.6866675 56.119,27.528 C56.058333,27.3693325 55.9253344,27.29 55.72,27.29 C55.327998,27.29 54.9640017,27.5373309 54.628,28.032 L54.628,33.66 L53.354,33.66 L53.354,28.382 C53.354,27.9713313 53.323667,27.6866675 53.263,27.528 C53.202333,27.3693325 53.0693344,27.29 52.864,27.29 C52.471998,27.29 52.1080017,27.5373309 51.772,28.032 L51.772,33.66 L50.372,33.66 L50.372,26.268 L51.548,26.268 L51.66,27.066 C51.8933345,26.7393317 52.1313321,26.4920008 52.374,26.324 C52.6166679,26.1559992 52.9059983,26.072 53.242,26.072 C53.8953366,26.072 54.3153324,26.3846635 54.502,27.01 C54.7260011,26.7113318 54.9686654,26.4803341 55.23,26.317 C55.4913346,26.1536658 55.7899983,26.072 56.126,26.072 Z M63.35,33.688 C63.0513318,34.5840045 62.6196695,35.2863308 62.055,35.795 C61.4903305,36.3036692 60.7133383,36.5999996 59.724,36.684 L59.528,35.508 C60.0133358,35.433333 60.4053318,35.3190008 60.704,35.165 C61.0026682,35.0109992 61.2406658,34.8173345 61.418,34.584 C61.5953342,34.3506655 61.7539993,34.0426686 61.894,33.66 L61.362,33.66 L58.87,26.268 L60.536,26.268 L62.398,32.568 L64.288,26.268 L65.898,26.268 L63.35,33.688 Z M71.4,32.554 C71.9880029,32.554 72.5946635,32.3440021 73.22,31.924 L73.934,32.932 C73.6073317,33.2120014 73.2153356,33.4336658 72.758,33.597 C72.3006644,33.7603341 71.8293358,33.842 71.344,33.842 C70.214661,33.842 69.3326698,33.4943368 68.698,32.799 C68.0633302,32.1036632 67.746,31.1726725 67.746,30.006 C67.746,29.2499962 67.8906652,28.5756696 68.18,27.983 C68.4693348,27.3903304 68.8869973,26.9236684 69.433,26.583 C69.9790027,26.2423316 70.6253296,26.072 71.372,26.072 C72.3520049,26.072 73.2059964,26.3706637 73.934,26.968 L73.206,27.948 C72.6086637,27.5373313 72.0066697,27.332 71.4,27.332 C70.7839969,27.332 70.2986684,27.5536644 69.944,27.997 C69.5893316,28.4403355 69.412,29.1099955 69.412,30.006 C69.412,30.8833377 69.5893316,31.5273313 69.944,31.938 C70.2986684,32.3486687 70.7839969,32.554 71.4,32.554 Z M79.198,26.072 C80.2620053,26.072 81.0833304,26.4196632 81.662,27.115 C82.2406696,27.8103368 82.53,28.7553274 82.53,29.95 C82.53,31.1446726 82.2360029,32.0919965 81.648,32.792 C81.0599971,33.4920035 80.2386719,33.842 79.184,33.842 C78.1199947,33.842 77.2963363,33.4990034 76.713,32.813 C76.1296638,32.1269966 75.838,31.1773394 75.838,29.964 C75.838,28.7879941 76.1343304,27.8453369 76.727,27.136 C77.3196696,26.4266631 78.1433281,26.072 79.198,26.072 Z M79.198,27.29 C78.6286638,27.29 78.2016681,27.5093311 77.917,27.948 C77.6323319,28.3866689 77.49,29.0586621 77.49,29.964 C77.49,30.8786712 77.6299986,31.5529978 77.91,31.987 C78.1900014,32.4210022 78.6146638,32.638 79.184,32.638 C79.7533362,32.638 80.1779986,32.4186689 80.458,31.98 C80.7380014,31.5413311 80.878,30.8646712 80.878,29.95 C80.878,29.0446621 80.7380014,28.3750022 80.458,27.941 C80.1779986,27.5069978 79.7580028,27.29 79.198,27.29 Z M87.878,31.644 C87.878,32.2693365 88.2513296,32.582 88.998,32.582 C89.3713352,32.582 89.7633313,32.4980008 90.174,32.33 L90.566,33.422 C90.0526641,33.7020014 89.4180038,33.842 88.662,33.842 C87.924663,33.842 87.3483354,33.6343354 86.933,33.219 C86.5176646,32.8036646 86.31,32.2320036 86.31,31.504 L86.31,24.448 L84.084,24.448 L84.084,23.3 L87.878,23.3 L87.878,31.644 Z M95.998,26.072 C97.0620053,26.072 97.8833304,26.4196632 98.462,27.115 C99.0406696,27.8103368 99.33,28.7553274 99.33,29.95 C99.33,31.1446726 99.0360029,32.0919965 98.448,32.792 C97.8599971,33.4920035 97.0386719,33.842 95.984,33.842 C94.9199947,33.842 94.0963363,33.4990034 93.513,32.813 C92.9296638,32.1269966 92.638,31.1773394 92.638,29.964 C92.638,28.7879941 92.9343304,27.8453369 93.527,27.136 C94.1196696,26.4266631 94.9433281,26.072 95.998,26.072 Z M95.998,27.29 C95.4286638,27.29 95.0016681,27.5093311 94.717,27.948 C94.4323319,28.3866689 94.29,29.0586621 94.29,29.964 C94.29,30.8786712 94.4299986,31.5529978 94.71,31.987 C94.9900014,32.4210022 95.4146638,32.638 95.984,32.638 C96.5533362,32.638 96.9779986,32.4186689 97.258,31.98 C97.5380014,31.5413311 97.678,30.8646712 97.678,29.95 C97.678,29.0446621 97.5380014,28.3750022 97.258,27.941 C96.9779986,27.5069978 96.5580028,27.29 95.998,27.29 Z M106.666,26.086 C107.048669,26.086 107.421998,26.1466661 107.786,26.268 L107.52,28.998 L106.4,28.998 L106.4,27.486 C105.886664,27.4953334 105.441002,27.7006647 105.063,28.102 C104.684998,28.5033353 104.384001,29.0679964 104.16,29.796 L104.16,32.54 L105.644,32.54 L105.644,33.66 L101.5,33.66 L101.5,32.54 L102.592,32.54 L102.592,27.388 L101.5,27.388 L101.5,26.268 L103.782,26.268 L104.062,27.976 C104.351335,27.3413302 104.703665,26.8676682 105.119,26.555 C105.534335,26.2423318 106.049997,26.086 106.666,26.086 Z"/>
    <path fill="#505256" d="M110.138 23.692C110.138 23.3839985 110.252332 23.1226677 110.481 22.908 110.709668 22.6933323 110.982665 22.586 111.3 22.586 111.626668 22.586 111.899666 22.690999 112.119 22.901 112.338334 23.1110011 112.448 23.3746651 112.448 23.692 112.448 23.8506675 112.424667 24.0093325 112.378 24.168 112.331333 24.3266675 112.242667 24.5459986 112.112 24.826L111.034 27.108 109.984 27.108 110.558 24.574C110.277999 24.3593323 110.138 24.0653352 110.138 23.692zM113.246 23.692C113.246 23.3839985 113.360332 23.1226677 113.589 22.908 113.817668 22.6933323 114.090665 22.586 114.408 22.586 114.734668 22.586 115.009999 22.690999 115.234 22.901 115.458001 23.1110011 115.57 23.3746651 115.57 23.692 115.57 23.8600008 115.546667 24.0233325 115.5 24.182 115.453333 24.3406675 115.364667 24.555332 115.234 24.826L114.142 27.108 113.106 27.108 113.694 24.574C113.395332 24.3499989 113.246 24.0560018 113.246 23.692zM6.48014975e-12 58.584L5.936 46.292 7.168 46.866 1.246 59.144 6.48014975e-12 58.584zM15.064 52.592L15.064 53.95 9.688 57.296 8.918 56.176 13.706 53.278 8.918 50.408 9.646 49.246 15.064 52.592z"/>
  </g>
</svg>
