<svg xmlns="http://www.w3.org/2000/svg" xmlns:xlink="http://www.w3.org/1999/xlink" width="918" height="598" viewBox="0 0 918 598">
  <defs>
    <rect id="group-7-b" width="752" height="487" x="0" y="0" rx="8"/>
    <filter id="group-7-a" width="122.6%" height="134.9%" x="-11.3%" y="-13.3%" filterUnits="objectBoundingBox">
      <feMorphology in="SourceAlpha" operator="dilate" radius="10" result="shadowSpreadOuter1"/>
      <feOffset dy="20" in="shadowSpreadOuter1" result="shadowOffsetOuter1"/>
      <feGaussianBlur in="shadowOffsetOuter1" result="shadowBlurOuter1" stdDeviation="15"/>
      <feColorMatrix in="shadowBlurOuter1" values="0 0 0 0 0   0 0 0 0 0   0 0 0 0 0  0 0 0 0.0302666084 0"/>
    </filter>
    <rect id="group-7-d" width="512" height="136" x="336" y="63" rx="6"/>
    <filter id="group-7-c" width="112.7%" height="147.8%" x="-6.3%" y="-20.2%" filterUnits="objectBoundingBox">
      <feMorphology in="SourceAlpha" radius="5" result="shadowSpreadOuter1"/>
      <feOffset dy="5" in="shadowSpreadOuter1" result="shadowOffsetOuter1"/>
      <feGaussianBlur in="shadowOffsetOuter1" result="shadowBlurOuter1" stdDeviation="15"/>
      <feColorMatrix in="shadowBlurOuter1" values="0 0 0 0 0   0 0 0 0 0   0 0 0 0 0  0 0 0 0.0829873252 0"/>
    </filter>
    <rect id="group-7-f" width="512" height="136" x="336" y="255" rx="6"/>
    <filter id="group-7-e" width="112.7%" height="147.8%" x="-6.3%" y="-20.2%" filterUnits="objectBoundingBox">
      <feMorphology in="SourceAlpha" radius="5" result="shadowSpreadOuter1"/>
      <feOffset dy="5" in="shadowSpreadOuter1" result="shadowOffsetOuter1"/>
      <feGaussianBlur in="shadowOffsetOuter1" result="shadowBlurOuter1" stdDeviation="15"/>
      <feColorMatrix in="shadowBlurOuter1" values="0 0 0 0 0   0 0 0 0 0   0 0 0 0 0  0 0 0 0.0829873252 0"/>
    </filter>
    <rect id="group-7-h" width="512" height="136" x="336" y="407" rx="6"/>
    <filter id="group-7-g" width="112.7%" height="147.8%" x="-6.3%" y="-20.2%" filterUnits="objectBoundingBox">
      <feMorphology in="SourceAlpha" radius="5" result="shadowSpreadOuter1"/>
      <feOffset dy="5" in="shadowSpreadOuter1" result="shadowOffsetOuter1"/>
      <feGaussianBlur in="shadowOffsetOuter1" result="shadowBlurOuter1" stdDeviation="15"/>
      <feColorMatrix in="shadowBlurOuter1" values="0 0 0 0 0   0 0 0 0 0   0 0 0 0 0  0 0 0 0.0829873252 0"/>
    </filter>
  </defs>
  <g fill="none" fill-rule="evenodd" transform="translate(50 30)">
    <use fill="#000" filter="url(#group-7-a)" xlink:href="#group-7-b"/>
    <use fill="#FDFCFC" xlink:href="#group-7-b"/>
    <rect width="88" height="88" x="352" y="79" fill="#F7F8F9" rx="4"/>
    <path stroke="#979797"/>
    <g opacity=".5">
      <rect width="1" height="424" fill="#000" opacity=".12" transform="translate(288 31)"/>
    </g>
    <use fill="#000" filter="url(#group-7-c)" xlink:href="#group-7-d"/>
    <use fill="#FFF" xlink:href="#group-7-d"/>
    <path fill="#0182FC" d="M8,0 L49,0 L49,487 L8,487 C3.581722,487 5.41083001e-16,483.418278 0,479 L0,8 C-1.42926142e-15,3.581722 3.581722,8.11624501e-16 8,0 Z"/>
    <path fill="#505256" fill-rule="nonzero" d="M340.887695 48L339.356445 48 339.356445 39.4550781 336.334961 39.4550781 336.334961 38.1357422 343.902344 38.1357422 343.902344 39.4550781 340.887695 39.4550781 340.887695 48zM348.058594 48.1367188C346.000977 48.1367188 344.647461 46.7216797 344.647461 44.4042969 344.647461 42.09375 346.007812 40.6787109 348.058594 40.6787109 350.109375 40.6787109 351.469727 42.09375 351.469727 44.4042969 351.469727 46.7216797 350.116211 48.1367188 348.058594 48.1367188zM348.058594 46.9199219C349.220703 46.9199219 349.96582 46.0039062 349.96582 44.4042969 349.96582 42.8115234 349.213867 41.8955078 348.058594 41.8955078 346.90332 41.8955078 346.151367 42.8115234 346.151367 44.4042969 346.151367 46.0039062 346.90332 46.9199219 348.058594 46.9199219zM352.611328 48L352.611328 40.8085938 354.019531 40.8085938 354.019531 42.0185547 354.053711 42.0185547C354.375 41.21875 355.126953 40.6855469 356.097656 40.6855469 357.095703 40.6855469 357.820312 41.1982422 358.107422 42.09375L358.141602 42.09375C358.510742 41.21875 359.358398 40.6855469 360.383789 40.6855469 361.805664 40.6855469 362.735352 41.6289062 362.735352 43.0576172L362.735352 48 361.251953 48 361.251953 43.4130859C361.251953 42.4833984 360.75293 41.9501953 359.87793 41.9501953 359.00293 41.9501953 358.394531 42.5996094 358.394531 43.5087891L358.394531 48 356.945312 48 356.945312 43.3037109C356.945312 42.4765625 356.418945 41.9501953 355.584961 41.9501953 354.709961 41.9501953 354.087891 42.6337891 354.087891 43.5566406L354.087891 48 352.611328 48zM364.157227 48L364.157227 40.8085938 365.56543 40.8085938 365.56543 42.0185547 365.599609 42.0185547C365.920898 41.21875 366.672852 40.6855469 367.643555 40.6855469 368.641602 40.6855469 369.366211 41.1982422 369.65332 42.09375L369.6875 42.09375C370.056641 41.21875 370.904297 40.6855469 371.929688 40.6855469 373.351562 40.6855469 374.28125 41.6289062 374.28125 43.0576172L374.28125 48 372.797852 48 372.797852 43.4130859C372.797852 42.4833984 372.298828 41.9501953 371.423828 41.9501953 370.548828 41.9501953 369.94043 42.5996094 369.94043 43.5087891L369.94043 48 368.491211 48 368.491211 43.3037109C368.491211 42.4765625 367.964844 41.9501953 367.130859 41.9501953 366.255859 41.9501953 365.633789 42.6337891 365.633789 43.5566406L365.633789 48 364.157227 48zM378.792969 48.1367188C376.735352 48.1367188 375.381836 46.7216797 375.381836 44.4042969 375.381836 42.09375 376.742188 40.6787109 378.792969 40.6787109 380.84375 40.6787109 382.204102 42.09375 382.204102 44.4042969 382.204102 46.7216797 380.850586 48.1367188 378.792969 48.1367188zM378.792969 46.9199219C379.955078 46.9199219 380.700195 46.0039062 380.700195 44.4042969 380.700195 42.8115234 379.948242 41.8955078 378.792969 41.8955078 377.637695 41.8955078 376.885742 42.8115234 376.885742 44.4042969 376.885742 46.0039062 377.637695 46.9199219 378.792969 46.9199219zM383.345703 48L383.345703 40.8085938 384.753906 40.8085938 384.753906 42.0322266 384.788086 42.0322266C385.027344 41.1914062 385.669922 40.6923828 386.517578 40.6923828 386.729492 40.6923828 386.914062 40.7265625 387.023438 40.7470703L387.023438 42.1210938C386.907227 42.0732422 386.647461 42.0390625 386.360352 42.0390625 385.410156 42.0390625 384.822266 42.6748047 384.822266 43.6933594L384.822266 48 383.345703 48zM391.029297 48.1367188C388.97168 48.1367188 387.618164 46.7216797 387.618164 44.4042969 387.618164 42.09375 388.978516 40.6787109 391.029297 40.6787109 393.080078 40.6787109 394.44043 42.09375 394.44043 44.4042969 394.44043 46.7216797 393.086914 48.1367188 391.029297 48.1367188zM391.029297 46.9199219C392.191406 46.9199219 392.936523 46.0039062 392.936523 44.4042969 392.936523 42.8115234 392.18457 41.8955078 391.029297 41.8955078 389.874023 41.8955078 389.12207 42.8115234 389.12207 44.4042969 389.12207 46.0039062 389.874023 46.9199219 391.029297 46.9199219zM405.070312 40.8085938L403.101562 48 401.563477 48 400.052734 42.6132812 400.018555 42.6132812 398.521484 48 396.99707 48 395.021484 40.8085938 396.498047 40.8085938 397.810547 46.46875 397.837891 46.46875 399.334961 40.8085938 400.756836 40.8085938 402.260742 46.46875 402.294922 46.46875 403.607422 40.8085938 405.070312 40.8085938zM336.464844 237.292969L337.955078 237.292969C338.091797 238.270508 339.021484 238.858398 340.333984 238.858398 341.584961 238.858398 342.480469 238.21582 342.480469 237.333984 342.480469 236.568359 341.960938 236.089844 340.641602 235.802734L339.568359 235.577148C337.592773 235.160156 336.697266 234.244141 336.697266 232.822266 336.697266 231.133789 338.180664 229.97168 340.279297 229.97168 342.371094 229.97168 343.799805 231.154297 343.847656 232.876953L342.364258 232.876953C342.268555 231.885742 341.455078 231.277344 340.258789 231.277344 339.103516 231.277344 338.255859 231.837891 338.255859 232.740234 338.255859 233.458008 338.761719 233.936523 340.040039 234.209961L341.120117 234.435547C343.18457 234.873047 344.032227 235.700195 344.032227 237.135742 344.032227 238.995117 342.569336 240.164062 340.272461 240.164062 338.043945 240.164062 336.560547 239.049805 336.464844 237.292969zM347.744141 238.954102C348.776367 238.954102 349.583008 238.243164 349.583008 237.306641L349.583008 236.739258 347.8125 236.848633C346.930664 236.910156 346.431641 237.299805 346.431641 237.915039 346.431641 238.543945 346.951172 238.954102 347.744141 238.954102zM347.333984 240.123047C345.925781 240.123047 344.941406 239.248047 344.941406 237.956055 344.941406 236.698242 345.905273 235.925781 347.614258 235.830078L349.583008 235.713867 349.583008 235.160156C349.583008 234.360352 349.042969 233.881836 348.140625 233.881836 347.286133 233.881836 346.75293 234.291992 346.623047 234.93457L345.228516 234.93457C345.310547 233.635742 346.417969 232.678711 348.195312 232.678711 349.938477 232.678711 351.052734 233.601562 351.052734 235.043945L351.052734 240 349.637695 240 349.637695 238.817383 349.603516 238.817383C349.186523 239.617188 348.277344 240.123047 347.333984 240.123047zM352.912109 231.106445L354.395508 231.106445 354.395508 232.808594 355.762695 232.808594 355.762695 233.977539 354.395508 233.977539 354.395508 237.942383C354.395508 238.564453 354.668945 238.844727 355.270508 238.844727 355.420898 238.844727 355.660156 238.831055 355.755859 238.810547L355.755859 239.979492C355.591797 240.020508 355.263672 240.047852 354.935547 240.047852 353.479492 240.047852 352.912109 239.494141 352.912109 238.106445L352.912109 233.977539 351.866211 233.977539 351.866211 232.808594 352.912109 232.808594 352.912109 231.106445zM363.138672 232.808594L363.138672 240 361.723633 240 361.723633 238.783203 361.689453 238.783203C361.292969 239.644531 360.561523 240.129883 359.460938 240.129883 357.895508 240.129883 356.938477 239.111328 356.938477 237.463867L356.938477 232.808594 358.415039 232.808594 358.415039 237.176758C358.415039 238.270508 358.93457 238.858398 359.953125 238.858398 361.019531 238.858398 361.662109 238.120117 361.662109 236.999023L361.662109 232.808594 363.138672 232.808594zM364.594727 240L364.594727 232.808594 366.00293 232.808594 366.00293 234.032227 366.037109 234.032227C366.276367 233.191406 366.918945 232.692383 367.766602 232.692383 367.978516 232.692383 368.163086 232.726562 368.272461 232.74707L368.272461 234.121094C368.15625 234.073242 367.896484 234.039062 367.609375 234.039062 366.65918 234.039062 366.071289 234.674805 366.071289 235.693359L366.071289 240 364.594727 240zM371.888672 240.123047C370.070312 240.123047 368.867188 238.673828 368.867188 236.404297 368.867188 234.134766 370.070312 232.692383 371.875 232.692383 372.907227 232.692383 373.727539 233.211914 374.130859 234.004883L374.158203 234.004883 374.158203 230.135742 375.641602 230.135742 375.641602 240 374.206055 240 374.206055 238.776367 374.178711 238.776367C373.754883 239.59668 372.93457 240.123047 371.888672 240.123047zM372.27832 233.936523C371.109375 233.936523 370.37793 234.893555 370.37793 236.404297 370.37793 237.921875 371.109375 238.87207 372.27832 238.87207 373.413086 238.87207 374.171875 237.908203 374.171875 236.404297 374.171875 234.914062 373.413086 233.936523 372.27832 233.936523zM379.667969 238.954102C380.700195 238.954102 381.506836 238.243164 381.506836 237.306641L381.506836 236.739258 379.736328 236.848633C378.854492 236.910156 378.355469 237.299805 378.355469 237.915039 378.355469 238.543945 378.875 238.954102 379.667969 238.954102zM379.257812 240.123047C377.849609 240.123047 376.865234 239.248047 376.865234 237.956055 376.865234 236.698242 377.829102 235.925781 379.538086 235.830078L381.506836 235.713867 381.506836 235.160156C381.506836 234.360352 380.966797 233.881836 380.064453 233.881836 379.209961 233.881836 378.676758 234.291992 378.546875 234.93457L377.152344 234.93457C377.234375 233.635742 378.341797 232.678711 380.119141 232.678711 381.862305 232.678711 382.976562 233.601562 382.976562 235.043945L382.976562 240 381.561523 240 381.561523 238.817383 381.527344 238.817383C381.110352 239.617188 380.201172 240.123047 379.257812 240.123047zM385.123047 242.679688C385 242.679688 384.630859 242.666016 384.521484 242.645508L384.521484 241.449219C384.630859 241.476562 384.876953 241.476562 385 241.476562 385.683594 241.476562 386.052734 241.189453 386.27832 240.451172 386.27832 240.4375 386.408203 240.013672 386.408203 240.006836L383.810547 232.808594 385.410156 232.808594 387.228516 238.660156 387.255859 238.660156 389.074219 232.808594 390.632812 232.808594 387.939453 240.375977C387.324219 242.119141 386.613281 242.679688 385.123047 242.679688z"/>
    <text fill="#000" font-family="SFProDisplay-Medium, SF Pro Display" font-size="10" font-weight="400" opacity=".5">
      <tspan x="352" y="185">4.23 pm</tspan>
    </text>
    <rect width="184" height="8" x="72" y="103" fill="#F1F2F4" rx="4"/>
    <rect width="184" height="8" x="72" y="123" fill="#F1F2F4" rx="4"/>
    <rect width="184" height="8" x="72" y="143" fill="#F1F2F4" rx="4"/>
    <rect width="184" height="8" x="72" y="163" fill="#F1F2F4" rx="4"/>
    <rect width="20" height="20" x="72" y="195" fill="#F1F2F4" rx="4"/>
    <rect width="20" height="20" x="100" y="195" fill="#E1E4E8" rx="4"/>
    <rect width="20" height="20" x="128" y="195" fill="#E1E4E8" rx="4"/>
    <rect width="20" height="20" x="156" y="195" fill="#C9CED6" rx="4"/>
    <rect width="326" height="8" x="472" y="95" fill="#F7F8F9" rx="4"/>
    <rect width="218" height="8" x="472" y="123" fill="#F7F8F9" rx="4"/>
    <rect width="291" height="8" x="472" y="151" fill="#F7F8F9" rx="4"/>
    <use fill="#000" filter="url(#group-7-e)" xlink:href="#group-7-f"/>
    <use fill="#FFF" xlink:href="#group-7-f"/>
    <use fill="#000" filter="url(#group-7-g)" xlink:href="#group-7-h"/>
    <use fill="#FFF" xlink:href="#group-7-h"/>
    <text fill="#000" font-family="SFProDisplay-Medium, SF Pro Display" font-size="10" font-weight="400" opacity=".5">
      <tspan x="352" y="377">4.23 pm</tspan>
    </text>
    <text fill="#000" font-family="SFProDisplay-Medium, SF Pro Display" font-size="10" font-weight="400" opacity=".5">
      <tspan x="352" y="529">4.23 pm</tspan>
    </text>
    <rect width="88" height="88" x="352" y="271" fill="#FDE8E1" rx="4"/>
    <rect width="88" height="88" x="352" y="79" fill="#FEF6F3" rx="4"/>
    <rect width="88" height="88" x="352" y="423" fill="#FCD7CA" rx="4"/>
    <rect width="326" height="8" x="472" y="287" fill="#F7F8F9" rx="4"/>
    <rect width="326" height="8" x="472" y="439" fill="#F7F8F9" rx="4"/>
    <rect width="218" height="8" x="472" y="315" fill="#F7F8F9" rx="4"/>
    <rect width="218" height="8" x="472" y="467" fill="#F7F8F9" rx="4"/>
    <rect width="291" height="8" x="472" y="343" fill="#F7F8F9" rx="4"/>
    <rect width="291" height="8" x="472" y="495" fill="#F7F8F9" rx="4"/>
    <path fill="#000" fill-rule="nonzero" d="M136.259766,57.4707031 L137.763672,57.4707031 C137.78418,58.2910156 138.378906,58.8515625 139.233398,58.8515625 C140.238281,58.8515625 140.785156,58.25 140.785156,57.1220703 L140.785156,50.1357422 L142.316406,50.1357422 L142.316406,57.1289062 C142.316406,59.0839844 141.167969,60.21875 139.24707,60.21875 C137.469727,60.21875 136.259766,59.1113281 136.259766,57.4707031 Z M150.143555,52.8085938 L150.143555,60 L148.728516,60 L148.728516,58.7832031 L148.694336,58.7832031 C148.297852,59.6445312 147.566406,60.1298828 146.46582,60.1298828 C144.900391,60.1298828 143.943359,59.1113281 143.943359,57.4638672 L143.943359,52.8085938 L145.419922,52.8085938 L145.419922,57.1767578 C145.419922,58.2705078 145.939453,58.8583984 146.958008,58.8583984 C148.024414,58.8583984 148.666992,58.1201172 148.666992,56.9990234 L148.666992,52.8085938 L150.143555,52.8085938 Z M154.115234,58.9541016 C155.147461,58.9541016 155.954102,58.2431641 155.954102,57.3066406 L155.954102,56.7392578 L154.183594,56.8486328 C153.301758,56.9101562 152.802734,57.2998047 152.802734,57.9150391 C152.802734,58.5439453 153.322266,58.9541016 154.115234,58.9541016 Z M153.705078,60.1230469 C152.296875,60.1230469 151.3125,59.2480469 151.3125,57.9560547 C151.3125,56.6982422 152.276367,55.9257812 153.985352,55.8300781 L155.954102,55.7138672 L155.954102,55.1601562 C155.954102,54.3603516 155.414062,53.8818359 154.511719,53.8818359 C153.657227,53.8818359 153.124023,54.2919922 152.994141,54.9345703 L151.599609,54.9345703 C151.681641,53.6357422 152.789062,52.6787109 154.566406,52.6787109 C156.30957,52.6787109 157.423828,53.6015625 157.423828,55.0439453 L157.423828,60 L156.008789,60 L156.008789,58.8173828 L155.974609,58.8173828 C155.557617,59.6171875 154.648438,60.1230469 153.705078,60.1230469 Z M158.852539,60 L158.852539,52.8085938 L160.260742,52.8085938 L160.260742,54.0117188 L160.294922,54.0117188 C160.68457,53.1914062 161.450195,52.6855469 162.557617,52.6855469 C164.143555,52.6855469 165.052734,53.6972656 165.052734,55.3447266 L165.052734,60 L163.569336,60 L163.569336,55.6318359 C163.569336,54.5517578 163.063477,53.9570312 162.038086,53.9570312 C160.999023,53.9570312 160.329102,54.6953125 160.329102,55.8095703 L160.329102,60 L158.852539,60 Z M173.652344,60.1640625 C170.883789,60.1640625 169.133789,58.2089844 169.133789,55.0644531 C169.133789,51.9404297 170.897461,49.9716797 173.652344,49.9716797 C175.887695,49.9716797 177.576172,51.3457031 177.835938,53.4033203 L176.318359,53.4033203 C176.044922,52.1386719 174.992188,51.3115234 173.652344,51.3115234 C171.861328,51.3115234 170.699219,52.78125 170.699219,55.0644531 C170.699219,57.3681641 171.847656,58.8242188 173.65918,58.8242188 C175.033203,58.8242188 176.010742,58.1201172 176.318359,56.9306641 L177.842773,56.9306641 C177.466797,58.9677734 175.921875,60.1640625 173.652344,60.1640625 Z M182.135742,60.1367188 C180.078125,60.1367188 178.724609,58.7216797 178.724609,56.4042969 C178.724609,54.09375 180.084961,52.6787109 182.135742,52.6787109 C184.186523,52.6787109 185.546875,54.09375 185.546875,56.4042969 C185.546875,58.7216797 184.193359,60.1367188 182.135742,60.1367188 Z M182.135742,58.9199219 C183.297852,58.9199219 184.042969,58.0039062 184.042969,56.4042969 C184.042969,54.8115234 183.291016,53.8955078 182.135742,53.8955078 C180.980469,53.8955078 180.228516,54.8115234 180.228516,56.4042969 C180.228516,58.0039062 180.980469,58.9199219 182.135742,58.9199219 Z M186.688477,60 L186.688477,52.8085938 L188.09668,52.8085938 L188.09668,54.0117188 L188.130859,54.0117188 C188.520508,53.1914062 189.286133,52.6855469 190.393555,52.6855469 C191.979492,52.6855469 192.888672,53.6972656 192.888672,55.3447266 L192.888672,60 L191.405273,60 L191.405273,55.6318359 C191.405273,54.5517578 190.899414,53.9570312 189.874023,53.9570312 C188.834961,53.9570312 188.165039,54.6953125 188.165039,55.8095703 L188.165039,60 L186.688477,60 Z M194.741211,51.1064453 L196.224609,51.1064453 L196.224609,52.8085938 L197.591797,52.8085938 L197.591797,53.9775391 L196.224609,53.9775391 L196.224609,57.9423828 C196.224609,58.5644531 196.498047,58.8447266 197.099609,58.8447266 C197.25,58.8447266 197.489258,58.8310547 197.584961,58.8105469 L197.584961,59.9794922 C197.420898,60.0205078 197.092773,60.0478516 196.764648,60.0478516 C195.308594,60.0478516 194.741211,59.4941406 194.741211,58.1064453 L194.741211,53.9775391 L193.695312,53.9775391 L193.695312,52.8085938 L194.741211,52.8085938 L194.741211,51.1064453 Z M198.801758,60 L198.801758,52.8085938 L200.209961,52.8085938 L200.209961,54.0322266 L200.244141,54.0322266 C200.483398,53.1914062 201.125977,52.6923828 201.973633,52.6923828 C202.185547,52.6923828 202.370117,52.7265625 202.479492,52.7470703 L202.479492,54.1210938 C202.363281,54.0732422 202.103516,54.0390625 201.816406,54.0390625 C200.866211,54.0390625 200.27832,54.6748047 200.27832,55.6933594 L200.27832,60 L198.801758,60 Z M206.40332,53.8681641 C205.371094,53.8681641 204.646484,54.6542969 204.571289,55.7412109 L208.166992,55.7412109 C208.132812,54.640625 207.435547,53.8681641 206.40332,53.8681641 Z M208.160156,57.8876953 L209.561523,57.8876953 C209.356445,59.2001953 208.112305,60.1367188 206.464844,60.1367188 C204.352539,60.1367188 203.074219,58.7080078 203.074219,56.4384766 C203.074219,54.1826172 204.373047,52.6787109 206.40332,52.6787109 C208.399414,52.6787109 209.643555,54.0869141 209.643555,56.2675781 L209.643555,56.7734375 L204.564453,56.7734375 L204.564453,56.8623047 C204.564453,58.1132812 205.316406,58.9404297 206.499023,58.9404297 C207.339844,58.9404297 207.961914,58.5166016 208.160156,57.8876953 Z M210.785156,60 L210.785156,52.8085938 L212.193359,52.8085938 L212.193359,54.0322266 L212.227539,54.0322266 C212.466797,53.1914062 213.109375,52.6923828 213.957031,52.6923828 C214.168945,52.6923828 214.353516,52.7265625 214.462891,52.7470703 L214.462891,54.1210938 C214.34668,54.0732422 214.086914,54.0390625 213.799805,54.0390625 C212.849609,54.0390625 212.261719,54.6748047 212.261719,55.6933594 L212.261719,60 L210.785156,60 Z M217.894531,58.9541016 C218.926758,58.9541016 219.733398,58.2431641 219.733398,57.3066406 L219.733398,56.7392578 L217.962891,56.8486328 C217.081055,56.9101562 216.582031,57.2998047 216.582031,57.9150391 C216.582031,58.5439453 217.101562,58.9541016 217.894531,58.9541016 Z M217.484375,60.1230469 C216.076172,60.1230469 215.091797,59.2480469 215.091797,57.9560547 C215.091797,56.6982422 216.055664,55.9257812 217.764648,55.8300781 L219.733398,55.7138672 L219.733398,55.1601562 C219.733398,54.3603516 219.193359,53.8818359 218.291016,53.8818359 C217.436523,53.8818359 216.90332,54.2919922 216.773438,54.9345703 L215.378906,54.9345703 C215.460938,53.6357422 216.568359,52.6787109 218.345703,52.6787109 C220.088867,52.6787109 221.203125,53.6015625 221.203125,55.0439453 L221.203125,60 L219.788086,60 L219.788086,58.8173828 L219.753906,58.8173828 C219.336914,59.6171875 218.427734,60.1230469 217.484375,60.1230469 Z M222.501953,54.8457031 C222.501953,53.5605469 223.623047,52.6787109 225.277344,52.6787109 C226.952148,52.6787109 228.039062,53.6083984 228.086914,54.9345703 L226.699219,54.9345703 C226.617188,54.2373047 226.104492,53.7998047 225.277344,53.7998047 C224.477539,53.7998047 223.944336,54.1894531 223.944336,54.7636719 C223.944336,55.2148438 224.272461,55.5224609 225.051758,55.7001953 L226.220703,55.9667969 C227.69043,56.3085938 228.250977,56.8828125 228.250977,57.921875 C228.250977,59.234375 227.027344,60.1367188 225.332031,60.1367188 C223.53418,60.1367188 222.454102,59.2548828 222.317383,57.8876953 L223.780273,57.8876953 C223.916992,58.6396484 224.429688,59.0087891 225.332031,59.0087891 C226.220703,59.0087891 226.767578,58.6396484 226.767578,58.0517578 C226.767578,57.5869141 226.500977,57.3134766 225.714844,57.1357422 L224.545898,56.8623047 C223.178711,56.5478516 222.501953,55.8916016 222.501953,54.8457031 Z"/>
  </g>
</svg>
